<svg width="20" height="20" viewBox="0 0 20 20" fill="none" xmlns="http://www.w3.org/2000/svg">
<path d="M9.9955 14.7C10.2068 14.7 10.3854 14.6286 10.5312 14.4858C10.6771 14.3428 10.75 14.1657 10.75 13.9545C10.75 13.7432 10.6786 13.5646 10.5358 13.4187C10.3928 13.2729 10.2157 13.2 10.0045 13.2C9.79317 13.2 9.61458 13.2714 9.46875 13.4143C9.32292 13.5573 9.25 13.7343 9.25 13.9455C9.25 14.1568 9.32142 14.3354 9.46425 14.4812C9.60725 14.6271 9.78433 14.7 9.9955 14.7ZM10.026 11.15C10.2087 11.15 10.3667 11.0832 10.5 10.9495C10.6333 10.8157 10.7 10.6575 10.7 10.475V5.675C10.7 5.4925 10.633 5.33442 10.499 5.20075C10.3652 5.06692 10.2068 5 10.024 5C9.84133 5 9.68333 5.06692 9.55 5.20075C9.41667 5.33442 9.35 5.4925 9.35 5.675V10.475C9.35 10.6575 9.417 10.8157 9.551 10.9495C9.68483 11.0832 9.84317 11.15 10.026 11.15ZM10.0043 19.5C8.69075 19.5 7.45567 19.2507 6.299 18.7522C5.14233 18.2537 4.13625 17.5772 3.28075 16.7225C2.42508 15.8678 1.74775 14.8629 1.24875 13.7078C0.749583 12.5524 0.5 11.3179 0.5 10.0043C0.5 8.68642 0.74975 7.44733 1.24925 6.287C1.74875 5.12667 2.42667 4.11725 3.283 3.25875C4.13933 2.40042 5.14425 1.72608 6.29775 1.23575C7.45142 0.74525 8.68408 0.5 9.99575 0.5C11.3134 0.5 12.5523 0.744917 13.7125 1.23475C14.8728 1.72458 15.8823 2.39833 16.7408 3.256C17.5994 4.11367 18.2739 5.12217 18.7642 6.2815C19.2547 7.44083 19.5 8.67958 19.5 9.99775C19.5 11.3159 19.2551 12.5505 18.7652 13.7015C18.2754 14.8525 17.6018 15.8566 16.7443 16.7138C15.8869 17.5711 14.8787 18.2498 13.7197 18.75C12.5606 19.25 11.3221 19.5 10.0043 19.5ZM10 18.15C12.2752 18.15 14.2023 17.3605 15.7815 15.7815C17.3605 14.2023 18.15 12.2752 18.15 10C18.15 7.72483 17.3605 5.79767 15.7815 4.2185C14.2023 2.6395 12.2752 1.85 10 1.85C7.72483 1.85 5.79767 2.6395 4.2185 4.2185C2.6395 5.79767 1.85 7.72483 1.85 10C1.85 12.2752 2.6395 14.2023 4.2185 15.7815C5.79767 17.3605 7.72483 18.15 10 18.15Z" fill="#141414"/>
</svg>
