<svg width="24" height="24" viewBox="0 0 24 24" fill="none" xmlns="http://www.w3.org/2000/svg">
<path d="M5.65 20.5C5.03333 20.5 4.521 20.2957 4.113 19.887C3.70433 19.479 3.5 18.9667 3.5 18.35V5.65C3.5 5.03333 3.70433 4.52067 4.113 4.112C4.521 3.704 5.03333 3.5 5.65 3.5H11.475V4.85H5.65C5.45 4.85 5.26667 4.93333 5.1 5.1C4.93333 5.26667 4.85 5.45 4.85 5.65V18.35C4.85 18.55 4.93333 18.7333 5.1 18.9C5.26667 19.0667 5.45 19.15 5.65 19.15H18.35C18.55 19.15 18.7333 19.0667 18.9 18.9C19.0667 18.7333 19.15 18.55 19.15 18.35V12.525H20.5V18.35C20.5 18.9667 20.296 19.479 19.888 19.887C19.4793 20.2957 18.9667 20.5 18.35 20.5H5.65ZM9.675 15.275L8.725 14.325L18.2 4.85H14.475V3.5H20.5V9.525H19.15V5.8L9.675 15.275Z" fill="#FFFFFF"/>
</svg>
