<svg width="20" height="20" viewBox="0 0 24 24" fill="none" xmlns="http://www.w3.org/2000/svg">
<path d="M11.35 16.75H12.7V11H11.35V16.75ZM12 9.35C12.2167 9.35 12.396 9.279 12.538 9.137C12.6793 8.99567 12.75 8.81667 12.75 8.6C12.75 8.38333 12.6793 8.204 12.538 8.062C12.396 7.92067 12.2167 7.85 12 7.85C11.8 7.85 11.625 7.92067 11.475 8.062C11.325 8.204 11.25 8.38333 11.25 8.6C11.25 8.8 11.321 8.975 11.463 9.125C11.6043 9.275 11.7833 9.35 12 9.35ZM12 21.5C10.6833 21.5 9.45 21.25 8.3 20.75C7.15 20.25 6.14567 19.575 5.287 18.725C4.429 17.875 3.75 16.8707 3.25 15.712C2.75 14.554 2.5 13.3167 2.5 12C2.5 10.6833 2.75 9.44567 3.25 8.287C3.75 7.129 4.429 6.12067 5.287 5.262C6.14567 4.404 7.15 3.729 8.3 3.237C9.45 2.74567 10.6833 2.5 12 2.5C13.3167 2.5 14.5543 2.74567 15.713 3.237C16.871 3.729 17.8793 4.404 18.738 5.262C19.596 6.12067 20.271 7.129 20.763 8.287C21.2543 9.44567 21.5 10.6833 21.5 12C21.5 13.3167 21.2543 14.55 20.763 15.7C20.271 16.85 19.596 17.854 18.738 18.712C17.8793 19.5707 16.871 20.25 15.713 20.75C14.5543 21.25 13.3167 21.5 12 21.5ZM12 20.15C14.2833 20.15 16.2127 19.3623 17.788 17.787C19.3627 16.2123 20.15 14.2833 20.15 12C20.15 9.71667 19.3627 7.78733 17.788 6.212C16.2127 4.63733 14.2833 3.85 12 3.85C9.71667 3.85 7.78767 4.63733 6.213 6.212C4.63767 7.78733 3.85 9.71667 3.85 12C3.85 14.2833 4.63767 16.2123 6.213 17.787C7.78767 19.3623 9.71667 20.15 12 20.15Z" fill="#141414"/>
</svg>
