<svg width="20" height="20" viewBox="0 0 20 20" fill="none" xmlns="http://www.w3.org/2000/svg">
<path d="M9.35 14.75H10.7V9H9.35V14.75ZM10 7.35C10.2167 7.35 10.396 7.279 10.538 7.137C10.6793 6.99567 10.75 6.81667 10.75 6.6C10.75 6.38333 10.6793 6.204 10.538 6.062C10.396 5.92067 10.2167 5.85 10 5.85C9.8 5.85 9.625 5.92067 9.475 6.062C9.325 6.204 9.25 6.38333 9.25 6.6C9.25 6.8 9.321 6.975 9.463 7.125C9.60433 7.275 9.78333 7.35 10 7.35ZM10 19.5C8.68333 19.5 7.45 19.25 6.3 18.75C5.15 18.25 4.14567 17.575 3.287 16.725C2.429 15.875 1.75 14.8707 1.25 13.712C0.75 12.554 0.5 11.3167 0.5 10C0.5 8.68333 0.75 7.44567 1.25 6.287C1.75 5.129 2.429 4.12067 3.287 3.262C4.14567 2.404 5.15 1.729 6.3 1.237C7.45 0.745667 8.68333 0.5 10 0.5C11.3167 0.5 12.5543 0.745667 13.713 1.237C14.871 1.729 15.8793 2.404 16.738 3.262C17.596 4.12067 18.271 5.129 18.763 6.287C19.2543 7.44567 19.5 8.68333 19.5 10C19.5 11.3167 19.2543 12.55 18.763 13.7C18.271 14.85 17.596 15.854 16.738 16.712C15.8793 17.5707 14.871 18.25 13.713 18.75C12.5543 19.25 11.3167 19.5 10 19.5ZM10 18.15C12.2833 18.15 14.2127 17.3623 15.788 15.787C17.3627 14.2123 18.15 12.2833 18.15 10C18.15 7.71667 17.3627 5.78733 15.788 4.212C14.2127 2.63733 12.2833 1.85 10 1.85C7.71667 1.85 5.78767 2.63733 4.213 4.212C2.63767 5.78733 1.85 7.71667 1.85 10C1.85 12.2833 2.63767 14.2123 4.213 15.787C5.78767 17.3623 7.71667 18.15 10 18.15Z" fill="#141414"/>
</svg>
