<svg width="20" height="20" viewBox="0 0 20 20" fill="none" xmlns="http://www.w3.org/2000/svg">
<path d="M10.026 14.75C10.2087 14.75 10.3667 14.6832 10.5 14.5495C10.6333 14.4157 10.7 14.2575 10.7 14.075V9.675C10.7 9.4925 10.633 9.33433 10.499 9.2005C10.3652 9.06683 10.2068 9 10.024 9C9.84133 9 9.68333 9.06683 9.55 9.2005C9.41667 9.33433 9.35 9.4925 9.35 9.675V14.075C9.35 14.2575 9.417 14.4157 9.551 14.5495C9.68483 14.6832 9.84317 14.75 10.026 14.75ZM9.9955 7.35C10.2068 7.35 10.3854 7.27858 10.5312 7.13575C10.6771 6.99275 10.75 6.81567 10.75 6.6045C10.75 6.39317 10.6786 6.21458 10.5358 6.06875C10.3928 5.92292 10.2157 5.85 10.0045 5.85C9.79317 5.85 9.61458 5.92142 9.46875 6.06425C9.32292 6.20725 9.25 6.38433 9.25 6.5955C9.25 6.80683 9.32142 6.98542 9.46425 7.13125C9.60725 7.27708 9.78433 7.35 9.9955 7.35ZM10.0043 19.5C8.69075 19.5 7.45567 19.2507 6.299 18.7522C5.14233 18.2537 4.13625 17.5772 3.28075 16.7225C2.42508 15.8678 1.74775 14.8629 1.24875 13.7078C0.749583 12.5524 0.5 11.3179 0.5 10.0043C0.5 8.68642 0.74975 7.44733 1.24925 6.287C1.74875 5.12667 2.42667 4.11725 3.283 3.25875C4.13933 2.40042 5.14425 1.72608 6.29775 1.23575C7.45142 0.74525 8.68408 0.5 9.99575 0.5C11.3134 0.5 12.5523 0.744917 13.7125 1.23475C14.8728 1.72458 15.8823 2.39833 16.7408 3.256C17.5994 4.11367 18.2739 5.12217 18.7642 6.2815C19.2547 7.44083 19.5 8.67958 19.5 9.99775C19.5 11.3159 19.2551 12.5505 18.7652 13.7015C18.2754 14.8525 17.6018 15.8566 16.7443 16.7138C15.8869 17.5711 14.8787 18.2498 13.7197 18.75C12.5606 19.25 11.3221 19.5 10.0043 19.5ZM10 18.15C12.2752 18.15 14.2023 17.3605 15.7815 15.7815C17.3605 14.2023 18.15 12.2752 18.15 10C18.15 7.72483 17.3605 5.79767 15.7815 4.2185C14.2023 2.6395 12.2752 1.85 10 1.85C7.72483 1.85 5.79767 2.6395 4.2185 4.2185C2.6395 5.79767 1.85 7.72483 1.85 10C1.85 12.2752 2.6395 14.2023 4.2185 15.7815C5.79767 17.3605 7.72483 18.15 10 18.15Z" fill="#141414"/>
</svg>
