<svg width="17" height="18" viewBox="0 0 17 18" fill="none" xmlns="http://www.w3.org/2000/svg">
<path d="M2.15 17.5C1.53333 17.5 1.021 17.2957 0.613 16.887C0.204333 16.479 0 15.9667 0 15.35V2.65C0 2.03333 0.204333 1.52067 0.613 1.112C1.021 0.704 1.53333 0.5 2.15 0.5H7.975V1.85H2.15C1.95 1.85 1.76667 1.93333 1.6 2.1C1.43333 2.26667 1.35 2.45 1.35 2.65V15.35C1.35 15.55 1.43333 15.7333 1.6 15.9C1.76667 16.0667 1.95 16.15 2.15 16.15H14.85C15.05 16.15 15.2333 16.0667 15.4 15.9C15.5667 15.7333 15.65 15.55 15.65 15.35V9.525H17V15.35C17 15.9667 16.796 16.479 16.388 16.887C15.9793 17.2957 15.4667 17.5 14.85 17.5H2.15ZM6.175 12.275L5.225 11.325L14.7 1.85H10.975V0.5H17V6.525H15.65V2.8L6.175 12.275Z" fill="#141414"/>
</svg>
