<svg width="20" height="18" viewBox="0 0 20 18" fill="none" xmlns="http://www.w3.org/2000/svg">
<path d="M1.821 17.1125C1.607 17.1125 1.41958 17.0573 1.25875 16.9468C1.09792 16.8364 0.97 16.7083 0.875 16.5625C0.772166 16.4192 0.717333 16.2542 0.7105 16.0675C0.7035 15.8808 0.757 15.6873 0.871 15.4868L9.079 1.41326C9.193 1.21276 9.325 1.07501 9.475 1.00001C9.625 0.925012 9.8 0.887512 10 0.887512C10.2 0.887512 10.375 0.925012 10.525 1.00001C10.675 1.07501 10.807 1.21276 10.921 1.41326L19.129 15.4868C19.243 15.6873 19.2965 15.8808 19.2895 16.0675C19.2827 16.2542 19.2278 16.4192 19.125 16.5625C19.03 16.7083 18.9021 16.8364 18.7413 16.9468C18.5804 17.0573 18.393 17.1125 18.179 17.1125H1.821ZM2.3 15.7625H17.7L10 2.51251L2.3 15.7625ZM10.025 14.5375C10.25 14.5375 10.4437 14.4563 10.6062 14.2938C10.7688 14.1313 10.85 13.9375 10.85 13.7125C10.85 13.4875 10.7688 13.2938 10.6062 13.1313C10.4437 12.9688 10.25 12.8875 10.025 12.8875C9.8 12.8875 9.60625 12.9688 9.44375 13.1313C9.28125 13.2938 9.2 13.4875 9.2 13.7125C9.2 13.9375 9.28125 14.1313 9.44375 14.2938C9.60625 14.4563 9.8 14.5375 10.025 14.5375ZM10.026 11.9625C10.2087 11.9625 10.3667 11.8957 10.5 11.762C10.6333 11.6282 10.7 11.47 10.7 11.2875V7.53751C10.7 7.35501 10.633 7.19693 10.499 7.06326C10.3652 6.92943 10.2068 6.86251 10.024 6.86251C9.84133 6.86251 9.68333 6.92943 9.55 7.06326C9.41667 7.19693 9.35 7.35501 9.35 7.53751V11.2875C9.35 11.47 9.417 11.6282 9.551 11.762C9.68483 11.8957 9.84317 11.9625 10.026 11.9625Z" fill="#141414"/>
</svg>
