<svg width="250" height="201" viewBox="0 0 250 201" fill="none" xmlns="http://www.w3.org/2000/svg">
<path d="M210.35 29.6505V158.35H23.6504V29.6505H210.35Z" fill="white" stroke="#141414" stroke-width="1.3" stroke-miterlimit="1.5"/>
<path d="M201.35 37.6505V150.35H32.6504V37.6505H201.35Z" fill="#EBF5DF" stroke="#141414" stroke-width="1.3" stroke-miterlimit="1.5" stroke-linecap="square"/>
<path d="M128.247 99.2728C126.769 99.2728 125.341 98.3873 124.652 97.0099L123.47 94.3535H111.747L110.565 97.0099C109.876 98.3873 108.496 99.2728 106.97 99.2728H106.329L111.353 137.447C111.599 138.184 112.092 138.184 112.338 137.447L117.313 125.247L121.647 137.397C121.893 138.135 122.386 138.135 122.632 137.397L128.444 99.322L128.247 99.2728Z" fill="url(#paint0_linear_15906_13871)"/>
<path d="M123.026 93.3204H112.24L110.615 97.0099C110.073 98.1413 108.94 98.9284 107.758 99.1744L111.55 122.689C111.797 123.131 112.289 123.131 112.535 122.689L117.411 115.31L121.844 122.639C122.14 123.082 122.583 123.082 122.829 122.639L127.114 99.076C126.08 98.7809 125.144 98.043 124.602 97.0099L123.026 93.3204Z" fill="url(#paint1_linear_15906_13871)"/>
<path d="M124.701 97.0099L117.658 81.2682L110.614 97.0099C110.368 97.4527 110.072 97.8954 109.678 98.2397L112.584 113.883C112.732 114.08 113.126 114.178 113.422 113.883L117.362 108.669L121.302 113.834C121.549 114.129 121.992 114.08 122.14 113.834L125.39 97.9938C125.095 97.6986 124.848 97.4035 124.701 97.0099Z" fill="url(#paint2_linear_15906_13871)"/>
<path opacity="0.5" d="M124.701 97.0099L117.658 81.2682L110.614 97.0099C110.368 97.4527 110.072 97.8954 109.678 98.2397L112.584 113.883C112.732 114.08 113.126 114.178 113.422 113.883L117.362 108.669L121.302 113.834C121.549 114.129 121.992 114.08 122.14 113.834L125.39 97.9938C125.095 97.6986 124.848 97.4035 124.701 97.0099Z" fill="url(#paint3_linear_15906_13871)"/>
<path d="M95.0502 59.8201C94.8532 59.0822 95.2472 58.5411 96.0353 58.5411H102.241C102.684 58.5411 103.079 58.9347 103.226 59.279L107.758 77.1361H107.955L116.131 58.5903C116.278 58.2952 116.574 58 117.017 58H118.002C118.446 58 118.79 58.246 118.889 58.5903L127.065 77.1361H127.262L131.793 59.279C131.892 58.8855 132.335 58.5411 132.778 58.5411H138.984C139.723 58.5411 140.117 59.0822 139.969 59.8201L129.971 95.2882C129.872 95.731 129.429 96.0261 128.986 96.0261H128.148C127.754 96.0261 127.41 95.7802 127.262 95.4358L117.559 73.8401H117.411L107.807 95.4358C107.659 95.731 107.265 96.0261 106.92 96.0261H106.083C105.64 96.0261 105.246 95.731 105.098 95.2882L95.0502 59.8201Z" fill="#F56640"/>
<path d="M138.35 158.651V200.35H95.6504V158.651H138.35Z" fill="white" stroke="#141414" stroke-width="1.3" stroke-miterlimit="1.5"/>
<line x1="77" y1="200.35" x2="157" y2="200.35" stroke="#141414" stroke-width="1.3"/>
<path d="M1 179L14.4743 165.36" stroke="#141414" stroke-width="1.3"/>
<path d="M26.8999 135.65C31.3797 135.65 35.6913 137.402 38.9263 140.518L39.2358 140.823C42.5037 144.147 44.35 148.634 44.3501 153.321C44.3501 158.008 42.5038 162.496 39.2358 165.82C35.9538 169.142 31.5245 170.993 26.8999 170.993C22.2757 170.993 17.8306 169.127 14.564 165.82C11.2817 162.498 9.45068 158.01 9.45068 153.321C9.4508 148.633 11.2972 144.13 14.564 140.823C17.846 137.501 22.2752 135.65 26.8999 135.65Z" fill="white" stroke="#141414" stroke-width="1.3"/>
<path d="M206 52C215.389 52 223 44.3888 223 35C223 25.6112 215.389 18 206 18C196.611 18 189 25.6112 189 35C189 44.3888 196.611 52 206 52Z" fill="white" stroke="#141414" stroke-width="1.3" stroke-miterlimit="1.5"/>
<path d="M206 44.0701C204.623 44.0701 203.509 42.9566 203.509 41.5796C203.509 41.0101 203.509 40.4491 203.509 39.9901C203.509 39.3526 203.322 38.7321 202.965 38.1966C202.515 37.5166 201.809 36.4711 201.01 35.2726C199.778 33.4281 199.667 31.0651 200.713 29.1101C201.758 27.1551 203.79 25.9396 206 25.9396H206.008C208.218 25.9396 210.258 27.1551 211.295 29.1101C212.341 31.0651 212.222 33.4281 210.998 35.2726C210.19 36.4711 209.493 37.5251 209.043 38.1966C208.686 38.7236 208.499 39.3526 208.499 39.9901C208.499 40.4491 208.499 41.0186 208.499 41.5796C208.49 42.9481 207.377 44.0701 206 44.0701Z" fill="#A6D0EC" stroke="#141414" stroke-width="1.3" stroke-miterlimit="1.5" stroke-linecap="square"/>
<path d="M204.037 40.1852H207.938" stroke="#141414" stroke-width="1.3" stroke-miterlimit="1.5" stroke-linecap="square"/>
<path d="M199 184.667L199 188" stroke="#141414" stroke-width="1.3" stroke-miterlimit="1.5" stroke-linejoin="bevel"/>
<path d="M199 168L199 171.333" stroke="#141414" stroke-width="1.3" stroke-miterlimit="1.5" stroke-linejoin="bevel"/>
<path d="M202.334 183.772L204 186.659" stroke="#141414" stroke-width="1.3" stroke-miterlimit="1.5" stroke-linejoin="bevel"/>
<path d="M194 169.34L195.667 172.227" stroke="#141414" stroke-width="1.3" stroke-miterlimit="1.5" stroke-linejoin="bevel"/>
<path d="M202.334 172.227L204 169.34" stroke="#141414" stroke-width="1.3" stroke-miterlimit="1.5" stroke-linejoin="bevel"/>
<path d="M194 186.659L195.667 183.772" stroke="#141414" stroke-width="1.3" stroke-miterlimit="1.5" stroke-linejoin="bevel"/>
<path d="M205.667 178L209 178" stroke="#141414" stroke-width="1.3" stroke-miterlimit="1.5" stroke-linejoin="bevel"/>
<path d="M189 178L192.333 178" stroke="#141414" stroke-width="1.3" stroke-miterlimit="1.5" stroke-linejoin="bevel"/>
<path d="M204.773 181.333L207.66 183" stroke="#141414" stroke-width="1.3" stroke-miterlimit="1.5" stroke-linejoin="bevel"/>
<path d="M190.34 173L193.227 174.667" stroke="#141414" stroke-width="1.3" stroke-miterlimit="1.5" stroke-linejoin="bevel"/>
<path d="M193.227 181.333L190.34 183" stroke="#141414" stroke-width="1.3" stroke-miterlimit="1.5" stroke-linejoin="bevel"/>
<path d="M207.66 173L204.773 174.667" stroke="#141414" stroke-width="1.3" stroke-miterlimit="1.5" stroke-linejoin="bevel"/>
<mask id="path-27-inside-1_15906_13871" fill="white">
<path d="M231.75 167.42C228.92 166.834 226.421 165.363 224.56 163.313L221.087 164.535L219.001 160.963L221.806 158.604C221.378 157.312 221.146 155.933 221.146 154.5C221.146 153.067 221.378 151.688 221.806 150.396L219 148.036L221.087 144.464L224.56 145.687C226.421 143.637 228.921 142.167 231.75 141.581L232.414 138L236.587 138L237.252 141.582C240.081 142.168 242.581 143.637 244.441 145.687L247.913 144.463L250 148.035L247.195 150.395C247.623 151.687 247.854 153.067 247.854 154.5C247.854 155.933 247.623 157.313 247.195 158.605L250 160.964L247.913 164.536L244.442 163.313C242.582 165.363 240.081 166.833 237.252 167.419L236.587 171L232.414 171L231.75 167.42Z"/>
</mask>
<path d="M231.75 167.42C228.92 166.834 226.421 165.363 224.56 163.313L221.087 164.535L219.001 160.963L221.806 158.604C221.378 157.312 221.146 155.933 221.146 154.5C221.146 153.067 221.378 151.688 221.806 150.396L219 148.036L221.087 144.464L224.56 145.687C226.421 143.637 228.921 142.167 231.75 141.581L232.414 138L236.587 138L237.252 141.582C240.081 142.168 242.581 143.637 244.441 145.687L247.913 144.463L250 148.035L247.195 150.395C247.623 151.687 247.854 153.067 247.854 154.5C247.854 155.933 247.623 157.313 247.195 158.605L250 160.964L247.913 164.536L244.442 163.313C242.582 165.363 240.081 166.833 237.252 167.419L236.587 171L232.414 171L231.75 167.42Z" fill="#D9EBF7"/>
<path d="M231.75 167.42L233.028 167.183L232.869 166.324L232.013 166.147L231.75 167.42ZM224.56 163.313L225.522 162.44L224.942 161.801L224.128 162.087L224.56 163.313ZM221.087 164.535L219.964 165.191L220.506 166.118L221.518 165.761L221.087 164.535ZM219.001 160.963L218.164 159.968L217.326 160.673L217.878 161.618L219.001 160.963ZM221.806 158.604L222.642 159.599L223.316 159.033L223.04 158.196L221.806 158.604ZM221.146 154.5L219.846 154.5L219.846 154.5L221.146 154.5ZM221.806 150.396L223.04 150.804L223.316 149.967L222.642 149.401L221.806 150.396ZM219 148.036L217.878 147.38L217.325 148.326L218.163 149.031L219 148.036ZM221.087 144.464L221.519 143.238L220.506 142.881L219.964 143.808L221.087 144.464ZM224.56 145.687L224.128 146.913L224.942 147.199L225.522 146.56L224.56 145.687ZM231.75 141.581L232.013 142.854L232.869 142.677L233.028 141.818L231.75 141.581ZM232.414 138L232.414 136.7L231.333 136.7L231.136 137.763L232.414 138ZM236.587 138L237.865 137.763L237.668 136.7L236.587 136.7L236.587 138ZM237.252 141.582L235.974 141.819L236.133 142.678L236.988 142.855L237.252 141.582ZM244.441 145.687L243.479 146.56L244.059 147.2L244.874 146.913L244.441 145.687ZM247.913 144.463L249.036 143.807L248.494 142.88L247.481 143.237L247.913 144.463ZM250 148.035L250.837 149.03L251.675 148.325L251.122 147.379L250 148.035ZM247.195 150.395L246.358 149.4L245.685 149.967L245.961 150.803L247.195 150.395ZM247.854 154.5L249.154 154.5L249.154 154.5L247.854 154.5ZM247.195 158.605L245.961 158.197L245.684 159.034L246.359 159.6L247.195 158.605ZM250 160.964L251.122 161.62L251.675 160.674L250.837 159.969L250 160.964ZM247.913 164.536L247.481 165.762L248.494 166.119L249.036 165.192L247.913 164.536ZM244.442 163.313L244.874 162.087L244.06 161.801L243.48 162.44L244.442 163.313ZM237.252 167.419L236.988 166.146L236.133 166.323L235.974 167.182L237.252 167.419ZM236.587 171L236.587 172.3L237.668 172.3L237.865 171.237L236.587 171ZM232.414 171L231.136 171.237L231.333 172.3L232.414 172.3L232.414 171ZM231.75 167.42L232.013 166.147C229.459 165.618 227.202 164.29 225.522 162.44L224.56 163.313L223.597 164.187C225.639 166.436 228.382 168.05 231.487 168.693L231.75 167.42ZM224.56 163.313L224.128 162.087L220.655 163.309L221.087 164.535L221.518 165.761L224.991 164.54L224.56 163.313ZM221.087 164.535L222.21 163.88L220.124 160.307L219.001 160.963L217.878 161.618L219.964 165.191L221.087 164.535ZM219.001 160.963L219.838 161.958L222.642 159.599L221.806 158.604L220.969 157.61L218.164 159.968L219.001 160.963ZM221.806 158.604L223.04 158.196C222.655 157.034 222.446 155.792 222.446 154.5L221.146 154.5L219.846 154.5C219.846 156.074 220.101 157.591 220.571 159.013L221.806 158.604ZM221.146 154.5L222.446 154.5C222.446 153.208 222.655 151.966 223.04 150.804L221.806 150.396L220.571 149.987C220.101 151.409 219.846 152.926 219.846 154.5L221.146 154.5ZM221.806 150.396L222.642 149.401L219.837 147.041L219 148.036L218.163 149.031L220.969 151.39L221.806 150.396ZM219 148.036L220.122 148.692L222.209 145.12L221.087 144.464L219.964 143.808L217.878 147.38L219 148.036ZM221.087 144.464L220.655 145.69L224.128 146.913L224.56 145.687L224.991 144.46L221.519 143.238L221.087 144.464ZM224.56 145.687L225.522 146.56C227.202 144.71 229.459 143.383 232.013 142.854L231.75 141.581L231.487 140.308C228.382 140.951 225.639 142.564 223.597 144.813L224.56 145.687ZM231.75 141.581L233.028 141.818L233.692 138.237L232.414 138L231.136 137.763L230.472 141.344L231.75 141.581ZM232.414 138L232.414 139.3L236.587 139.3L236.587 138L236.587 136.7L232.414 136.7L232.414 138ZM236.587 138L235.309 138.237L235.974 141.819L237.252 141.582L238.53 141.345L237.865 137.763L236.587 138ZM237.252 141.582L236.988 142.855C239.542 143.384 241.799 144.71 243.479 146.56L244.441 145.687L245.404 144.813C243.362 142.564 240.619 140.952 237.516 140.309L237.252 141.582ZM244.441 145.687L244.874 146.913L248.345 145.689L247.913 144.463L247.481 143.237L244.009 144.46L244.441 145.687ZM247.913 144.463L246.791 145.119L248.878 148.691L250 148.035L251.122 147.379L249.036 143.807L247.913 144.463ZM250 148.035L249.163 147.04L246.358 149.4L247.195 150.395L248.032 151.389L250.837 149.03L250 148.035ZM247.195 150.395L245.961 150.803C246.346 151.965 246.554 153.208 246.554 154.5L247.854 154.5L249.154 154.5C249.154 152.926 248.9 151.408 248.43 149.986L247.195 150.395ZM247.854 154.5L246.554 154.5C246.554 155.792 246.346 157.035 245.961 158.197L247.195 158.605L248.43 159.014C248.9 157.592 249.154 156.074 249.154 154.5L247.854 154.5ZM247.195 158.605L246.359 159.6L249.163 161.959L250 160.964L250.837 159.969L248.032 157.61L247.195 158.605ZM250 160.964L248.878 160.308L246.791 163.88L247.913 164.536L249.036 165.192L251.122 161.62L250 160.964ZM247.913 164.536L248.345 163.31L244.874 162.087L244.442 163.313L244.01 164.54L247.481 165.762L247.913 164.536ZM244.442 163.313L243.48 162.44C241.8 164.29 239.543 165.617 236.988 166.146L237.252 167.419L237.516 168.692C240.62 168.049 243.363 166.436 245.405 164.187L244.442 163.313ZM237.252 167.419L235.974 167.182L235.309 170.763L236.587 171L237.865 171.237L238.53 167.656L237.252 167.419ZM236.587 171L236.587 169.7L232.414 169.7L232.414 171L232.414 172.3L236.587 172.3L236.587 171ZM232.414 171L233.692 170.763L233.028 167.183L231.75 167.42L230.472 167.657L231.136 171.237L232.414 171Z" fill="#141414" mask="url(#path-27-inside-1_15906_13871)"/>
<path d="M234.56 162.925C229.841 162.925 226.029 159.147 226.029 154.501C226.029 149.855 229.841 146.076 234.56 146.076C239.278 146.076 243.09 149.855 243.09 154.501C243.09 159.146 239.278 162.925 234.56 162.925Z" fill="white" stroke="#141414" stroke-width="1.3"/>
<mask id="path-30-inside-2_15906_13871" fill="white">
<path d="M206.161 144.312C203.24 143.709 200.659 142.193 198.738 140.081L195.154 141.34L193.001 137.659L195.896 135.23C195.455 133.899 195.215 132.478 195.215 131.001C195.215 129.524 195.455 128.103 195.896 126.771L193.001 124.34L195.154 120.659L198.74 121.92C200.661 119.809 203.241 118.295 206.161 117.691L206.847 114L211.154 114L211.841 117.691C214.761 118.295 217.341 119.809 219.262 121.92L222.846 120.659L225 124.34L222.104 126.771C222.546 128.103 222.785 129.524 222.785 131.001C222.785 132.477 222.546 133.899 222.105 135.229L225 137.659L222.847 141.34L219.264 140.081C217.343 142.193 214.761 143.709 211.84 144.312L211.154 148L206.847 148L206.161 144.312Z"/>
</mask>
<path d="M206.161 144.312C203.24 143.709 200.659 142.193 198.738 140.081L195.154 141.34L193.001 137.659L195.896 135.23C195.455 133.899 195.215 132.478 195.215 131.001C195.215 129.524 195.455 128.103 195.896 126.771L193.001 124.34L195.154 120.659L198.74 121.92C200.661 119.809 203.241 118.295 206.161 117.691L206.847 114L211.154 114L211.841 117.691C214.761 118.295 217.341 119.809 219.262 121.92L222.846 120.659L225 124.34L222.104 126.771C222.546 128.103 222.785 129.524 222.785 131.001C222.785 132.477 222.546 133.899 222.105 135.229L225 137.659L222.847 141.34L219.264 140.081C217.343 142.193 214.761 143.709 211.84 144.312L211.154 148L206.847 148L206.161 144.312Z" fill="#A6D0EC"/>
<path d="M206.161 144.312L207.439 144.075L207.28 143.216L206.424 143.039L206.161 144.312ZM198.738 140.081L199.7 139.206L199.12 138.569L198.307 138.855L198.738 140.081ZM195.154 141.34L194.032 141.996L194.574 142.922L195.585 142.566L195.154 141.34ZM193.001 137.659L192.166 136.663L191.325 137.368L191.879 138.316L193.001 137.659ZM195.896 135.23L196.732 136.226L197.408 135.659L197.13 134.822L195.896 135.23ZM195.215 131.001L193.915 131.001L193.915 131.001L195.215 131.001ZM195.896 126.771L197.13 127.18L197.408 126.343L196.733 125.776L195.896 126.771ZM193.001 124.34L191.879 123.683L191.325 124.63L192.165 125.335L193.001 124.34ZM195.154 120.659L195.585 119.433L194.574 119.077L194.032 120.003L195.154 120.659ZM198.74 121.92L198.309 123.146L199.122 123.432L199.702 122.795L198.74 121.92ZM206.161 117.691L206.424 118.965L207.28 118.788L207.439 117.929L206.161 117.691ZM206.847 114L206.847 112.7L205.766 112.7L205.569 113.763L206.847 114ZM211.154 114L212.432 113.762L212.235 112.7L211.154 112.7L211.154 114ZM211.841 117.691L210.563 117.929L210.722 118.788L211.578 118.964L211.841 117.691ZM219.262 121.92L218.3 122.795L218.88 123.432L219.693 123.146L219.262 121.92ZM222.846 120.659L223.968 120.003L223.426 119.077L222.414 119.433L222.846 120.659ZM225 124.34L225.836 125.335L226.676 124.63L226.122 123.683L225 124.34ZM222.104 126.771L221.268 125.776L220.593 126.343L220.87 127.18L222.104 126.771ZM222.785 131.001L224.085 131.001L224.085 131.001L222.785 131.001ZM222.105 135.229L220.871 134.821L220.594 135.658L221.27 136.225L222.105 135.229ZM225 137.659L226.122 138.316L226.676 137.369L225.836 136.663L225 137.659ZM222.847 141.34L222.416 142.566L223.427 142.922L223.969 141.996L222.847 141.34ZM219.264 140.081L219.695 138.855L218.882 138.569L218.302 139.206L219.264 140.081ZM211.84 144.312L211.577 143.039L210.721 143.216L210.562 144.075L211.84 144.312ZM211.154 148L211.154 149.3L212.235 149.3L212.432 148.238L211.154 148ZM206.847 148L205.569 148.238L205.766 149.3L206.847 149.3L206.847 148ZM206.161 144.312L206.424 143.039C203.778 142.493 201.44 141.119 199.7 139.206L198.738 140.081L197.777 140.956C199.879 143.267 202.702 144.925 205.898 145.586L206.161 144.312ZM198.738 140.081L198.307 138.855L194.724 140.113L195.154 141.34L195.585 142.566L199.169 141.308L198.738 140.081ZM195.154 141.34L196.276 140.683L194.123 137.003L193.001 137.659L191.879 138.316L194.032 141.996L195.154 141.34ZM193.001 137.659L193.836 138.655L196.732 136.226L195.896 135.23L195.061 134.234L192.166 136.663L193.001 137.659ZM195.896 135.23L197.13 134.822C196.732 133.619 196.515 132.336 196.515 131.001L195.215 131.001L193.915 131.001C193.915 132.62 194.179 134.179 194.662 135.639L195.896 135.23ZM195.215 131.001L196.515 131.001C196.515 129.666 196.732 128.383 197.13 127.18L195.896 126.771L194.662 126.363C194.178 127.823 193.915 129.382 193.915 131.001L195.215 131.001ZM195.896 126.771L196.733 125.776L193.837 123.344L193.001 124.34L192.165 125.335L195.06 127.767L195.896 126.771ZM193.001 124.34L194.123 124.996L196.276 121.316L195.154 120.659L194.032 120.003L191.879 123.683L193.001 124.34ZM195.154 120.659L194.723 121.886L198.309 123.146L198.74 121.92L199.171 120.694L195.585 119.433L195.154 120.659ZM198.74 121.92L199.702 122.795C201.442 120.883 203.779 119.511 206.424 118.965L206.161 117.691L205.898 116.418C202.703 117.078 199.881 118.735 197.779 121.045L198.74 121.92ZM206.161 117.691L207.439 117.929L208.125 114.237L206.847 114L205.569 113.763L204.883 117.454L206.161 117.691ZM206.847 114L206.847 115.3L211.154 115.3L211.154 114L211.154 112.7L206.847 112.7L206.847 114ZM211.154 114L209.876 114.238L210.563 117.929L211.841 117.691L213.119 117.454L212.432 113.762L211.154 114ZM211.841 117.691L211.578 118.964C214.223 119.511 216.561 120.883 218.3 122.795L219.262 121.92L220.223 121.045C218.121 118.735 215.298 117.079 212.104 116.418L211.841 117.691ZM219.262 121.92L219.693 123.146L223.277 121.886L222.846 120.659L222.414 119.433L218.83 120.694L219.262 121.92ZM222.846 120.659L221.724 121.316L223.878 124.997L225 124.34L226.122 123.683L223.968 120.003L222.846 120.659ZM225 124.34L224.164 123.344L221.268 125.776L222.104 126.771L222.941 127.767L225.836 125.335L225 124.34ZM222.104 126.771L220.87 127.18C221.269 128.382 221.485 129.666 221.485 131.001L222.785 131.001L224.085 131.001C224.085 129.383 223.823 127.823 223.338 126.363L222.104 126.771ZM222.785 131.001L221.485 131.001C221.485 132.336 221.269 133.62 220.871 134.821L222.105 135.229L223.34 135.638C223.823 134.178 224.085 132.618 224.085 131.001L222.785 131.001ZM222.105 135.229L221.27 136.225L224.164 138.655L225 137.659L225.836 136.663L222.941 134.234L222.105 135.229ZM225 137.659L223.878 137.003L221.725 140.683L222.847 141.34L223.969 141.996L226.122 138.316L225 137.659ZM222.847 141.34L223.278 140.113L219.695 138.855L219.264 140.081L218.833 141.308L222.416 142.566L222.847 141.34ZM219.264 140.081L218.302 139.206C216.562 141.12 214.223 142.493 211.577 143.039L211.84 144.312L212.103 145.586C215.299 144.925 218.123 143.267 220.225 140.956L219.264 140.081ZM211.84 144.312L210.562 144.075L209.876 147.762L211.154 148L212.432 148.238L213.118 144.55L211.84 144.312ZM211.154 148L211.154 146.7L206.847 146.7L206.847 148L206.847 149.3L211.154 149.3L211.154 148ZM206.847 148L208.125 147.762L207.439 144.075L206.161 144.312L204.883 144.55L205.569 148.238L206.847 148Z" fill="#141414" mask="url(#path-30-inside-2_15906_13871)"/>
<path d="M209.061 139.7C204.177 139.7 200.234 135.797 200.233 131.001C200.233 126.204 204.177 122.301 209.061 122.301C213.944 122.301 217.888 126.204 217.888 131.001C217.887 135.797 213.944 139.7 209.061 139.7Z" fill="white" stroke="#141414" stroke-width="1.3"/>
<path d="M219 9.99988H239" stroke="#141414" stroke-width="1.3" stroke-miterlimit="1.5" stroke-linejoin="bevel"/>
<path d="M229 0V20" stroke="#141414" stroke-width="1.3" stroke-miterlimit="1.5" stroke-linejoin="bevel"/>
<path d="M229 2.85938C229 6.80337 232.352 10.0034 236.296 10.0034C232.352 10.0034 229 13.1994 229 17.1474C229 13.2034 225.476 10.0034 221.532 10.0034H221.86H221.532C225.476 9.99937 229 6.80337 229 2.85938Z" fill="white" stroke="#141414" stroke-width="1.3" stroke-miterlimit="1.5" stroke-linejoin="bevel"/>
<defs>
<linearGradient id="paint0_linear_15906_13871" x1="117.428" y1="137.948" x2="117.428" y2="108.556" gradientUnits="userSpaceOnUse">
<stop stop-color="#F56640"/>
<stop offset="0.2439" stop-color="#F57840"/>
<stop offset="1" stop-color="#FFBE54"/>
</linearGradient>
<linearGradient id="paint1_linear_15906_13871" x1="117.475" y1="122.532" x2="117.475" y2="98.9595" gradientUnits="userSpaceOnUse">
<stop stop-color="#F56640"/>
<stop offset="0.1811" stop-color="#F57840"/>
<stop offset="1" stop-color="#FFBE54"/>
</linearGradient>
<linearGradient id="paint2_linear_15906_13871" x1="117.489" y1="117.488" x2="117.489" y2="72.9166" gradientUnits="userSpaceOnUse">
<stop stop-color="#F56640"/>
<stop offset="0.0837881" stop-color="#F57840"/>
<stop offset="1" stop-color="#FFBE54"/>
</linearGradient>
<linearGradient id="paint3_linear_15906_13871" x1="117.489" y1="108.945" x2="117.489" y2="81.2672" gradientUnits="userSpaceOnUse">
<stop stop-color="#F56640"/>
<stop offset="0.3911" stop-color="#F57840"/>
<stop offset="1" stop-color="#FFBE54"/>
</linearGradient>
</defs>
</svg>
