<svg width="15" height="15" viewBox="0 0 15 15" fill="none" xmlns="http://www.w3.org/2000/svg">
<path d="M12.35 7.9381H0.675C0.491667 7.9381 0.333333 7.87143 0.2 7.7381C0.0666667 7.60476 0 7.44643 0 7.2631C0 7.07976 0.0666667 6.92143 0.2 6.78809C0.333333 6.65476 0.491667 6.5881 0.675 6.5881H12.35L7 1.2381C6.86667 1.10476 6.79167 0.942262 6.775 0.750595C6.75833 0.558929 6.825 0.388095 6.975 0.238095C7.125 0.0714286 7.29167 -0.0077381 7.475 0.000595238C7.65833 0.00892857 7.825 0.0880952 7.975 0.238095L14.25 6.5131C14.3667 6.62976 14.45 6.74643 14.5 6.8631C14.55 6.97976 14.575 7.1131 14.575 7.2631C14.575 7.4131 14.55 7.54643 14.5 7.66309C14.45 7.77976 14.3667 7.89643 14.25 8.01309L8.025 14.2381C7.875 14.3881 7.70833 14.4673 7.525 14.4756C7.34167 14.4839 7.175 14.4048 7.025 14.2381C6.875 14.0881 6.8 13.9256 6.8 13.7506C6.8 13.5756 6.875 13.4131 7.025 13.2631L12.35 7.9381Z" fill="#141414"/>
</svg>
