<svg width="24" height="24" viewBox="0 0 24 24" fill="none" xmlns="http://www.w3.org/2000/svg">
<path d="M12.0251 12.9752L6.80007 18.2252C6.65007 18.3752 6.48757 18.4502 6.31257 18.4502C6.13757 18.4502 5.96674 18.3669 5.80007 18.2002C5.65007 18.0335 5.57924 17.8752 5.58757 17.7252C5.59591 17.5752 5.67507 17.4169 5.82507 17.2502L11.0251 12.0252L5.80007 6.7502C5.66674 6.6002 5.59591 6.44604 5.58757 6.2877C5.57924 6.12937 5.65007 5.96687 5.80007 5.8002C5.96674 5.63354 6.13341 5.54604 6.30007 5.5377C6.46674 5.52937 6.63341 5.60854 6.80007 5.7752L12.0251 11.0252L17.2001 5.7752C17.3501 5.6252 17.5126 5.5502 17.6876 5.5502C17.8626 5.5502 18.0334 5.63354 18.2001 5.8002C18.3501 5.96687 18.4209 6.1252 18.4126 6.2752C18.4042 6.4252 18.3251 6.58354 18.1751 6.7502L12.9751 12.0252L18.1751 17.2502C18.3084 17.3835 18.3834 17.5335 18.4001 17.7002C18.4167 17.8669 18.3501 18.0335 18.2001 18.2002C18.0334 18.3669 17.8667 18.4544 17.7001 18.4627C17.5334 18.471 17.3667 18.3919 17.2001 18.2252L12.0251 12.9752Z" fill="white"/>
</svg>
