<svg width="20" height="20" viewBox="0 0 20 20" fill="none" xmlns="http://www.w3.org/2000/svg">
<path d="M4.70829 17.0833C4.19815 17.0833 3.77204 16.9122 3.42996 16.57C3.08774 16.2279 2.91663 15.8018 2.91663 15.2917V4.70834C2.91663 4.19834 3.08774 3.77223 3.42996 3.43001C3.77204 3.08778 4.19815 2.91667 4.70829 2.91667H8.99996C9.15274 2.91667 9.28468 2.97223 9.39579 3.08334C9.5069 3.19445 9.56246 3.32639 9.56246 3.47917C9.56246 3.63195 9.5069 3.76389 9.39579 3.87501C9.28468 3.98612 9.15274 4.04167 8.99996 4.04167H4.70829C4.54163 4.04167 4.38885 4.11112 4.24996 4.25001C4.11107 4.38889 4.04163 4.54167 4.04163 4.70834V15.2917C4.04163 15.4583 4.11107 15.6111 4.24996 15.75C4.38885 15.8889 4.54163 15.9583 4.70829 15.9583H15.2916C15.4583 15.9583 15.6111 15.8889 15.75 15.75C15.8888 15.6111 15.9583 15.4583 15.9583 15.2917V11C15.9583 10.8472 16.0138 10.7153 16.125 10.6042C16.2361 10.4931 16.368 10.4375 16.5208 10.4375C16.6736 10.4375 16.8055 10.4931 16.9166 10.6042C17.0277 10.7153 17.0833 10.8472 17.0833 11V15.2917C17.0833 15.8018 16.9122 16.2279 16.57 16.57C16.2277 16.9122 15.8016 17.0833 15.2916 17.0833H4.70829ZM15.9583 4.83334L8.45829 12.3333C8.34718 12.4445 8.21871 12.5035 8.07288 12.5104C7.92704 12.5174 7.79163 12.4583 7.66663 12.3333C7.54163 12.2083 7.47913 12.0764 7.47913 11.9375C7.47913 11.7986 7.54163 11.6667 7.66663 11.5417L15.1666 4.04167H12.625C12.4722 4.04167 12.3402 3.98612 12.2291 3.87501C12.118 3.76389 12.0625 3.63195 12.0625 3.47917C12.0625 3.32639 12.118 3.19445 12.2291 3.08334C12.3402 2.97223 12.4722 2.91667 12.625 2.91667H16.1875C16.4375 2.91667 16.6493 3.00348 16.8229 3.17709C16.9965 3.3507 17.0833 3.56251 17.0833 3.81251V7.37501C17.0833 7.52778 17.0277 7.65973 16.9166 7.77084C16.8055 7.88195 16.6736 7.93751 16.5208 7.93751C16.368 7.93751 16.2361 7.88195 16.125 7.77084C16.0138 7.65973 15.9583 7.52778 15.9583 7.37501V4.83334Z" fill="white"/>
</svg>
