<svg width="24" height="24" viewBox="0 0 24 24" fill="none" xmlns="http://www.w3.org/2000/svg">
<path d="M24 12C24 18.6 18.6 24 12 24C9.5 24 7.2 23.2 5.3 22C4.3 21.3 3.5 20.5 2.7 19.6C2 18.7 1.4 17.8 0.9 16.7C0.6 16 0.4 15.2 0.2 14.4C0.1 13.6 0 12.8 0 12H4C4 12.3 4 12.6 4 12.8C4.1 13.4 4.2 13.9 4.4 14.4C4.5 14.9 4.7 15.4 5 15.8C5.5 16.7 6.1 17.5 6.9 18.2C7.1 18.3 7.3 18.5 7.5 18.6C8 18.9 8.4 19.2 8.9 19.4C9.8 19.8 10.9 20 12 20C14.2 20 16.2 19.1 17.6 17.7C19.1 16.3 20 14.2 20 12C20 11.7 20 11.4 20 11.2C19.9 10.6 19.8 10.1 19.6 9.6C19.5 9.1 19.3 8.6 19 8.2C18.5 7.3 17.9 6.5 17.1 5.8C16.9 5.7 16.7 5.5 16.5 5.4C16 5.1 15.6 4.8 15.1 4.6C14.2 4.2 13.1 4 12 4V0C14.5 0 16.8 0.8 18.7 2C19.7 2.7 20.5 3.5 21.3 4.4C22 5.3 22.6 6.2 23.1 7.3C23.4 8 23.6 8.8 23.8 9.6C23.9 10.4 24 11.2 24 12Z" fill="#0078C8"/>
<path d="M12 4V0C5.4 0 0 5.4 0 12H4C4 7.6 7.6 4 12 4Z" fill="#B3D7EF"/>
</svg>
