<svg width="48" height="48" viewBox="0 0 48 48" fill="none" xmlns="http://www.w3.org/2000/svg">
<path d="M0 24C0 10.7452 10.7452 0 24 0C37.2548 0 48 10.7452 48 24C48 37.2548 37.2548 48 24 48C10.7452 48 0 37.2548 0 24Z" fill="#1356D9"/>
<path d="M24 25.5251L25.725 26.5751C25.925 26.6917 26.1208 26.6751 26.3125 26.5251C26.5042 26.3751 26.575 26.1834 26.525 25.9501L26.05 24.0251L27.55 22.7501C27.75 22.6001 27.8083 22.4126 27.725 22.1876C27.6417 21.9626 27.4917 21.8334 27.275 21.8001L25.275 21.6001L24.5 19.8001C24.4065 19.5667 24.2414 19.4501 24.0048 19.4501C23.7683 19.4501 23.6 19.5667 23.5 19.8001L22.725 21.6001L20.725 21.8001C20.5083 21.8334 20.3583 21.9626 20.275 22.1876C20.1917 22.4126 20.25 22.6001 20.45 22.7501L21.95 24.0251L21.475 25.9501C21.425 26.1834 21.4958 26.3751 21.6875 26.5251C21.8792 26.6751 22.075 26.6917 22.275 26.5751L24 25.5251ZM17.95 30.4751L16.325 32.1001C15.9917 32.4334 15.6042 32.5102 15.1625 32.3306C14.7208 32.1509 14.5 31.8241 14.5 31.3501V17.7251C14.5 17.1131 14.7053 16.6017 15.116 16.1911C15.5265 15.7804 16.0378 15.5751 16.65 15.5751H31.35C31.962 15.5751 32.4733 15.7804 32.884 16.1911C33.2947 16.6017 33.5 17.1131 33.5 17.7251V28.3251C33.5 28.9372 33.2947 29.4486 32.884 29.8591C32.4733 30.2697 31.962 30.4751 31.35 30.4751H17.95ZM17.4 29.1251H31.35C31.55 29.1251 31.7333 29.0417 31.9 28.8751C32.0667 28.7084 32.15 28.5251 32.15 28.3251V17.7251C32.15 17.5251 32.0667 17.3417 31.9 17.1751C31.7333 17.0084 31.55 16.9251 31.35 16.9251H16.65C16.45 16.9251 16.2667 17.0084 16.1 17.1751C15.9333 17.3417 15.85 17.5251 15.85 17.7251V30.7001L17.4 29.1251Z" fill="white"/>
</svg>
