<svg width="64" height="64" viewBox="0 0 64 64" fill="none" xmlns="http://www.w3.org/2000/svg">
<g filter="url(#filter0_d_17615_60)">
<path d="M8 14C8 9.58172 11.5817 6 16 6H48C52.4183 6 56 9.58172 56 14V46C56 50.4183 52.4183 54 48 54H16C11.5817 54 8 50.4183 8 46V14Z" fill="white"/>
<path d="M16 25.256V25.6183C16 26.6989 16.1874 27.7608 16.5434 28.7539C16.6871 28.7102 16.8433 28.6852 16.9994 28.6852H23.6643C23.8641 28.6852 24.0453 28.5666 24.1265 28.3792L26.1128 23.6132C26.3439 23.0635 26.8811 22.7012 27.4745 22.6888C28.0679 22.6763 28.6176 23.0261 28.8612 23.5695L32.0656 30.6841L34.6516 25.5121C34.9077 25.0061 35.4261 24.6813 35.9945 24.6813C36.563 24.6813 37.0814 24.9999 37.3375 25.5121L38.7866 28.4042C38.8741 28.5728 39.0427 28.679 39.2364 28.679H47.4816C47.8189 27.7046 48 26.6677 48 25.612V25.2498C48 20.8836 44.8456 17.1607 40.5419 16.4424C40.0547 16.3612 39.5612 16.3237 39.074 16.3237C36.7066 16.33 34.4267 17.2544 32.7402 18.9409L31.9906 19.6905L31.2411 18.9409C29.5546 17.2544 27.2746 16.3237 24.926 16.3237C24.4388 16.3237 23.9453 16.3612 23.4581 16.4424C19.1544 17.167 16 20.8898 16 25.256ZM18.2299 31.6835C18.4611 31.9521 18.7109 32.2144 18.9733 32.458L30.2604 42.9956C30.7289 43.4328 31.3473 43.6765 31.9906 43.6765C32.634 43.6765 33.2524 43.4328 33.7209 42.9956L45.008 32.458C45.2704 32.2144 45.5202 31.9521 45.7513 31.6835H39.2239C37.8997 31.6835 36.6879 30.9339 36.0945 29.7471L35.9883 29.5347L33.3336 34.8504C33.0775 35.3688 32.5403 35.6936 31.9594 35.6811C31.3785 35.6686 30.86 35.3251 30.6227 34.8004L27.5432 27.9607L26.8874 29.5347C26.3439 30.8402 25.0697 31.6897 23.658 31.6897H18.2237L18.2299 31.6835Z" fill="#94C4E4"/>
<path d="M18.23 31.6834H23.6643C25.076 31.6834 26.3502 30.8339 26.8936 29.5284L27.5495 27.9543L30.629 34.7941C30.8663 35.325 31.3848 35.6686 31.9657 35.6748C32.5466 35.681 33.0775 35.3625 33.3399 34.844L35.9883 29.5409L36.0945 29.7533C36.6879 30.9401 37.8997 31.6896 39.2239 31.6896H45.7513C46.5072 30.8027 47.0881 29.7845 47.4628 28.6914H39.2177C39.0303 28.6914 38.8554 28.5852 38.7679 28.4166L37.3188 25.5245C37.0627 25.0185 36.5442 24.6937 35.9758 24.6937C35.4074 24.6937 34.889 25.0123 34.6329 25.5245L32.0469 30.6965L28.8612 23.5756C28.6176 23.0322 28.068 22.6824 27.4746 22.6949C26.8812 22.7074 26.344 23.0634 26.1129 23.6194L24.1265 28.3853C24.0516 28.5727 23.8642 28.6914 23.6643 28.6914L16.9994 28.6851C16.837 28.6851 16.6871 28.7101 16.5435 28.7539C16.9245 29.8157 17.4929 30.8089 18.23 31.6834Z" fill="#0078C8"/>
</g>
<defs>
<filter id="filter0_d_17615_60" x="0" y="0" width="64" height="64" filterUnits="userSpaceOnUse" color-interpolation-filters="sRGB">
<feFlood flood-opacity="0" result="BackgroundImageFix"/>
<feColorMatrix in="SourceAlpha" type="matrix" values="0 0 0 0 0 0 0 0 0 0 0 0 0 0 0 0 0 0 127 0" result="hardAlpha"/>
<feOffset dy="2"/>
<feGaussianBlur stdDeviation="4"/>
<feComposite in2="hardAlpha" operator="out"/>
<feColorMatrix type="matrix" values="0 0 0 0 0.0784314 0 0 0 0 0.0784314 0 0 0 0 0.0784314 0 0 0 0.15 0"/>
<feBlend mode="normal" in2="BackgroundImageFix" result="effect1_dropShadow_17615_60"/>
<feBlend mode="normal" in="SourceGraphic" in2="effect1_dropShadow_17615_60" result="shape"/>
</filter>
</defs>
</svg>
