<svg width="48" height="49" viewBox="0 0 48 49" fill="none" xmlns="http://www.w3.org/2000/svg">
<rect x="2.5" y="8" width="43" height="33" fill="white" stroke="#141414" stroke-linejoin="round"/>
<path d="M45 8C45.2761 8 45.5 8.22386 45.5 8.5V16.5C45.5 16.7761 45.2761 17 45 17H3C2.72386 17 2.5 16.7761 2.5 16.5V8.5C2.5 8.22386 2.72386 8 3 8H45Z" fill="white" stroke="#141414" stroke-linejoin="round"/>
<circle cx="7" cy="12.5" r="1.5" stroke="#141414"/>
<circle cx="12" cy="12.5" r="1.5" stroke="#141414"/>
<path d="M26.3395 33.7039L25.5 40L22.5 39L24.269 33.2507C24.4063 32.8045 24.8186 32.5 25.2854 32.5C25.9285 32.5 26.4245 33.0665 26.3395 33.7039Z" fill="#EBF5DF" stroke="#141414"/>
<path d="M21.5 38L20.7496 33.4184C20.6334 32.7086 20.02 32.1875 19.3007 32.1875C18.7405 32.1875 18.2291 32.5063 17.9825 33.0094L15.8854 37.2865L13.3854 38.3854V44.0833C13.3854 44.3595 13.6093 44.5833 13.8854 44.5833H30.2302C30.272 44.5833 30.3109 44.5625 30.334 44.5277L36.7773 34.8387C37.3787 33.9344 36.917 32.7067 35.8687 32.4228C35.3297 32.2768 34.7537 32.4242 34.351 32.811L26.9916 39.8815L21.5 38Z" fill="#EBF5DF" stroke="#141414"/>
<path d="M13.5 37V45H9.5V37H13.5Z" fill="#F7F7F7" stroke="#141414"/>
<path d="M14 32H41.5C41.7761 32 42 31.7761 42 31.5V30C42 29.7239 41.7761 29.5 41.5 29.5H14C13.7239 29.5 13.5 29.7239 13.5 30V31.5C13.5 31.7761 13.7239 32 14 32Z" stroke="#141414"/>
<path d="M28.5488 4.80859C28.8484 3.88775 30.1516 3.88775 30.4512 4.80859L32.8945 12.3281H40.8008C41.7692 12.3284 42.1721 13.5683 41.3887 14.1377L34.9922 18.7842L37.4355 26.3037C37.7347 27.2249 36.6801 27.9909 35.8965 27.4219L29.5 22.7744L23.1035 27.4219C22.3199 27.9909 21.2653 27.2249 21.5645 26.3037L24.0078 18.7842L17.6113 14.1377C16.8279 13.5683 17.2308 12.3284 18.1992 12.3281H26.1055L28.5488 4.80859Z" fill="#A6D0EC" stroke="#141414" stroke-linejoin="round"/>
</svg>
