<svg width="64" height="64" viewBox="0 0 64 64" fill="none" xmlns="http://www.w3.org/2000/svg">
<g filter="url(#filter0_d_17615_85)">
<path d="M8 14C8 9.58172 11.5817 6 16 6H48C52.4183 6 56 9.58172 56 14V46C56 50.4183 52.4183 54 48 54H16C11.5817 54 8 50.4183 8 46V14Z" fill="white"/>
<path d="M48 30C48 34.2435 46.3143 38.3131 43.3137 41.3137C40.3131 44.3143 36.2435 46 32 46C27.7565 46 23.6869 44.3143 20.6863 41.3137C17.6857 38.3131 16 34.2435 16 30C16 25.7565 17.6857 21.6869 20.6863 18.6863C23.6869 15.6857 27.7565 14 32 14C36.2435 14 40.3131 15.6857 43.3137 18.6863C46.3143 21.6869 48 25.7565 48 30ZM20 30C20 30.5304 20.2107 31.0391 20.5858 31.4142C20.9609 31.7893 21.4696 32 22 32C22.5304 32 23.0391 31.7893 23.4142 31.4142C23.7893 31.0391 24 30.5304 24 30C24 29.4696 23.7893 28.9609 23.4142 28.5858C23.0391 28.2107 22.5304 28 22 28C21.4696 28 20.9609 28.2107 20.5858 28.5858C20.2107 28.9609 20 29.4696 20 30ZM23 23C23 23.5304 23.2107 24.0391 23.5858 24.4142C23.9609 24.7893 24.4696 25 25 25C25.5304 25 26.0391 24.7893 26.4142 24.4142C26.7893 24.0391 27 23.5304 27 23C27 22.4696 26.7893 21.9609 26.4142 21.5858C26.0391 21.2107 25.5304 21 25 21C24.4696 21 23.9609 21.2107 23.5858 21.5858C23.2107 21.9609 23 22.4696 23 23ZM28 36C28 38.2062 29.7938 40 32 40C33.1063 40 34.1062 39.55 34.8312 38.8312C35.1937 38.4687 35.4875 38.0375 35.6875 37.5625C35.7875 37.325 35.8688 37.075 35.9188 36.8125C35.9438 36.6813 35.9688 36.55 35.9813 36.4125C35.9875 36.3438 35.9937 36.275 35.9937 36.2125C36 36.1437 36 36.075 36 36.0063C36 35.95 36 35.8937 35.9937 35.8375C35.9875 35.7812 35.9875 35.725 35.9813 35.6688C35.9688 35.5563 35.9563 35.4437 35.9375 35.3312C38.3875 33.8125 40.8375 32.3 43.2812 30.7812C43.5125 30.6375 43.6875 30.4438 43.8062 30.225C43.8687 30.1125 43.9125 30 43.9438 29.875C43.9563 29.8125 43.9688 29.75 43.9813 29.6938C43.9875 29.6625 43.9875 29.6313 43.9875 29.6C43.9875 29.5813 43.9875 29.5688 43.9875 29.5063L43.9813 29.4C43.9813 29.4 43.975 29.35 43.9688 29.3C43.9625 29.2313 43.9437 29.1688 43.925 29.1C43.8875 28.9688 43.8313 28.8375 43.7563 28.7125C43.3188 28.0062 42.3938 27.7875 41.6938 28.225C39.2438 29.7438 36.7938 31.2562 34.35 32.775C33.7 32.2875 32.8813 32 32 32C29.7938 32 28 33.7938 28 36ZM30 20C30 20.5304 30.2107 21.0391 30.5858 21.4142C30.9609 21.7893 31.4696 22 32 22C32.5304 22 33.0391 21.7893 33.4142 21.4142C33.7893 21.0391 34 20.5304 34 20C34 19.4696 33.7893 18.9609 33.4142 18.5858C33.0391 18.2107 32.5304 18 32 18C31.4696 18 30.9609 18.2107 30.5858 18.5858C30.2107 18.9609 30 19.4696 30 20ZM37 23C37 23.5304 37.2107 24.0391 37.5858 24.4142C37.9609 24.7893 38.4696 25 39 25C39.5304 25 40.0391 24.7893 40.4142 24.4142C40.7893 24.0391 41 23.5304 41 23C41 22.4696 40.7893 21.9609 40.4142 21.5858C40.0391 21.2107 39.5304 21 39 21C38.4696 21 37.9609 21.2107 37.5858 21.5858C37.2107 21.9609 37 22.4696 37 23Z" fill="#94C4E4"/>
<path d="M41.7125 28.225C42.4187 27.7875 43.3437 28.0062 43.775 28.7125C44.2062 29.4187 43.9938 30.3437 43.2875 30.775L35.9437 35.325C35.9812 35.5437 36 35.7687 36 36C36 38.2062 34.2062 40 32 40C29.7938 40 28 38.2062 28 36C28 33.7937 29.7938 32 32 32C32.8812 32 33.7 32.2875 34.3625 32.775L41.7062 28.225H41.7125Z" fill="#0078C8"/>
</g>
<defs>
<filter id="filter0_d_17615_85" x="0" y="0" width="64" height="64" filterUnits="userSpaceOnUse" color-interpolation-filters="sRGB">
<feFlood flood-opacity="0" result="BackgroundImageFix"/>
<feColorMatrix in="SourceAlpha" type="matrix" values="0 0 0 0 0 0 0 0 0 0 0 0 0 0 0 0 0 0 127 0" result="hardAlpha"/>
<feOffset dy="2"/>
<feGaussianBlur stdDeviation="4"/>
<feComposite in2="hardAlpha" operator="out"/>
<feColorMatrix type="matrix" values="0 0 0 0 0.0784314 0 0 0 0 0.0784314 0 0 0 0 0.0784314 0 0 0 0.15 0"/>
<feBlend mode="normal" in2="BackgroundImageFix" result="effect1_dropShadow_17615_85"/>
<feBlend mode="normal" in="SourceGraphic" in2="effect1_dropShadow_17615_85" result="shape"/>
</filter>
</defs>
</svg>
