<svg width="64" height="64" viewBox="0 0 64 64" fill="none" xmlns="http://www.w3.org/2000/svg">
<g filter="url(#filter0_d_17615_109)">
<path d="M8 14C8 9.58172 11.5817 6 16 6H48C52.4183 6 56 9.58172 56 14V46C56 50.4183 52.4183 54 48 54H16C11.5817 54 8 50.4183 8 46V14Z" fill="white"/>
<path d="M16.1224 29.9999C16.1224 30.5874 16.4573 31.1188 16.9845 31.3625L30.5425 37.6756C31.0076 37.8882 31.5038 38.0007 32 38.0007C32.4961 38.0007 32.9923 37.8944 33.4575 37.6756L47.0154 31.3625C47.5426 31.1188 47.8775 30.5874 47.8775 29.9999C47.8775 29.4123 47.5426 28.881 47.0154 28.6373L43.7158 27.0996L34.2886 31.4875C32.8372 32.1626 31.1627 32.1626 29.7114 31.4875L20.2841 27.0996L16.9845 28.6373C16.4573 28.881 16.1224 29.4123 16.1224 29.9999Z" fill="#94C4E4"/>
<path d="M30.5425 14.3235C31.4666 13.8922 32.5333 13.8922 33.4575 14.3235L47.0154 20.6366C47.5426 20.8804 47.8775 21.4117 47.8775 21.9992C47.8775 22.5868 47.5426 23.1181 47.0154 23.3619L33.4575 29.675C32.5333 30.1063 31.4666 30.1063 30.5425 29.675L16.9845 23.3619C16.4573 23.1118 16.1224 22.5805 16.1224 21.9992C16.1224 21.4179 16.4573 20.8804 16.9845 20.6366L30.5425 14.3235ZM43.7158 35.1005L47.0154 36.6382C47.5426 36.8819 47.8775 37.4132 47.8775 38.0008C47.8775 38.5883 47.5426 39.1196 47.0154 39.3634L33.4575 45.6765C32.5333 46.1078 31.4666 46.1078 30.5425 45.6765L16.9845 39.3634C16.4573 39.1134 16.1224 38.5821 16.1224 38.0008C16.1224 37.4195 16.4573 36.8819 16.9845 36.6382L20.2841 35.1005L29.7114 39.4884C31.1627 40.1635 32.8372 40.1635 34.2886 39.4884L43.7158 35.1005Z" fill="#0078C8"/>
</g>
<defs>
<filter id="filter0_d_17615_109" x="0" y="0" width="64" height="64" filterUnits="userSpaceOnUse" color-interpolation-filters="sRGB">
<feFlood flood-opacity="0" result="BackgroundImageFix"/>
<feColorMatrix in="SourceAlpha" type="matrix" values="0 0 0 0 0 0 0 0 0 0 0 0 0 0 0 0 0 0 127 0" result="hardAlpha"/>
<feOffset dy="2"/>
<feGaussianBlur stdDeviation="4"/>
<feComposite in2="hardAlpha" operator="out"/>
<feColorMatrix type="matrix" values="0 0 0 0 0.0784314 0 0 0 0 0.0784314 0 0 0 0 0.0784314 0 0 0 0.15 0"/>
<feBlend mode="normal" in2="BackgroundImageFix" result="effect1_dropShadow_17615_109"/>
<feBlend mode="normal" in="SourceGraphic" in2="effect1_dropShadow_17615_109" result="shape"/>
</filter>
</defs>
</svg>
