<svg width="64" height="64" viewBox="0 0 64 64" fill="none" xmlns="http://www.w3.org/2000/svg">
<g filter="url(#filter0_d_17615_1135)">
<path d="M8 14C8 9.58172 11.5817 6 16 6H48C52.4183 6 56 9.58172 56 14V46C56 50.4183 52.4183 54 48 54H16C11.5817 54 8 50.4183 8 46V14Z" fill="white"/>
<path d="M32 14C36.2435 14 40.3129 15.6859 43.3135 18.6865C46.3141 21.6871 48 25.7565 48 30C48 34.2435 46.3141 38.3129 43.3135 41.3135C40.3129 44.3141 36.2435 46 32 46C27.7565 46 23.6871 44.3141 20.6865 41.3135C17.6859 38.3129 16 34.2435 16 30C16 25.7565 17.6859 21.6871 20.6865 18.6865C23.6871 15.6859 27.7565 14 32 14ZM27.5312 20.167C26.941 20.1673 26.4451 20.6045 26.3721 21.1875L25.333 29.5C25.3331 30.1451 25.8549 30.6668 26.5 30.667H31.75L30.0361 37.5469C30.0144 37.6305 30.003 37.7143 30.0029 37.7979C30.003 38.3699 30.47 38.8365 31.042 38.8369H31.1484C31.5237 38.8368 31.8777 38.6512 32.0928 38.3379L39.0996 28.0928C39.2526 27.8705 39.333 27.6076 39.333 27.3379C39.3328 26.598 38.7314 26.0001 37.9951 26H32.916L34.6045 21.501C34.6445 21.3918 34.666 21.2717 34.666 21.1553C34.666 20.6085 34.2254 20.1672 33.6787 20.167H27.5312Z" fill="#94C4E4"/>
<mask id="mask0_17615_1135" style="mask-type:luminance" maskUnits="userSpaceOnUse" x="25" y="20" width="15" height="19">
<path d="M39.3334 20.1667H25.3334V38.8334H39.3334V20.1667Z" fill="white"/>
</mask>
<g mask="url(#mask0_17615_1135)">
<path d="M25.3334 29.5001L26.3724 21.1876C26.4454 20.6042 26.9412 20.1667 27.5318 20.1667H33.6787C34.2256 20.1667 34.6667 20.6079 34.6667 21.1548C34.6667 21.2714 34.6448 21.3917 34.6047 21.5011L32.9167 26.0001H37.9954C38.7318 26.0001 39.3334 26.598 39.3334 27.3381C39.3334 27.6079 39.2532 27.8704 39.1 28.0928L32.0927 38.3376C31.8776 38.6511 31.524 38.8371 31.1485 38.8371H31.0427C30.4704 38.8371 30.0037 38.3704 30.0037 37.798C30.0037 37.7141 30.0146 37.6303 30.0365 37.5464L31.75 30.6667H26.5C25.8547 30.6667 25.3334 30.1454 25.3334 29.5001Z" fill="#0078C8"/>
</g>
</g>
<defs>
<filter id="filter0_d_17615_1135" x="0" y="0" width="64" height="64" filterUnits="userSpaceOnUse" color-interpolation-filters="sRGB">
<feFlood flood-opacity="0" result="BackgroundImageFix"/>
<feColorMatrix in="SourceAlpha" type="matrix" values="0 0 0 0 0 0 0 0 0 0 0 0 0 0 0 0 0 0 127 0" result="hardAlpha"/>
<feOffset dy="2"/>
<feGaussianBlur stdDeviation="4"/>
<feComposite in2="hardAlpha" operator="out"/>
<feColorMatrix type="matrix" values="0 0 0 0 0.0784314 0 0 0 0 0.0784314 0 0 0 0 0.0784314 0 0 0 0.15 0"/>
<feBlend mode="normal" in2="BackgroundImageFix" result="effect1_dropShadow_17615_1135"/>
<feBlend mode="normal" in="SourceGraphic" in2="effect1_dropShadow_17615_1135" result="shape"/>
</filter>
</defs>
</svg>
