<svg width="25" height="24" viewBox="0 0 25 24" fill="none" xmlns="http://www.w3.org/2000/svg">
<path d="M12.6094 16.7C12.826 16.7 13.0054 16.629 13.1474 16.487C13.2887 16.3457 13.3594 16.1667 13.3594 15.95C13.3594 15.7333 13.2887 15.554 13.1474 15.412C13.0054 15.2707 12.826 15.2 12.6094 15.2C12.4094 15.2 12.2344 15.2707 12.0844 15.412C11.9344 15.554 11.8594 15.7333 11.8594 15.95C11.8594 16.15 11.9304 16.325 12.0724 16.475C12.2137 16.625 12.3927 16.7 12.6094 16.7ZM11.9594 13.15H13.3094V7H11.9594V13.15ZM12.6094 21.5C11.2927 21.5 10.0594 21.25 8.90938 20.75C7.75938 20.25 6.75504 19.575 5.89638 18.725C5.03838 17.875 4.35938 16.8707 3.85938 15.712C3.35938 14.554 3.10938 13.3167 3.10938 12C3.10938 10.6833 3.35938 9.44567 3.85938 8.287C4.35938 7.129 5.03838 6.12067 5.89638 5.262C6.75504 4.404 7.75938 3.729 8.90938 3.237C10.0594 2.74567 11.2927 2.5 12.6094 2.5C13.926 2.5 15.1637 2.74567 16.3224 3.237C17.4804 3.729 18.4887 4.404 19.3474 5.262C20.2054 6.12067 20.8804 7.129 21.3724 8.287C21.8637 9.44567 22.1094 10.6833 22.1094 12C22.1094 13.3167 21.8637 14.55 21.3724 15.7C20.8804 16.85 20.2054 17.854 19.3474 18.712C18.4887 19.5707 17.4804 20.25 16.3224 20.75C15.1637 21.25 13.926 21.5 12.6094 21.5ZM12.6094 20.15C14.8927 20.15 16.822 19.3623 18.3974 17.787C19.972 16.2123 20.7594 14.2833 20.7594 12C20.7594 9.71667 19.972 7.78733 18.3974 6.212C16.822 4.63733 14.8927 3.85 12.6094 3.85C10.326 3.85 8.39704 4.63733 6.82237 6.212C5.24704 7.78733 4.45937 9.71667 4.45937 12C4.45937 14.2833 5.24704 16.2123 6.82237 17.787C8.39704 19.3623 10.326 20.15 12.6094 20.15Z" fill="#141414"/>
</svg>
