<svg width="13" height="13" viewBox="0 0 13 13" fill="none" xmlns="http://www.w3.org/2000/svg">
<path d="M6.43816 7.4381L1.21316 12.6881C1.06316 12.8381 0.900658 12.9131 0.725658 12.9131C0.550658 12.9131 0.379825 12.8298 0.213158 12.6631C0.0631579 12.4964 -0.00767544 12.3381 0.000657895 12.1881C0.00899123 12.0381 0.0881579 11.8798 0.238158 11.7131L5.43816 6.4881L0.213158 1.2131C0.0798246 1.0631 0.00899123 0.908929 0.000657895 0.750595C-0.00767544 0.592262 0.0631579 0.429762 0.213158 0.263095C0.379825 0.0964286 0.546491 0.00892857 0.713158 0.000595238C0.879825 -0.0077381 1.04649 0.0714286 1.21316 0.238095L6.43816 5.4881L11.6132 0.238095C11.7632 0.0880952 11.9257 0.0130952 12.1007 0.0130952C12.2757 0.0130952 12.4465 0.0964286 12.6132 0.263095C12.7632 0.429762 12.834 0.588095 12.8257 0.738095C12.8173 0.888095 12.7382 1.04643 12.5882 1.2131L7.38816 6.4881L12.5882 11.7131C12.7215 11.8464 12.7965 11.9964 12.8132 12.1631C12.8298 12.3298 12.7632 12.4964 12.6132 12.6631C12.4465 12.8298 12.2798 12.9173 12.1132 12.9256C11.9465 12.9339 11.7798 12.8548 11.6132 12.6881L6.43816 7.4381Z" fill="#F7F7F7"/>
</svg>
