<svg width="16" height="16" viewBox="0 0 16 16" fill="none" xmlns="http://www.w3.org/2000/svg">
<path fill-rule="evenodd" clip-rule="evenodd" d="M8 0C3.5912 0 0 3.5872 0 8C0 12.4088 3.5912 16 8 16C12.4088 16 16 12.4088 16 8C16 3.5872 12.4088 0 8 0ZM0.8072 8C0.8072 6.9584 1.0312 5.9664 1.4296 5.0736L4.8608 14.4744C3.64584 13.8841 2.62143 12.964 1.90462 11.8191C1.18781 10.6742 0.807523 9.35077 0.8072 8ZM5.9664 14.8976C7.41436 15.3285 8.96169 15.2887 10.3856 14.784C10.37 14.7587 10.3559 14.7325 10.3432 14.7056L10.3328 14.6848L8.1248 8.6256L5.9664 14.8976ZM8.992 4.6296C9.26649 4.61524 9.54048 4.59256 9.8136 4.5616C10.2008 4.5152 10.1544 3.9464 9.7672 3.968C9.7672 3.968 8.6008 4.0568 7.8504 4.0568C7.1432 4.0568 5.9552 3.968 5.9552 3.968C5.568 3.9464 5.5216 4.5408 5.9096 4.5616C5.9096 4.5616 6.2752 4.608 6.6632 4.6296L7.7832 7.7016L6.208 12.4192L3.5872 4.6296C3.86169 4.61524 4.13568 4.59256 4.4088 4.5616C4.7968 4.5152 4.7504 3.9464 4.3624 3.968C4.3624 3.968 3.1968 4.0568 2.4464 4.0568C2.3104 4.0568 2.1504 4.0536 1.9808 4.0464C2.63461 3.04985 3.52608 2.23163 4.5749 1.66547C5.62372 1.0993 6.79693 0.802978 7.9888 0.8032C9.8592 0.8032 11.5664 1.5184 12.8464 2.6912H12.8376C12.8097 2.68759 12.7817 2.68546 12.7536 2.6848C12.0464 2.6848 11.5488 3.2992 11.5488 3.9608C11.5488 4.5128 11.8432 4.9848 12.1784 5.5208L12.256 5.6464C12.5296 6.1224 12.8496 6.7416 12.8496 7.6304C12.8496 8.216 12.6368 8.892 12.3464 9.8144L12.3024 9.9552L11.5872 12.352L8.992 4.6296ZM13.8136 7.8648L11.616 14.216C12.705 13.5846 13.6088 12.6779 14.2366 11.5869C14.8644 10.4958 15.1942 9.25879 15.1928 8C15.1943 6.7932 14.891 5.60557 14.3112 4.5472C14.3437 4.77813 14.3603 5.0248 14.3608 5.2872C14.3608 6.0192 14.2224 6.8376 13.8136 7.8648Z" fill="#141414"/>
</svg>
