<?xml version="1.0" standalone="no"?>
<!DOCTYPE svg PUBLIC "-//W3C//DTD SVG 1.1//EN" "http://www.w3.org/Graphics/SVG/1.1/DTD/svg11.dtd" >
<svg xmlns="http://www.w3.org/2000/svg">
<metadata>
<json>
<![CDATA[
{
	"fontFamily": "rt-icons-2",
	"description": "Font generated by IcoMoon.",
	"majorVersion": 0,
	"version": "Version 1.0",
	"fontId": "rt-icons-2",
	"psName": "rt-icons-2",
	"subFamily": "Regular",
	"fullName": "rt-icons-2"
}
]]>
</json>
</metadata>
<defs>
<font id="rt-icons-2" horiz-adv-x="1024">
<font-face units-per-em="1024" ascent="960" descent="-64" />
<missing-glyph horiz-adv-x="1024" />
<glyph unicode="&#x20;" horiz-adv-x="512" d="" />
<glyph unicode="&#xe900;" glyph-name="gear" data-tags="gear" d="M1007.145 340.767l-73.789-11.756-39.117-94.515 43.909-60.436c5.775-7.967 4.915-18.944-2.028-25.907l-123.965-124.047c-6.943-6.943-17.92-7.823-25.887-2.028l-60.498 43.868-94.454-39.158-11.694-73.83c-1.556-9.708-9.912-16.876-19.743-16.876l-175.37-0.061c0 0 0 0 0 0-9.851 0-18.207 7.148-19.763 16.855l-11.735 73.789-94.536 39.096-60.436-43.909c-7.967-5.775-18.944-4.936-25.907 2.028l-124.027 123.965c-6.963 6.943-7.823 17.92-2.048 25.887l43.868 60.518-39.158 94.454-73.83 11.694c-9.708 1.536-16.855 9.912-16.855 19.743l-0.082 175.35c0 9.851 7.148 18.227 16.855 19.763l73.789 11.756 39.117 94.515-43.93 60.457c-5.775 7.946-4.915 18.924 2.048 25.887l123.945 124.047c6.963 6.943 17.94 7.823 25.887 2.048l60.518-43.889 94.454 39.178 11.694 73.81c1.536 9.708 9.912 16.876 19.743 16.876l175.37 0.082c0 0 0 0 0 0 9.83 0 18.207-7.168 19.763-16.855l11.735-73.789 94.515-39.117 60.457 43.909c7.967 5.796 18.944 4.915 25.887-2.028l124.047-123.945c6.963-6.963 7.823-17.94 2.048-25.907l-43.889-60.498 39.178-94.454 73.83-11.694c9.708-1.536 16.855-9.912 16.855-19.763l0.082-175.35c0-9.83-7.148-18.227-16.855-19.763zM983.941 518.799l-68.035 10.793c-6.861 1.065-12.677 5.652-15.34 12.083l-47.739 115.139c-2.662 6.431-1.802 13.763 2.273 19.395l40.448 55.747-99.901 99.82-55.685-40.448c-5.632-4.096-12.984-4.977-19.395-2.314l-115.22 47.677c-6.41 2.662-10.998 8.458-12.104 15.34l-10.813 67.973-141.21-0.061-10.793-68.014c-1.085-6.861-5.652-12.677-12.083-15.34l-115.139-47.739c-6.431-2.683-13.763-1.802-19.395 2.273l-55.747 40.448-99.82-99.901 40.448-55.685c4.096-5.632 4.956-12.984 2.294-19.395l-47.657-115.22c-2.662-6.431-8.479-10.998-15.34-12.104l-67.973-10.813 0.041-141.23 68.035-10.772c6.861-1.085 12.677-5.673 15.34-12.083l47.739-115.139c2.662-6.431 1.802-13.783-2.294-19.415l-40.428-55.747 99.901-99.82 55.685 40.468c3.461 2.519 7.598 3.809 11.756 3.809 2.58 0 5.181-0.492 7.639-1.516l115.2-47.677c6.431-2.662 11.018-8.458 12.124-15.34l10.813-67.973 141.21 0.061 10.772 68.014c1.106 6.881 5.673 12.677 12.104 15.34l115.139 47.759c6.41 2.662 13.763 1.782 19.395-2.294l55.747-40.428 99.82 99.881-40.448 55.706c-4.096 5.612-4.956 12.964-2.294 19.395l47.657 115.2c2.662 6.431 8.479 11.018 15.34 12.104l67.973 10.834-0.041 141.21zM511.713 123.965c-55.89 0-112.148 14.418-162.898 44.052-9.544 5.571-12.759 17.818-7.188 27.361 5.571 9.523 17.818 12.759 27.361 7.188 111.227-64.922 252.621-46.572 343.818 44.626 110.735 110.735 110.735 290.918 0 401.633-110.715 110.735-290.898 110.735-401.633 0-90.644-90.644-109.343-231.444-45.445-342.405 5.509-9.564 2.212-21.811-7.352-27.32s-21.791-2.212-27.32 7.352c-72.888 126.607-51.569 287.252 51.835 390.676 126.341 126.321 331.878 126.321 458.22 0 126.321-126.341 126.321-331.899 0-458.22-62.444-62.423-145.51-94.945-229.396-94.945zM311.153 247.214l0.573-0.573c7.864-7.782 7.926-20.439 0.143-28.283-3.912-3.953-9.052-5.919-14.213-5.919-5.079 0-10.179 1.925-14.070 5.796l-0.655 0.635c-7.823 7.803-7.864 20.46-0.061 28.283 7.782 7.844 20.46 7.864 28.283 0.061zM678.953 558.51c-5.939 0-11.817 2.621-15.77 7.66-27.279 34.877-65.946 59.392-108.851 69.038-10.793 2.417-17.551 13.128-15.135 23.9s13.128 17.551 23.9 15.135c51.896-11.694 98.632-41.308 131.584-83.415 6.799-8.684 5.284-21.258-3.42-28.078-3.666-2.847-8.008-4.239-12.308-4.239zM707.42 532.5c10.506 3.4 21.791-2.355 25.17-12.882l0.307-0.901c3.359-10.527-2.458-21.77-12.964-25.149-2.028-0.635-4.076-0.942-6.103-0.942-8.458 0-16.323 5.427-19.046 13.906l-0.246 0.799c-3.4 10.506 2.376 21.77 12.882 25.17zM329.81 472.924c-34.427 31.273-45.834 81.224-28.406 124.273 2.519 6.226 7.987 10.772 14.561 12.104 6.574 1.352 13.373-0.717 18.125-5.448l29.102-29.123c6.144-6.124 16.118-6.124 22.262 0 6.144 6.164 6.144 16.138 0 22.282l-29 29c-4.751 4.751-6.799 11.571-5.448 18.166 1.352 6.574 5.919 12.042 12.165 14.541 41.431 16.589 88.576 6.922 120.095-24.596 25.149-25.149 36.618-60.969 31.293-95.764l87.818-87.818c33.198 5.161 66.806-4.71 91.812-27.443 34.304-31.171 45.773-80.978 28.529-123.945-2.499-6.246-7.967-10.813-14.561-12.145-6.574-1.352-13.394 0.696-18.145 5.448l-28.815 28.815c-6.124 6.124-16.118 6.124-22.262 0-6.144-6.144-6.144-16.138 0-22.262l28.877-28.877c4.731-4.751 6.779-11.551 5.448-18.125-1.331-6.595-5.878-12.063-12.104-14.561-13.558-5.489-27.75-8.151-41.779-8.151-28.959 0-57.344 11.325-78.643 32.625-25.19 25.17-36.659 61.010-31.273 95.826l-87.757 87.777c-33.219-5.222-66.867 4.649-91.894 27.402zM428.196 487.281c5.243 0 10.342-2.048 14.152-5.857l103.014-103.014c5.059-5.059 7.025-12.411 5.181-19.292-6.554-24.576 0.532-50.975 18.473-68.915 11.715-11.735 26.808-18.739 42.598-20.46l-0.963 0.963c-21.729 21.729-21.729 57.098 0 78.828 21.729 21.75 57.098 21.75 78.828 0l0.696-0.676c-1.966 16.794-9.871 32.809-22.876 44.626-17.859 16.22-42.66 22.2-66.314 15.933-6.902-1.802-14.213 0.164-19.251 5.202l-103.096 103.076c-5.038 5.038-7.004 12.39-5.181 19.292 6.533 24.535-0.553 50.913-18.473 68.833-11.612 11.612-26.542 18.616-42.189 20.419l0.942-0.942c21.729-21.729 21.729-57.098 0-78.848-21.729-21.729-57.098-21.729-78.828 0l-1.147 1.147c1.884-16.957 9.789-33.116 22.938-45.056 17.879-16.261 42.701-22.2 66.376-15.913 1.7 0.451 3.42 0.655 5.12 0.655z" />
<glyph unicode="&#xe901;" glyph-name="welding" data-tags="welding" d="M733.266 826.211h-439.96c-14.151 0-25.729-11.578-25.729-25.729v-306.171c0-14.151 11.578-25.729 25.729-25.729h439.96c14.151 0 25.729 11.578 25.729 25.729v306.171c0 14.151-11.578 25.729-25.729 25.729zM704.965 520.040h-385.93v254.714h385.93v-254.714zM960.965 713.005h-70.754v127.614c0 65.608-53.258 119.381-118.866 119.381h-518.689c-65.608 0-118.866-54.030-118.866-119.381v-127.614h-70.754c-14.151 0-27.015-11.321-27.015-25.471v-219.465c0-14.151 12.607-25.214 27.015-25.214h70.754v-241.077c0-146.139 118.866-265.777 265.005-265.777h226.412c146.139 0 265.005 119.638 265.005 265.777v241.077h70.754c14.151 0 27.015 10.806 27.015 25.214v219.465c0 14.151-12.607 25.471-27.015 25.471zM133.789 494.312h-46.312v167.236h46.312v-167.236zM839.011 201.777h-0.257c0-117.837-95.711-214.32-213.548-214.32h-226.412c-117.837 0-213.548 96.482-213.548 214.32v638.585c0 37.307 30.103 67.666 67.409 67.924h518.947c37.307-0.257 67.409-30.617 67.409-67.924v-638.585zM936.523 494.312h-46.312v167.236h46.312v-167.236z" />
<glyph unicode="&#xe902;" glyph-name="trade" data-tags="trade" d="M119.465 106.672c-28.277 0-51.199-22.922-51.199-51.199s22.922-51.199 51.199-51.199 51.199 22.922 51.199 51.199-22.922 51.199-51.199 51.199zM119.465 38.407c-9.425 0-17.066 7.641-17.066 17.066s7.641 17.066 17.066 17.066 17.066-7.641 17.066-17.066-7.641-17.066-17.066-17.066zM1012.246 237.294c-14.899 24.842-41.742 40.042-70.71 40.042h-3.601c-13.529-0.009-26.85-3.336-38.792-9.694l-131.155-69.955v233.246h59.732c51.841 0 93.865 42.024 93.865 93.865s-42.024 93.865-93.865 93.865h-366.927c-47.127 0-85.332 38.205-85.332 85.332s38.205 85.332 85.332 85.332h59.732l97.278-129.705c3.223-4.296 8.281-6.827 13.653-6.827h375.46c9.425 0 17.066 7.641 17.066 17.066v273.062c0 9.425-7.641 17.066-17.066 17.066h-375.46c-5.372 0-10.43-2.53-13.653-6.827l-97.278-129.705h-59.732c-65.979 0-119.465-53.486-119.465-119.465s53.486-119.465 119.465-119.465h366.927c32.989 0 59.732-26.743 59.732-59.732s-26.743-59.732-59.732-59.732h-59.732v68.266c0 9.425-7.641 17.066-17.066 17.066h-477.859c-9.425 0-17.066-7.641-17.066-17.066v-255.996c-13.233-4.621-26.058-10.329-38.348-17.066h-217.648v-34.133h204.797v-255.996h-204.797v-34.133h646.679c15.471 0 30.649 4.207 43.912 12.168l293.354 176.006c39.050 23.421 51.72 74.062 28.3 113.112zM665.8 758.124c26.66 9.425 40.631 38.679 31.204 65.337-9.425 26.66-38.679 40.631-65.337 31.204-14.581-5.154-26.050-16.625-31.204-31.204h-37.273l76.799 102.398h349.861v-238.929h-349.861l-76.799 102.398h37.273c9.425-26.66 38.679-40.631 65.337-31.204zM631.456 806.394c0 9.425 7.641 17.066 17.066 17.066s17.066-7.641 17.066-17.066-7.641-17.066-17.066-17.066-17.066 7.641-17.066 17.066zM477.859 516.266h68.266v-68.266h-68.266v68.266zM290.128 516.266h153.597v-85.332c0-9.425 7.641-17.066 17.066-17.066h102.398c9.425 0 17.066 7.641 17.066 17.066v85.332h153.597v-336.771l-27.955-14.899c10.425 41.113-14.453 82.894-55.568 93.319-6.169 1.564-12.51 2.355-18.875 2.355h-166.209c-53.446 29.134-115.448 38.512-175.118 26.487v229.509zM966.384 153.451l-293.354-176.006c-7.959-4.779-17.066-7.304-26.35-7.304h-407.75v262.822c67.361 34.451 147.537 32.701 213.33-4.659 2.605-1.461 5.547-2.21 8.533-2.167h170.664c23.564 0 42.666-19.102 42.666-42.666s-19.102-42.666-42.666-42.666h-153.597c-9.425 0-17.066-7.641-17.066-17.066s7.641-17.066 17.066-17.066h187.73c2.803-0.004 5.564 0.681 8.038 1.997l241.575 128.851c6.999 3.725 14.805 5.677 22.732 5.683h3.601c26.683 0.002 48.317-21.627 48.319-48.311 0-16.979-8.909-32.71-23.471-41.441zM921.408 780.236c-1.329 12.985-9.227 24.381-20.917 30.186l-44.919 22.459c-1.999 0.977-2.827 3.39-1.85 5.387 0.666 1.363 2.039 2.236 3.556 2.259h64.306v34.133h-34.133v17.066h-34.133v-17.476c-20.891-2.138-36.093-20.806-33.956-41.697 1.329-12.985 9.227-24.381 20.917-30.186l44.919-22.459c1.999-0.977 2.827-3.39 1.85-5.387-0.666-1.363-2.039-2.236-3.556-2.259h-64.306v-34.133h34.133v-17.066h34.133v17.476c20.891 2.138 36.093 20.806 33.956 41.697z" />
<glyph unicode="&#xe903;" glyph-name="settings" data-tags="settings" d="M324.267 192c37.649 0 68.267 30.618 68.267 68.267s-30.618 68.267-68.267 68.267-68.267-30.618-68.267-68.267 30.618-68.267 68.267-68.267zM324.267 294.4c18.825 0 34.133-15.309 34.133-34.133s-15.309-34.133-34.133-34.133-34.133 15.309-34.133 34.133 15.309 34.133 34.133 34.133zM750.933 755.2c-37.649 0-68.267-30.618-68.267-68.267s30.618-68.267 68.267-68.267 68.267 30.618 68.267 68.267-30.618 68.267-68.267 68.267zM750.933 652.8c-18.825 0-34.133 15.309-34.133 34.133s15.309 34.133 34.133 34.133 34.133-15.309 34.133-34.133-15.309-34.133-34.133-34.133zM324.267 123.733c75.281 0 136.533 61.252 136.533 136.533s-61.252 136.533-136.533 136.533-136.533-61.252-136.533-136.533 61.252-136.533 136.533-136.533zM324.267 362.667c56.474 0 102.4-45.926 102.4-102.4s-45.926-102.4-102.4-102.4-102.4 45.926-102.4 102.4 45.926 102.4 102.4 102.4zM1010.125 330.018c2.048 8.653 3.874 17.374 5.461 26.18 0.085 0.461 0.205 0.905 0.29 1.365 0.017 0.102 0 0.205 0.017 0.307 5.222 29.303 8.107 59.375 8.107 90.129 0 70.417-14.302 137.54-40.124 198.656-0.102 0.273-0.102 0.58-0.222 0.853-19.814 46.763-46.746 90.18-79.241 128.87-19.115 22.801-40.175 43.895-62.908 63.061-38.98 32.922-82.773 60.211-129.997 80.196-0.256 0.119-0.546 0.119-0.819 0.205-61.116 25.856-128.273 40.158-198.69 40.158-29.662 0-58.709-2.679-87.006-7.543-0.051 0-0.102 0-0.137 0-0.478-0.085-0.956-0.188-1.451-0.29-6.912-1.212-13.79-2.526-20.599-4.011-0.375-0.085-0.751-0.188-1.143-0.273-27.255-6.007-53.675-14.217-79.121-24.388-2.338-0.939-4.71-1.809-7.031-2.782-3.823-1.587-7.561-3.311-11.332-4.983-3.686-1.638-7.373-3.26-11.025-4.983-2.97-1.417-5.905-2.901-8.841-4.369-0.819-0.41-1.638-0.802-2.458-1.212-0.222-0.102-0.478-0.102-0.717-0.222-1.024-0.512-1.997-1.092-3.021-1.621-2.389-1.229-4.745-2.509-7.117-3.772-2.099-1.126-4.181-2.27-6.263-3.43-2.423-1.348-4.881-2.628-7.287-4.011-2.85-1.638-5.632-3.362-8.448-5.052-1.468-0.887-2.918-1.758-4.369-2.662-5.939-3.635-11.793-7.407-17.596-11.281-0.597-0.393-1.195-0.785-1.775-1.195-3.038-2.048-6.076-4.079-9.062-6.195-0.393-0.273-0.785-0.58-1.178-0.87-6.366-4.54-12.629-9.233-18.79-14.063-0.205-0.154-0.41-0.29-0.597-0.444-0.051-0.034-0.068-0.085-0.102-0.119-28.058-22.067-53.965-47.087-77.107-74.871-0.307-0.358-0.461-0.802-0.717-1.195-73.489-88.627-117.709-202.325-117.709-326.161 0-51.115 7.629-100.471 21.641-147.081 0.034-0.119-0.017-0.256 0.017-0.375 0.171-0.546 0.375-1.058 0.529-1.604 2.833-9.284 5.871-18.483 9.216-27.529 1.178-3.226 2.526-6.366 3.772-9.557 2.065-5.291 4.147-10.564 6.383-15.753 2.287-5.342 4.71-10.581 7.168-15.821 1.161-2.441 2.304-4.881 3.499-7.287 49.971-102.434 132.489-184.934 234.94-234.871 2.287-1.126 4.608-2.219 6.912-3.311 5.342-2.509 10.701-4.983 16.145-7.305 4.949-2.133 9.967-4.096 15.002-6.076 3.43-1.348 6.81-2.799 10.291-4.062 8.96-3.294 18.074-6.315 27.255-9.114 0.597-0.188 1.161-0.41 1.775-0.597 0.205-0.068 0.427-0.034 0.631-0.085 46.541-13.978 95.812-21.572 146.825-21.572 85.248 0 165.632 21.060 236.407 58.061 0.461 0.188 0.939 0.29 1.399 0.529 1.246 0.649 2.406 1.399 3.652 2.048 4.147 2.236 8.209 4.591 12.288 6.929 3.823 2.185 7.697 4.301 11.452 6.588 7.202 4.369 14.285 8.926 21.248 13.653 2.987 2.014 5.854 4.181 8.789 6.263 4.642 3.294 9.267 6.588 13.79 10.035 2.543 1.946 5.035 3.942 7.543 5.922 5.035 3.959 9.984 8.004 14.865 12.151 1.826 1.553 3.635 3.123 5.427 4.71 5.939 5.188 11.742 10.53 17.425 15.991 0.666 0.649 1.348 1.263 2.014 1.929 8.226 7.987 16.247 16.196 23.927 24.713 0.256 0.256 0.631 0.358 0.87 0.649 37.922 42.24 68.164 89.89 90.197 141.824 0.802 1.877 1.519 3.789 2.287 5.666 1.843 4.471 3.721 8.909 5.444 13.449 0.068 0.171 0.034 0.358 0.085 0.529 7.424 19.661 13.636 39.902 18.62 60.621 0.137 0.58 0.256 1.178 0.393 1.758zM836.949 98.048c-4.267-3.977-8.653-7.834-13.073-11.657-1.673-1.451-3.328-2.935-5.035-4.369-3.465-2.935-7.031-5.751-10.598-8.567-2.731-2.167-5.427-4.352-8.209-6.451-2.731-2.065-5.513-4.062-8.294-6.076-2.594-1.877-5.188-3.738-7.817-5.564 3.669 16.367 2.133 33.69-4.83 49.647-11.093 25.429-34.099 43.127-61.508 47.343l-17.852 2.765v30.327l16.964 3.243c27.255 5.257 49.579 23.808 59.716 49.63s6.4 54.596-10.018 76.988l-10.684 14.558 21.453 21.47 21.862-14.831c22.46-15.223 50.842-18.091 75.913-7.714s43.11 32.495 48.23 59.153l4.983 25.924h30.327l2.748-17.852c2.406-15.616 9.045-29.679 19.405-41.199-4.164-20.992-9.847-41.574-16.777-61.662-5.495 0.836-11.059 1.246-16.657 1.246-61.167 0-110.933-49.766-110.933-110.933 0-23.654 7.509-46.165 21.197-64.99-6.059-6.366-12.237-12.612-18.654-18.637-0.614-0.597-1.229-1.212-1.86-1.792zM944.23 244.838c-16.93-35.789-38.315-69.359-63.42-99.942-6.775 11.605-10.411 24.815-10.411 38.571 0 42.342 34.458 76.8 76.8 76.8 1.297 0 2.577-0.034 3.857-0.102-1.929-4.471-3.84-8.943-5.888-13.346-0.307-0.666-0.631-1.314-0.939-1.98zM750.933 482.133c-112.93 0-204.8 91.87-204.8 204.8 0 94.31 65.587 177.118 156.74 199.031 33.246-14.541 64.546-32.717 93.355-54.084 0.563-0.427 1.143-0.819 1.707-1.246 4.693-3.516 9.25-7.168 13.807-10.854 1.468-1.178 2.987-2.321 4.437-3.516 3.413-2.833 6.724-5.786 10.052-8.704 2.423-2.116 4.898-4.164 7.287-6.349 1.263-1.161 2.475-2.389 3.738-3.55 8.67-8.073 17.033-16.435 25.088-25.122 0.939-1.007 1.911-1.963 2.85-2.987 2.253-2.475 4.403-5.069 6.605-7.595 2.833-3.243 5.717-6.434 8.465-9.762 1.246-1.502 2.423-3.072 3.652-4.608 3.635-4.506 7.253-9.011 10.718-13.636 0.478-0.631 0.922-1.297 1.399-1.946 21.333-28.757 39.441-60.006 53.965-93.184-21.965-91.119-104.755-156.689-199.066-156.689zM396.425 911.633c-2.679-12.715-1.655-26.112 3.294-38.707 8.533-21.743 27.341-37.376 50.295-41.796l10.786-2.065v-18.534l-11.383-1.741c-23.091-3.55-42.462-18.449-51.814-39.868-9.353-21.436-7.117-45.79 6.007-65.126l6.161-9.114-13.107-13.090-3.021 2.219c-19.268 14.131-43.947 17.118-66.031 7.97-22.067-9.148-37.427-28.723-41.045-52.309l-0.58-3.738h-18.517l-2.082 10.786c-4.403 22.972-20.036 41.762-41.796 50.313-21.76 8.533-45.995 5.359-64.836-8.431l-9.284-6.81-13.107 13.073 6.161 9.114c11.554 17.067 14.524 37.7 8.687 57.037 1.707 1.963 3.379 3.959 5.103 5.888 4.352 4.864 8.841 9.591 13.38 14.251 4.693 4.83 9.506 9.54 14.387 14.165 2.27 2.133 4.591 4.215 6.895 6.298 9.796-36.318 42.718-63.283 82.091-63.283 47.053 0 85.333 38.281 85.333 85.333 0 26.061-11.827 49.562-30.839 65.314 10.445 4.369 21.077 8.329 31.829 11.947 1.109 0.375 2.202 0.751 3.311 1.126 11.11 3.652 22.34 6.946 33.724 9.779zM222.037 827.358c1.382 1.058 2.697 2.167 4.096 3.209 6.861 5.12 13.943 9.967 21.077 14.746 3.447 2.304 6.844 4.693 10.342 6.895 0.444 0.29 0.887 0.58 1.331 0.853 7.219 4.523 14.643 8.687 22.084 12.8 3.26 1.809 6.451 3.755 9.745 5.478 20.036-7.305 33.553-26.197 33.553-47.872 0-28.228-22.972-51.2-51.2-51.2s-51.2 22.972-51.2 51.2c0 1.28 0.068 2.577 0.171 3.891zM223.863 514.287c0.495 0.154 1.007 0.085 1.502 0.29 0.597 0.239 1.007 0.717 1.57 1.007 30.293 11.452 63.095 17.749 97.331 17.749 150.562 0 273.067-122.505 273.067-273.067 0-39.117-8.329-76.322-23.108-110.063-0.154-0.29-0.427-0.478-0.563-0.785-0.171-0.375-0.119-0.785-0.256-1.161-36.13-80.759-110.37-140.971-202.769-156.774-0.051 0.017-0.085 0.017-0.137 0.034-8.414 2.594-16.674 5.495-24.883 8.533-3.84 1.417-7.612 2.987-11.401 4.506-3.925 1.57-7.834 3.174-11.708 4.83-5.069 2.202-10.121 4.471-15.104 6.844-1.826 0.87-3.635 1.775-5.461 2.662-95.061 46.729-172.425 124.092-219.119 219.153-0.87 1.775-1.741 3.55-2.594 5.342-2.389 5.001-4.659 10.069-6.878 15.172-1.673 3.874-3.26 7.782-4.83 11.708-1.519 3.772-3.072 7.543-4.489 11.366-3.038 8.226-5.939 16.521-8.55 24.951 0 0.034-0.017 0.051-0.017 0.085 16.555 96.751 81.818 173.619 168.397 207.616zM438.989-24.286c69.564 27.682 125.474 79.258 158.72 144.35l26.812-11.913c2.27-1.024 4.625-1.485 6.946-1.485 6.537 0 12.783 3.789 15.616 10.138 3.823 8.619-0.051 18.705-8.67 22.528l-26.692 11.861c12.766 33.946 19.746 70.724 19.746 109.073 0 33.246-5.478 65.212-15.292 95.215l21.47 8.346c8.789 3.413 13.141 13.295 9.728 22.084s-13.261 13.175-22.084 9.711l-21.623-8.397c-28.74 62.976-78.012 114.534-139.349 146.125l12.083 27.187c3.823 8.619-0.051 18.705-8.67 22.528-8.619 3.806-18.688-0.068-22.528-8.67l-12.1-27.221c-33.877 12.902-70.468 20.292-108.834 20.292-33.246 0-65.178-5.495-95.249-15.206l-8.311 21.385c-3.413 8.789-13.329 13.158-22.084 9.711-8.789-3.396-13.141-13.295-9.728-22.084l8.26-21.231c-71.236-32.205-127.915-90.88-157.44-165.069-3.669 23.825-5.581 48.213-5.581 73.028 0 87.006 23.484 168.585 64.29 238.933 0.819-2.355 1.98-4.591 3.84-6.434l33.417-33.399c5.956-5.973 15.343-6.69 22.153-1.707l21.094 15.462c9.506 6.963 21.214 8.499 32.188 4.181 10.957-4.301 18.517-13.397 20.753-24.986l4.745-24.627c1.553-8.021 8.585-13.824 16.759-13.824h47.258c8.431 0 15.582 6.144 16.862 14.473l2.799 18.176c1.792 11.742 9.421 21.436 20.378 25.958 10.957 4.591 23.211 3.072 32.785-3.942l14.831-10.871c6.793-4.983 16.196-4.267 22.153 1.707l33.417 33.399c5.786 5.786 6.656 14.865 2.065 21.641l-14.080 20.787c-6.605 9.762-7.697 21.555-2.987 32.358 4.71 10.786 14.080 18.005 25.719 19.78l25.856 3.977c8.363 1.28 14.507 8.448 14.507 16.862v47.275c0 8.175-5.803 15.223-13.858 16.759l-24.627 4.727c-11.571 2.219-20.668 9.779-24.969 20.753-4.301 10.957-2.782 22.699 4.164 32.171l1.792 2.423c24.303 3.823 49.203 5.854 74.564 5.854 49.084 0 96.444-7.458 141.056-21.265-21.333-9.643-40.994-22.187-58.351-37.291l-12.715 12.715c-6.673 6.673-17.459 6.673-24.132 0s-6.673-17.459 0-24.132l12.834-12.834c-33.075-38.229-54.153-86.682-57.941-139.042h-17.818c-9.421 0-17.067-7.629-17.067-17.067s7.646-17.067 17.067-17.067h17.937c3.772-53.043 24.832-101.274 57.702-139.162l-12.715-12.715c-6.673-6.673-6.673-17.459 0-24.132 3.328-3.328 7.697-5.001 12.066-5.001s8.738 1.673 12.066 5.001l12.715 12.715c37.888-32.87 86.135-53.931 139.162-57.702v-17.954c0-9.438 7.646-17.067 17.067-17.067s17.067 7.629 17.067 17.067v17.818c52.361 3.789 100.813 24.866 139.042 57.941l12.834-12.834c3.328-3.328 7.697-5.001 12.066-5.001s8.738 1.673 12.066 5.001c6.673 6.673 6.673 17.459 0 24.132l-12.715 12.715c15.104 17.357 27.648 37.018 37.308 58.351 13.807-44.612 21.265-91.972 21.265-141.056 0-4.403-0.222-8.755-0.341-13.141-1.826 7.595-8.465 13.141-16.401 13.141h-59.068c-8.175 0-15.223-5.803-16.759-13.858l-7.646-39.782c-3.004-15.565-13.124-27.989-27.767-34.048-14.626-6.059-30.583-4.471-43.708 4.454l-33.536 22.733c-6.758 4.591-15.855 3.703-21.641-2.065l-41.762-41.779c-5.956-5.956-6.673-15.36-1.707-22.17l19.337-26.368c9.455-12.885 11.605-29.457 5.769-44.322s-18.688-25.549-34.372-28.57l-30.805-5.922c-8.055-1.536-13.858-8.567-13.858-16.759v-59.085c0-8.414 6.144-15.582 14.473-16.862l32.324-4.966c15.787-2.441 29.030-12.612 35.43-27.273 6.383-14.626 4.847-31.283-4.113-44.51l-17.493-25.822c-64.495-32.478-137.233-50.893-214.221-50.893-24.815 0-49.203 1.911-73.011 5.581z" />
<glyph unicode="&#xe904;" glyph-name="play-button" data-tags="play-button" d="M708.4 465.2l-270.2 184.8c-8.4 6.2-30.8 6.2-32.6-17.2v-369.6c2-23.4 24.8-23.8 32.6-17.2l270.2 184.8c7 4.2 16.6 21.4 0 34.4zM447.4 302.6v290.8l212.2-145.4-212.2-145.4zM512 938c-270.2 0-490-219.8-490-490s219.8-490 490-490 490 219.8 490 490-219.8 490-490 490zM512-0.2c-247.2 0-448.2 201-448.2 448.2s201 448.2 448.2 448.2 448.2-201 448.2-448.2-201-448.2-448.2-448.2z" />
<glyph unicode="&#xe905;" glyph-name="paper-plane" data-tags="paper-plane" d="M1013.91 957.372c-6.238 3.56-13.91 3.5-20.090-0.156l-366.508-216.728c-9.508-5.622-12.658-17.886-7.036-27.394 5.62-9.506 17.884-12.656 27.394-7.036l262.964 155.498-489.812-508.226-243.616 74.532 317.93 188c9.508 5.624 12.658 17.888 7.036 27.396-5.62 9.506-17.886 12.66-27.394 7.036l-356.958-211.078c-6.82-4.034-10.618-11.712-9.68-19.582s6.432-14.442 14.008-16.76l290.938-89.008 128.354-233.626c0.134-0.242 0.272-0.446 0.414-0.628 2.142-3.572 5.352-6.49 9.356-8.174 2.506-1.054 5.14-1.568 7.756-1.568 5.126 0 10.172 1.972 13.982 5.698l147.588 144.24 277.612-84.932c1.92-0.586 3.89-0.876 5.85-0.876 4.232 0 8.412 1.344 11.896 3.922 5.098 3.772 8.106 9.738 8.106 16.078v786c0 7.182-3.852 13.814-10.090 17.372zM542.53 301.54c-2.316-3.346-3.558-7.318-3.558-11.388v-122.342l-87.646 159.53 387.842 402.42-296.638-428.22zM578.972 137.382v125.734l97.98-29.976-97.98-95.758zM984 181.034l-392.998 120.232 392.998 567.326v-687.558zM328.846 264.846c-7.812 7.81-20.472 7.81-28.286 0l-186.704-186.704c-7.81-7.81-7.81-20.474 0-28.286 3.908-3.904 9.026-5.856 14.144-5.856s10.236 1.952 14.142 5.858l186.704 186.704c7.81 7.808 7.81 20.472 0 28.284zM80.142 16.144c-7.812 7.806-20.472 7.806-28.284-0.002l-46-46c-7.81-7.81-7.81-20.474 0-28.286 3.906-3.904 9.024-5.856 14.142-5.856s10.236 1.954 14.142 5.858l46 46c7.81 7.81 7.81 20.474 0 28.286zM285.298-28.68c-3.718 3.72-8.878 5.86-14.138 5.86-5.282 0-10.42-2.14-14.14-5.86s-5.86-8.86-5.86-14.14c0-5.26 2.138-10.42 5.86-14.14 3.72-3.72 8.88-5.86 14.14-5.86s10.42 2.14 14.138 5.86c3.72 3.72 5.862 8.88 5.862 14.14 0 5.28-2.14 10.42-5.862 14.14zM434.102 120.13c-7.806 7.81-20.466 7.81-28.284 0l-98.892-98.89c-7.81-7.81-7.81-20.474 0-28.284 3.906-3.906 9.024-5.858 14.142-5.858s10.236 1.954 14.142 5.858l98.892 98.89c7.81 7.81 7.81 20.474 0 28.284zM775.408 127.722c-7.812 7.808-20.472 7.808-28.284 0l-99.16-99.16c-7.81-7.81-7.81-20.474 0-28.286 3.906-3.904 9.024-5.858 14.142-5.858s10.236 1.954 14.142 5.858l99.16 99.16c7.81 7.81 7.81 20.474 0 28.286zM567 687.38c-3.72 3.72-8.88 5.86-14.14 5.86s-10.42-2.14-14.14-5.86c-3.718-3.72-5.86-8.88-5.86-14.16 0-5.26 2.14-10.4 5.86-14.12 3.72-3.74 8.88-5.86 14.14-5.86s10.42 2.12 14.14 5.86c3.718 3.72 5.86 8.86 5.86 14.12 0 5.28-2.14 10.44-5.86 14.16z" />
<glyph unicode="&#xe906;" glyph-name="next" data-tags="next" d="M774.115 468.413l-483.056 483.056c-11.374 11.374-29.614 11.374-40.988 0s-11.374-29.614 0-40.988l462.455-462.455-462.455-462.455c-11.374-11.374-11.374-29.614 0-40.988 5.58-5.58 13.090-8.584 20.387-8.584s14.807 2.79 20.387 8.584l483.056 483.056c11.374 11.159 11.374 29.614 0.215 40.773z" />
<glyph unicode="&#xe907;" glyph-name="message" data-tags="message" d="M1023.218 564.798c-0.002 1.54-0.346 3.866-0.944 5.206-1.574 5.708-5.072 10.922-10.308 14.562l-146.584 101.896v109.232c0 14.48-11.744 26.224-26.224 26.224h-168.638l-143.486 99.756c-8.968 6.242-20.874 6.268-29.87 0.052l-144.412-99.808h-167.9c-14.484 0-26.224-11.744-26.224-26.224v-107.946l-147.296-101.802c-7.246-5.008-11.166-13.014-11.29-21.2-0.008-0.154-0.042-0.3-0.042-0.46l0.782-568.47c0.010-6.954 2.782-13.62 7.704-18.532 4.916-4.902 11.576-7.654 18.52-7.654 0.014 0 0.024 0 0.036 0l970.77 1.334c14.48 0.020 26.208 11.778 26.188 26.26l-0.782 567.574zM865.38 622.584l83.796-58.236-83.796-58.256v116.492zM512.030 868.232l66.62-46.312h-133.624l67.004 46.312zM211.076 769.47h601.856v-299.842l-202.072-140.484-82.388 63.908c-0.128 0.1-0.238 0.162-0.362 0.252-9.208 6.908-22.232 7.162-31.788-0.252l-82.986-64.37-202.26 139.786v301.002zM158.628 623.994v-119.28l-86.292 59.638 86.292 59.642zM52.516 514.266l317.338-219.31-316.698-245.648-0.64 464.958zM103.75 22.182l408.648 316.968 407.182-315.846-815.83-1.122zM654.288 295.458l316.552 220.072 0.64-466.118-317.192 246.046zM689.54 664.574h-355.072c-14.48 0-26.224-11.744-26.224-26.224s11.744-26.224 26.224-26.224h355.072c14.484 0 26.224 11.744 26.224 26.224s-11.74 26.224-26.224 26.224zM689.54 528.21h-355.072c-14.48 0-26.224-11.744-26.224-26.224s11.744-26.224 26.224-26.224h355.072c14.484 0 26.224 11.744 26.224 26.224s-11.74 26.224-26.224 26.224z" />
<glyph unicode="&#xe908;" glyph-name="menu" data-tags="menu" d="M0 919.040h1024v-81.92h-1024v81.92zM0 632.32h1024v-81.92h-1024v81.92zM0 345.6h1024v-81.92h-1024v81.92zM0 58.88h1024v-81.92h-1024v81.92z" />
<glyph unicode="&#xe909;" glyph-name="contact" data-tags="contact" d="M322.582 254c-3.72 3.72-8.88 5.862-14.14 5.862s-10.42-2.14-14.14-5.862c-3.72-3.718-5.86-8.878-5.86-14.138 0-5.262 2.14-10.422 5.86-14.14 3.72-3.72 8.88-5.86 14.14-5.86s10.42 2.138 14.14 5.86c3.72 3.718 5.86 8.878 5.86 14.14 0 5.26-2.14 10.42-5.86 14.138zM990.458 231.896l-144.59 144.59c-21.58 21.58-50.27 33.464-80.79 33.464s-59.208-11.884-80.788-33.464l-50.422-50.42c-0.002-0.002-0.004-0.004-0.006-0.006s-0.004-0.004-0.006-0.006l-20.142-20.14-244.006 244.006 70.574 70.572c44.546 44.548 44.546 117.032 0 161.58l-144.466 144.464c-44.546 44.542-117.030 44.542-161.578 0l-38.106-38.104c-128.074-128.076-128.074-336.47 0-464.546l140.504-140.504c7.81-7.808 20.474-7.808 28.286 0 7.81 7.81 7.81 20.474 0 28.286l-140.504 140.504c-103.512 103.51-111.758 266.76-24.748 379.798l151.882-151.884c3.906-3.904 9.024-5.858 14.142-5.858s10.238 1.954 14.142 5.858c7.81 7.81 7.812 20.474 0 28.286l-153.596 153.598 36.282 36.282c28.952 28.948 76.058 28.952 105.010 0l144.464-144.464c28.952-28.952 28.952-76.058 0-105.010l-84.716-84.714c-3.75-3.752-5.858-8.838-5.858-14.142s2.108-10.39 5.858-14.142l272.292-272.292c7.812-7.812 20.476-7.81 28.284 0l20.148 20.146 247.9-247.9c-50.182-38.736-111.386-59.734-175.824-59.734-77.056 0-149.5 30.008-203.988 84.496l-142.504 142.504c-7.808 7.808-20.474 7.808-28.284 0-7.81-7.81-7.81-20.474 0-28.286l142.504-142.504c62.042-62.042 144.532-96.21 232.272-96.21 87.742 0 170.232 34.168 232.274 96.21l38.104 38.106c21.58 21.578 33.464 50.27 33.464 80.79 0 30.518-11.884 59.208-33.464 80.79zM962.174 98.602l-36.284-36.284-249.6 249.6 36.284 36.284c14.024 14.026 32.67 21.75 52.504 21.75s38.48-7.724 52.504-21.75l144.59-144.592c14.026-14.024 21.75-32.672 21.75-52.504 0-19.834-7.722-38.482-21.748-52.504zM328.402 659.8c-3.72 3.74-8.88 5.86-14.14 5.86s-10.42-2.12-14.14-5.86c-3.72-3.72-5.86-8.862-5.86-14.14 0-5.26 2.14-10.42 5.86-14.14s8.88-5.86 14.14-5.86c5.26 0 10.42 2.14 14.14 5.86s5.86 8.88 5.86 14.14-2.14 10.42-5.86 14.14zM843.094 815.53c-2.36 34.296-30.004 61.938-64.298 64.302-19.452 1.322-37.982-5.22-52.182-18.476-14.002-13.070-22.034-31.548-22.034-50.7 0-11.044 8.954-20 20-20s20 8.956 20 20c0 8.222 3.312 15.844 9.328 21.458 6.006 5.608 13.858 8.374 22.138 7.81 14.478-0.996 26.148-12.668 27.144-27.146 1.010-14.638-8.586-27.574-22.812-30.758-15.578-3.48-26.458-17.024-26.458-32.93v-36.024c0-11.044 8.954-20 20-20s20 8.956 20 20v31.174c30.988 9.244 51.438 38.458 49.174 71.29zM788.062 656.040c-3.72 3.72-8.88 5.84-14.14 5.84s-10.42-2.122-14.14-5.84c-3.72-3.74-5.86-8.88-5.86-14.16 0-5.26 2.14-10.42 5.86-14.14s8.88-5.86 14.14-5.86 10.42 2.138 14.14 5.86c3.72 3.722 5.86 8.88 5.86 14.14 0 5.28-2.14 10.42-5.86 14.16zM923.922 960h-300c-55.14 0-100-44.86-100-100v-227.946c0-55.14 44.86-100 100-100h75.85l58.546-76.236c3.786-4.93 9.648-7.818 15.862-7.818 0.012 0 0.024 0 0.036 0 6.228 0.012 12.094 2.924 15.87 7.876l58.064 76.178h75.77c55.14 0 100 44.86 100 100v227.946c0.002 55.14-44.856 100-99.998 100zM983.926 632.054h-0.004c0-33.084-26.916-60-60-60h-85.672c-6.24 0-12.124-2.912-15.906-7.876l-48.22-63.264-48.628 63.322c-3.786 4.93-9.648 7.818-15.862 7.818h-85.708c-33.084 0-60 26.916-60 60v227.946c0 33.084 26.916 60 60 60h300c33.084 0 60-26.916 60-60v-227.946z" />
<glyph unicode="&#xe90a;" glyph-name="building" data-tags="building" d="M733.866 4.266h-477.866c-9.42 0-17.066-7.646-17.066-17.066v-34.134c0-9.42 7.646-17.066 17.066-17.066s17.066 7.646 17.066 17.066v17.066h460.8c9.42 0 17.066 7.646 17.066 17.066s-7.644 17.068-17.066 17.068zM375.466 533.334c0-9.42 7.646-17.066 17.066-17.066h68.268c9.42 0 17.066 7.646 17.066 17.066v102.4c0 9.42-7.646 17.066-17.066 17.066h-68.266c-9.42 0-17.066-7.646-17.066-17.066v-102.4zM409.6 618.666h34.134v-68.266h-34.134v68.266zM221.866 755.2h-204.8c-9.42 0-17.066-7.646-17.066-17.066v-341.334c0-9.42 7.646-17.066 17.066-17.066s17.066 7.646 17.066 17.066v324.266h187.734c9.42 0 17.066 7.646 17.066 17.066s-7.644 17.068-17.066 17.068zM819.2 123.734c0-9.42 7.646-17.066 17.066-17.066h68.266c9.42 0 17.066 7.646 17.066 17.066v102.4c0 9.42-7.646 17.066-17.066 17.066h-68.266c-9.42 0-17.066-7.646-17.066-17.066v-102.4zM853.334 209.066h34.134v-68.266h-34.134v68.266zM85.334 345.6c-84.362 0-85.334-219.648-85.334-221.866 0-41.216 29.372-75.674 68.266-83.61v-87.058c0-9.42 7.646-17.066 17.066-17.066s17.066 7.646 17.066 17.066v87.058c38.894 7.936 68.266 42.394 68.266 83.61 0.002 2.218-0.97 221.866-85.33 221.866zM85.334 72.534c-28.228 0-51.2 22.972-51.2 51.2 0 85.026 22.836 187.734 51.2 187.734s51.2-102.708 51.2-187.734c0-28.228-22.972-51.2-51.2-51.2zM187.734 448h-68.268c-9.42 0-17.066-7.646-17.066-17.066v-34.134c0-9.42 7.646-17.066 17.066-17.066s17.066 7.646 17.066 17.066v17.066h34.134v-85.334c0-9.42 7.646-17.066 17.066-17.066s17.066 7.646 17.066 17.066v102.4c0.002 9.422-7.644 17.068-17.064 17.068zM836.266 516.266h68.266c9.42 0 17.066 7.646 17.066 17.066v102.4c0 9.42-7.646 17.066-17.066 17.066h-68.266c-9.42 0-17.066-7.646-17.066-17.066v-102.4c0-9.42 7.646-17.066 17.066-17.066zM853.334 618.666h34.134v-68.266h-34.134v68.266zM187.734 652.8h-68.268c-9.42 0-17.066-7.646-17.066-17.066v-102.4c0-9.42 7.646-17.066 17.066-17.066h68.266c9.42 0 17.066 7.646 17.066 17.066v102.4c0.002 9.42-7.644 17.066-17.064 17.066zM170.666 550.4h-34.132v68.266h34.134v-68.266zM546.134 533.334c0-9.42 7.646-17.066 17.066-17.066h68.266c9.42 0 17.066 7.646 17.066 17.066v102.4c0 9.42-7.646 17.066-17.066 17.066h-68.266c-9.42 0-17.066-7.646-17.066-17.066v-102.4zM580.266 618.666h34.134v-68.266h-34.134v68.266zM1006.934 755.2h-204.8c-9.42 0-17.066-7.646-17.066-17.066s7.646-17.066 17.066-17.066h187.734v-685.808c-5.358 1.912-11.042 3.14-17.066 3.14-2.952 0-5.888-0.256-8.772-0.768-11.776 21.214-34.184 34.902-59.494 34.902s-47.718-13.688-59.494-34.902c-2.884 0.512-5.82 0.768-8.772 0.768-28.228 0-51.2-22.972-51.2-51.2s22.972-51.2 51.2-51.2h136.53c28.228 0 51.2 22.972 51.2 51.2v750.934c0 9.42-7.646 17.066-17.066 17.066zM972.8-29.866h-136.534c-9.404 0-17.066 7.662-17.066 17.066s7.662 17.066 17.066 17.066c3.276 0 6.382-0.938 9.25-2.782 4.676-3.004 10.514-3.55 15.668-1.468s8.96 6.554 10.206 11.964c3.602 15.548 17.238 26.42 33.144 26.42s29.542-10.872 33.144-26.42c1.246-5.41 5.052-9.882 10.206-11.964 5.138-2.082 10.99-1.536 15.668 1.468 11.11 7.168 26.316-1.604 26.316-14.284-0.002-9.404-7.664-17.066-17.068-17.066zM563.2 721.066h68.266c9.42 0 17.066 7.646 17.066 17.066v102.4c0 9.42-7.646 17.066-17.066 17.066h-68.266c-9.42 0-17.066-7.646-17.066-17.066v-102.4c0-9.42 7.646-17.066 17.066-17.066zM580.266 823.466h34.134v-68.266h-34.134v68.266zM546.134 328.534c0-9.42 7.646-17.066 17.066-17.066h68.266c9.42 0 17.066 7.646 17.066 17.066v102.4c0 9.42-7.646 17.066-17.066 17.066h-68.266c-9.42 0-17.066-7.646-17.066-17.066v-102.4zM580.266 413.866h34.134v-68.266h-34.134v68.266zM392.534 721.066h68.266c9.42 0 17.066 7.646 17.066 17.066v102.4c0 9.42-7.646 17.066-17.066 17.066h-68.266c-9.42 0-17.066-7.646-17.066-17.066v-102.4c-0.002-9.42 7.644-17.066 17.066-17.066zM409.6 823.466h34.134v-68.266h-34.134v68.266zM499.882 135.85c-3.072-3.242-4.95-7.68-4.95-12.118s1.878-8.874 4.95-12.118c3.242-3.072 7.68-4.95 12.118-4.95s8.874 1.878 12.118 4.95c3.072 3.242 4.95 7.68 4.95 12.118s-1.878 8.874-4.95 12.118c-6.486 6.316-17.75 6.316-24.236 0zM375.466 328.534c0-9.42 7.646-17.066 17.066-17.066h68.268c9.42 0 17.066 7.646 17.066 17.066v102.4c0 9.42-7.646 17.066-17.066 17.066h-68.266c-9.42 0-17.066-7.646-17.066-17.066v-102.4zM409.6 413.866h34.134v-68.266h-34.134v68.266zM341.334 226.134c0-9.42 7.646-17.066 17.066-17.066h51.2v-153.6c0-9.42 7.646-17.066 17.066-17.066s17.066 7.646 17.066 17.066v153.6h136.534v-153.6c0-9.42 7.646-17.066 17.066-17.066s17.066 7.646 17.066 17.066v153.6h51.2c9.42 0 17.066 7.646 17.066 17.066s-7.646 17.066-17.066 17.066h-307.198c-9.42 0-17.066-7.646-17.066-17.066zM819.2 328.534c0-9.42 7.646-17.066 17.066-17.066h68.266c9.42 0 17.066 7.646 17.066 17.066v102.4c0 9.42-7.646 17.066-17.066 17.066h-68.266c-9.42 0-17.066-7.646-17.066-17.066v-102.4zM853.334 413.866h34.134v-68.266h-34.134v68.266zM733.866 960h-443.732c-9.42 0-17.066-7.646-17.066-17.066v-887.466c0-9.42 7.646-17.066 17.066-17.066s17.066 7.646 17.066 17.066v870.4h409.6v-870.4c0-9.42 7.646-17.066 17.066-17.066s17.066 7.646 17.066 17.066v887.466c0.002 9.42-7.644 17.066-17.066 17.066z" />
<glyph unicode="&#xe90b;" glyph-name="clock" data-tags="clock" d="M512 944c-274 0-496-222-496-496s222-496 496-496 496 222 496 496-222 496-496 496zM626.2 243.8l-176.4 128.2c-6.2 4.6-9.8 11.8-9.8 19.4v336.6c0 13.2 10.8 24 24 24h96c13.2 0 24-10.8 24-24v-275.4l127-92.4c10.8-7.8 13-22.8 5.2-33.6l-56.4-77.6c-7.8-10.6-22.8-13-33.6-5.2z" />
<glyph unicode="&#xe90c;" glyph-name="user" data-tags="user" horiz-adv-x="896" d="M627.2 352c-57.4 0-85-32-179.2-32s-121.6 32-179.2 32c-148.4 0-268.8-120.4-268.8-268.8v-51.2c0-53 43-96 96-96h704c53 0 96 43 96 96v51.2c0 148.4-120.4 268.8-268.8 268.8zM800 32h-704v51.2c0 95.2 77.6 172.8 172.8 172.8 29.2 0 76.6-32 179.2-32 103.4 0 149.8 32 179.2 32 95.2 0 172.8-77.6 172.8-172.8v-51.2zM448 384c159 0 288 129 288 288s-129 288-288 288-288-129-288-288 129-288 288-288zM448 864c105.8 0 192-86.2 192-192s-86.2-192-192-192-192 86.2-192 192 86.2 192 192 192z" />
<glyph unicode="&#xe90d;" glyph-name="phone" data-tags="phone" d="M986.8 910.8l-208 48c-22.6 5.2-45.8-6.6-55-27.8l-96-224c-8.4-19.6-2.8-42.6 13.8-56l121.2-99.2c-72-153.4-197.8-281-354.4-354.4l-99.2 121.2c-13.6 16.6-36.4 22.2-56 13.8l-224-96c-21.4-9.4-33.2-32.6-28-55.2l48-208c5-21.6 24.2-37.2 46.8-37.2 512.2 0 928 415 928 928 0 22.4-15.4 41.8-37.2 46.8z" />
<glyph unicode="&#xe90e;" glyph-name="pen" data-tags="pen" d="M581.48 773.52l256.040-256.040-555.98-555.98-228.28-25.2c-30.56-3.38-56.38 22.46-52.98 53.020l25.4 228.44 555.8 555.76zM995.88 811.64l-120.22 120.22c-37.5 37.5-98.32 37.5-135.82 0l-113.1-113.1 256.040-256.040 113.1 113.1c37.5 37.52 37.5 98.32 0 135.82z" />
<glyph unicode="&#xe90f;" glyph-name="map-marker" data-tags="map-marker" horiz-adv-x="768" d="M344.536-43.34c-290.596 421.278-344.536 464.514-344.536 619.34 0 212.078 171.922 384 384 384s384-171.922 384-384c0-154.826-53.94-198.062-344.536-619.34-19.070-27.548-59.86-27.546-78.928 0zM384 416c88.366 0 160 71.634 160 160s-71.634 160-160 160-160-71.634-160-160 71.634-160 160-160z" />
<glyph unicode="&#xe910;" glyph-name="hand" data-tags="hand" d="M857.6 684.8h-172.354c2.768 13.419 4.352 28.841 4.352 44.632 0 0.059 0 0.118 0 0.176v-0.009c0 95.828-70.144 166.4-184 166.4-90.628 0-114.004-97.074-151.414-157.568-15.47-24.826-33.988-46.634-51.702-66.506l-0.262-0.292-0.258-0.296c-30.638-34.952-46.434-47.338-60.362-47.338h-5.358c-11.494 9.904-27.072 16-44.24 16h-128.002c-35.346 0-64-25.788-64-57.6v-460.8c0-31.812 28.654-57.6 64-57.6h128c17.168 0 32.746 6.096 44.24 16h5.358c57.376 0 134.274-80 254.4-80h42.598c125.084 0 197.6 77.316 199.88 182.29 24.964 35.626 36.982 81.57 31.97 125.582 6.626 12.691 12.083 27.418 15.617 42.877l0.241 1.251h71.296c90.87 0 166.4 75.168 166.4 166.4 0 90.198-76.202 166.4-166.4 166.4zM857.6 448h-182.052c25.674-29.338 28.83-85.65-9.9-122.1 22.454-39.292 3.374-91.248-25.85-107.25 13.048-78.256-20.152-122.65-101.2-122.65h-42.598c-90.982 0-154.42 71.826-240 79.352v353.506c50.478 5.928 85.932 42.444 118.15 79.192 22.55 25.3 43.45 50.6 61.598 79.75 28.962 46.776 52.264 112.2 69.852 112.2 46.75 0 88-17.6 88-70.4 0-70.4-52.8-106.15-52.8-140.8h316.8c36.85 0 70.4-33 70.4-70.4 0-37.95-32.45-70.4-70.4-70.4zM176 192c0-26.51-21.49-48-48-48s-48 21.49-48 48 21.49 48 48 48 48-21.49 48-48z" />
<glyph unicode="&#xe911;" glyph-name="envelope-alt" data-tags="envelope-alt" d="M1004.6 578.4c7.8 6.2 19.4 0.4 19.4-9.4v-409c0-53-43-96-96-96h-832c-53 0-96 43-96 96v408.8c0 10 11.4 15.6 19.4 9.4 44.8-34.8 104.2-79 308.2-227.2 42.2-30.8 113.4-95.6 184.4-95.2 71.4-0.6 144 65.6 184.6 95.2 204 148.2 263.2 192.6 308 227.4zM512 320c46.4-0.8 113.2 58.4 146.8 82.8 265.4 192.6 285.6 209.4 346.8 257.4 11.6 9 18.4 23 18.4 37.8v38c0 53-43 96-96 96h-832c-53 0-96-43-96-96v-38c0-14.8 6.8-28.6 18.4-37.8 61.2-47.8 81.4-64.8 346.8-257.4 33.6-24.4 100.4-83.6 146.8-82.8z" />
<glyph unicode="&#xe912;" glyph-name="envelope" data-tags="envelope" d="M928 832h-832c-53.020 0-96-42.98-96-96v-576c0-53.020 42.98-96 96-96h832c53.020 0 96 42.98 96 96v576c0 53.020-42.98 96-96 96zM928 736v-81.61c-44.844-36.518-116.336-93.302-269.174-212.98-33.682-26.494-100.402-90.144-146.826-89.402-46.416-0.75-113.158 62.918-146.826 89.402-152.814 119.66-224.324 176.456-269.174 212.98v81.61h832zM96 160v371.204c45.828-36.502 110.818-87.724 209.876-165.292 43.714-34.41 120.268-110.372 206.124-109.91 85.434-0.462 161.018 74.398 206.106 109.894 99.056 77.566 164.064 128.802 209.894 165.306v-371.202h-832z" />
<glyph unicode="&#xe913;" glyph-name="comment" data-tags="comment" d="M512 896c-282.8 0-512-186.2-512-416 0-95.2 39.8-182.4 105.8-252.6-29.8-78.8-91.8-145.6-92.8-146.4-13.2-14-16.8-34.4-9.2-52s25-29 44.2-29c123 0 220 51.4 278.2 92.6 57.8-18.2 120.2-28.6 185.8-28.6 282.8 0 512 186.2 512 416s-229.2 416-512 416zM512 160c-53.4 0-106.2 8.2-156.8 24.2l-45.4 14.4-39-27.6c-28.6-20.2-67.8-42.8-115-58 14.6 24.2 28.8 51.4 39.8 80.4l21.2 56.2-41.2 43.6c-36.2 38.6-79.6 102.4-79.6 186.8 0 176.4 186.6 320 416 320s416-143.6 416-320-186.6-320-416-320z" />
<glyph unicode="&#xe914;" glyph-name="prev" data-tags="prev" d="M311.568 448.027l462.455 462.455c11.374 11.374 11.374 29.614 0 40.988s-29.614 11.374-40.988 0l-483.056-483.056c-11.374-11.374-11.374-29.614 0-40.988l483.056-482.842c5.58-5.58 13.090-8.584 20.387-8.584s14.807 2.79 20.387 8.584c11.374 11.374 11.374 29.614 0 40.988l-462.24 462.455z" />
<glyph unicode="&#xe915;" glyph-name="comments" data-tags="comments" horiz-adv-x="1152" d="M1064 187.6c55 54.2 88 122.2 88 196.4 0 160-153 292.2-352.4 315.8-63 115.2-211 196.2-383.6 196.2-229.8 0-416-143.2-416-320 0-74 33-142 88-196.4-30.6-61.4-74.6-109-75.4-109.8-12.6-13.4-16.2-33-8.8-50 7.2-17 24-28 42.4-28 107 0 193.4 40.4 250.4 77.6 18.4-4.2 37.4-7.4 56.8-9.8 62.8-114.8 210.2-195.6 382.6-195.6 41.6 0 81.6 4.8 119.6 13.6 57-37 143.2-77.6 250.4-77.6 18.4 0 35 11 42.4 28 7.2 17 3.8 36.6-8.8 50-0.8 0.6-45 48.2-75.6 109.6zM278.4 372.2l-34.2-22.2c-28.2-18.2-57-32.6-86.2-42.8 5.4 9.4 10.8 19.4 16 29.6l31 62.2-49.6 49c-27 26.8-59.4 70.6-59.4 128 0 121.4 146.6 224 320 224s320-102.6 320-224-146.6-224-320-224c-33 0-66 3.8-98 11.2l-39.6 9zM996.6 256l-49.4-48.8 31-62.2c5.2-10.2 10.6-20.2 16-29.6-29.2 10.2-58 24.6-86.2 42.8l-34.2 22.2-39.8-9.2c-32-7.4-65-11.2-98-11.2-108 0-204.4 40.2-262.6 99.4 202.6 21.6 358.6 154.8 358.6 316.6 0 6.8-0.8 13.4-1.4 20 128.8-29 225.4-113.6 225.4-212 0-57.4-32.4-101.2-59.4-128z" />
<glyph unicode="&#xe916;" glyph-name="shopping-bag" data-tags="shopping-bag" horiz-adv-x="896" d="M704 640v64c0 141.16-114.842 256-256 256-141.16 0-256-114.84-256-256v-64h-192v-544c0-88.366 71.634-160 160-160h576c88.366 0 160 71.634 160 160v544h-192zM320 704c0 70.58 57.42 128 128 128s128-57.42 128-128v-64h-256v64zM640 464c-26.51 0-48 21.49-48 48s21.49 48 48 48 48-21.49 48-48-21.49-48-48-48zM256 464c-26.51 0-48 21.49-48 48s21.49 48 48 48 48-21.49 48-48-21.49-48-48-48z" />
<glyph unicode="&#xe917;" glyph-name="trash" data-tags="trash" horiz-adv-x="896" d="M536 128h48c13.255 0 24 10.745 24 24v0 432c0 13.255-10.745 24-24 24v0h-48c-13.255 0-24-10.745-24-24v0-432c0-13.255 10.745-24 24-24v0zM864 800h-164.82l-68 113.4c-17.083 28.11-47.539 46.6-82.314 46.6-0.016 0-0.032 0-0.048 0h-201.637c-0.002 0-0.004 0-0.006 0-34.775 0-65.231-18.49-82.074-46.175l-0.24-0.425-68.040-113.4h-164.82c-17.673 0-32-14.327-32-32v0-32c0-17.673 14.327-32 32-32v0h32v-672c0-53.019 42.981-96 96-96v0h576c53.019 0 96 42.981 96 96v0 672h32c17.673 0 32 14.327 32 32v0 32c0 17.673-14.327 32-32 32v0zM343.68 858.18c2.136 3.511 5.941 5.82 10.286 5.82 0.012 0 0.024 0 0.036 0h187.998c0.004 0 0.009 0 0.014 0 4.345 0 8.15-2.309 10.256-5.767l0.030-0.053 34.92-58.18h-278.44zM736 32h-576v672h576zM312 128h48c13.255 0 24 10.745 24 24v0 432c0 13.255-10.745 24-24 24v0h-48c-13.255 0-24-10.745-24-24v0-432c0-13.255 10.745-24 24-24v0z" />
<glyph unicode="&#xe918;" glyph-name="arrow-down" data-tags="arrow-down" horiz-adv-x="716" d="M9.694 270.848c-14.37 13.961-14.37 37.137 0 51.61 13.892 13.926 37.001 13.926 50.825 0l260.335-261.564v863.061c0.034 20.105 15.94 36.079 35.977 36.079 20.002 0 36.454-15.974 36.454-36.079v-863.061l259.823 261.564c14.37 13.926 37.478 13.926 51.337 0 14.37-14.473 14.37-37.683 0-51.61l-321.946-323.447c-13.858-14.404-36.966-14.404-50.825 0l-321.98 323.447z" />
<glyph unicode="&#xe919;" glyph-name="close" data-tags="close" d="M874.018 86.016c-96.768-96.768-225.178-149.982-362.018-149.982s-265.284 53.214-362.018 149.982c-96.768 96.768-149.982 225.178-149.982 361.984 0 136.875 53.214 265.284 149.982 362.052 96.734 96.768 225.178 149.982 362.018 149.982s265.25-53.214 362.018-149.982c96.734-96.768 149.982-225.178 149.982-362.052 0-136.806-53.248-265.216-149.982-361.984zM832.853 768.887c-85.777 85.777-199.748 132.949-320.853 132.949s-235.11-47.172-320.853-132.949c-176.947-176.913-176.947-464.794 0-641.707 85.743-85.777 199.748-132.983 320.853-132.983s235.076 47.206 320.853 132.983c176.913 176.913 176.913 464.794 0 641.707zM553.165 448l184.013-184.422c11.435-11.435 11.435-29.73 0-41.165-5.598-5.837-12.937-8.602-20.48-8.602-7.305 0-14.848 3.004-20.446 8.602l-184.457 184.457-184.457-184.457c-5.632-5.837-13.175-8.602-20.48-8.602-7.339 0-14.882 3.004-20.48 8.602-11.435 11.435-11.435 29.73 0 41.165l184.457 184.422-184.457 184.491c-11.435 11.401-11.435 29.696 0 41.131s29.73 11.435 41.165 0l184.457-184.457 184.457 184.457c11.401 11.435 29.73 11.435 41.165 0 11.401-11.435 11.401-29.73 0-41.131l-184.457-184.491z" />
<glyph unicode="&#xe91a;" glyph-name="Support" data-tags="Support" d="M512 23.040c-56.32 0-112.64 10.24-163.84 30.72s-97.28 51.2-138.24 92.16v0c0 0 0 0 0 0-40.96 40.96-71.68 87.040-92.16 138.24s-30.72 107.52-30.72 163.84c0 112.64 46.080 220.16 122.88 302.080 0 0 0 0 0 0 81.92 81.92 189.44 122.88 302.080 122.88s220.16-46.080 302.080-122.88c0 0 0 0 0 0 81.92-81.92 122.88-189.44 122.88-302.080 0-56.32-10.24-112.64-30.72-163.84s-51.2-92.16-87.040-133.12c-5.12-5.12-5.12-10.24-10.24-10.24-40.96-35.84-81.92-66.56-133.12-87.040s-107.52-30.72-163.84-30.72zM302.080 176.64c25.6-20.48 51.2-35.84 76.8-46.080 81.92-35.84 179.2-35.84 261.12 0 30.72 10.24 56.32 25.6 76.8 46.080l-92.16 92.16c-71.68-46.080-163.84-46.080-235.52 0l-87.040-92.16zM240.64 657.92c-46.080-61.44-71.68-133.12-71.68-209.92 0-46.080 10.24-87.040 25.6-133.12 10.24-30.72 25.6-56.32 46.080-76.8l92.16 92.16c-20.48 35.84-35.84 76.8-35.84 117.76s10.24 81.92 35.84 117.76l-92.16 92.16zM691.2 330.24l92.16-92.16c20.48 25.6 35.84 51.2 46.080 76.8 15.36 40.96 25.6 87.040 25.6 133.12 0 76.8-25.6 148.48-71.68 209.92l-92.16-92.16c20.48-35.84 35.84-76.8 35.84-117.76s-15.36-81.92-35.84-117.76zM419.84 355.84c46.080-46.080 133.12-46.080 179.2 0 25.6 25.6 35.84 56.32 35.84 92.16s-15.36 66.56-35.84 92.16c-46.080 46.080-133.12 46.080-179.2 0-20.48-25.6-35.84-56.32-35.84-92.16s15.36-66.56 35.84-92.16c0 0 0 0 0 0zM512 663.040c40.96 0 81.92-10.24 117.76-35.84l92.16 92.16c-61.44 46.080-133.12 71.68-209.92 71.68s-148.48-25.6-209.92-71.68l92.16-92.16c35.84 20.48 76.8 35.84 117.76 35.84z" />
<glyph unicode="&#xe91b;" glyph-name="User" data-tags="User" d="M512 234.665c156.247 0 292.91-67.2 367.232-167.465l-78.592-37.161c-60.498 71.68-167.168 119.296-288.64 119.296-121.47 0-228.137-47.616-288.638-119.296l-78.55 37.202c74.326 100.27 210.944 167.424 367.187 167.424zM512 874.667c56.581 0 110.843-22.476 150.851-62.483s62.484-94.27 62.484-150.85v-128c-0.005-54.974-21.228-107.826-59.249-147.532s-89.902-63.201-144.824-65.587l-9.262-0.215c-56.578 0-110.84 22.477-150.847 62.484s-62.484 94.27-62.484 150.85v128c0.003 54.974 21.229 107.825 59.25 147.532s89.902 63.202 144.825 65.588l9.257 0.213zM512 789.334c-32.647 0.002-64.063-12.473-87.817-34.871s-38.052-53.027-39.968-85.62l-0.213-7.509v-128c-0.032-33.319 12.929-65.337 36.129-89.251 23.2-23.916 54.811-37.842 88.115-38.82 33.302-0.978 65.676 11.069 90.242 33.582 24.561 22.514 39.378 53.716 41.303 86.979l0.21 7.51v128c0 33.948-13.486 66.505-37.489 90.509s-56.561 37.491-90.511 37.491z" />
<glyph unicode="&#xe91c;" glyph-name="Bag" data-tags="Bag" d="M213.331 789.333c-11.316 0-22.169-4.495-30.17-12.497s-12.497-18.854-12.497-30.17v-597.331c0-11.32 4.495-22.17 12.497-30.172s18.854-12.498 30.17-12.498h597.334c11.315 0 22.17 4.495 30.167 12.498 8.003 8.003 12.498 18.852 12.498 30.172v597.331c0 11.316-4.495 22.168-12.498 30.17-7.997 8.002-18.852 12.497-30.167 12.497h-597.334zM85.331 746.666c0 33.948 13.486 66.505 37.49 90.51s56.562 37.49 90.51 37.49h597.334c33.946 0 66.504-13.486 90.511-37.49 24.003-24.005 37.489-56.562 37.489-90.51v-597.331c0-33.951-13.486-66.509-37.489-90.511-24.008-24.003-56.566-37.489-90.511-37.489h-597.334c-33.948 0-66.505 13.486-90.51 37.489s-37.49 56.561-37.49 90.511v597.331zM511.998 448c-117.802 0-213.334 114.602-213.334 255.999h85.334c0-109.482 71.254-170.666 128-170.666s128.002 61.184 128.002 170.666h85.33c0-141.397-95.529-255.999-213.332-255.999z" />
<glyph unicode="&#xe91d;" glyph-name="Building" data-tags="Building" d="M128.001 149.335v567.465c-0.003 8.758 2.69 17.305 7.713 24.48s12.132 12.631 20.362 15.626l412.629 150.016c3.226 1.173 6.682 1.552 10.081 1.103 3.405-0.448 6.646-1.709 9.457-3.677 2.806-1.968 5.1-4.584 6.682-7.627 1.587-3.043 2.412-6.423 2.412-9.853v-211.328l269.481-89.813c8.499-2.831 15.892-8.266 21.13-15.533s8.059-15.999 8.054-24.958v-395.902h85.335v-85.335h-938.668v85.335h85.333zM213.334 149.335h298.666v646.185l-298.666-108.63v-537.556zM810.665 149.335v365.14l-213.33 71.126v-436.265h213.33z" />
<glyph unicode="&#xe91e;" glyph-name="Certificate" data-tags="Certificate" d="M905.098 828.787l-376.269 128.876c-4.541 1.558-10.629 2.337-16.722 2.337-6.089 0-12.179-0.779-16.72-2.337l-376.267-128.876c-9.19-3.117-16.72-13.8-16.72-23.594v-536.874c0-9.795 6.312-22.702 13.952-28.826l381.693-298.931c3.875-3.005 8.859-4.562 13.952-4.562s10.186 1.556 13.955 4.562l381.691 298.931c7.639 6.011 13.952 18.918 13.952 28.826v536.874c0.22 9.794-7.306 20.366-16.497 23.594zM842.092 289.684l-329.984-258.417-329.98 258.417v475.888l329.98 113.073 329.984-113.073v-475.888zM392.739 513.384c-3.322 4.563-8.637 7.346-14.395 7.346h-61.124c-7.197 0-11.405-8.236-7.197-14.134l139.965-193.651c1.655-2.273 3.822-4.127 6.323-5.402 2.501-1.28 5.267-1.946 8.073-1.946s5.571 0.666 8.073 1.946c2.501 1.275 4.667 3.128 6.322 5.402l235.416 325.754c4.209 5.899 0 14.134-7.199 14.134h-61.123c-5.647 0-11.075-2.782-14.397-7.345l-167.092-231.265-71.644 99.161z" />
<glyph unicode="&#xe91f;" glyph-name="Chevron" data-tags="Chevron" d="M819.2 547.768l-307.2-304.568-307.2 304.568 54.298 53.832 252.902-250.737 252.902 250.737z" />
<glyph unicode="&#xe920;" glyph-name="Clock" data-tags="Clock" d="M512 896c-247.4 0-448-200.6-448-448 0-247.398 200.6-448 448-448 247.398 0 448 200.602 448 448 0 247.4-200.602 448-448 448zM512 76.001c-205.4 0-372 166.6-372 371.999s166.6 372 372 372c205.399 0 371.999-166.6 371.999-372s-166.6-371.999-371.999-371.999zM686.7 321.398l-142.597 103.101v247.501c0 4.4-3.604 8-8.003 8h-48.1c-4.4 0-8-3.6-8-8v-275.4c0-2.601 1.2-5.002 3.3-6.502l165.399-120.596c3.599-2.601 8.602-1.802 11.203 1.7l28.6 38.999c2.596 3.702 1.797 8.699-1.802 11.197z" />
<glyph unicode="&#xe921;" glyph-name="Comment" data-tags="Comment" d="M839.68 857.6h-655.36c-45.179 0-81.92-36.741-81.92-81.92v-737.28l218.44 163.84h518.84c45.179 0 81.92 36.741 81.92 81.92v491.52c0 45.179-36.741 81.92-81.92 81.92zM839.68 284.16h-546.12l-109.24-81.92v573.44h655.36v-491.52z" />
<glyph unicode="&#xe922;" glyph-name="CreditCard" data-tags="Credit Card" d="M853.335 789.334h-682.669c-47.061 0-85.333-38.272-85.333-85.333v-512.001c0-47.063 38.272-85.335 85.333-85.335h682.669c47.058 0 85.33 38.272 85.33 85.335v512.001c0 47.061-38.272 85.333-85.33 85.333zM170.666 704.001h682.669v-85.334h-682.669v85.334zM170.666 192v256.001h682.71l0.041-256.001h-682.751zM256 362.665h256v-85.33h-256v85.33z" />
<glyph unicode="&#xe923;" glyph-name="Diploma" data-tags="Diploma" d="M42.666 960h767.999v-174.208c47.519-8.052 91.807-29.352 127.759-61.45s62.121-73.691 75.494-119.996c13.368-46.306 13.399-95.446 0.087-141.768s-39.424-87.947-75.341-120.091v-400.896l-170.665 113.792-170.67-113.838v165.12h-554.664v853.335zM597.33 192v150.528c-35.912 32.143-62.024 73.769-75.336 120.092-13.314 46.323-13.283 95.462 0.087 141.768 13.368 46.306 39.537 87.899 75.494 119.997 35.953 32.098 80.236 53.397 127.754 61.449v88.79h-597.331v-682.665l469.331 0.041zM682.665 291.881v-190.802l85.335 56.873 85.33-56.832v190.72c-27.412-9.651-56.269-14.556-85.33-14.505-29.066-0.041-57.923 4.879-85.335 14.546zM768 704c-45.266 0-88.673-17.981-120.678-49.987-32.010-32.006-49.992-75.416-49.992-120.679s17.981-88.672 49.992-120.682c32.005-32.005 75.412-49.987 120.678-49.987 45.261 0 88.673 17.981 120.678 49.987 32.005 32.010 49.987 75.418 49.987 120.682s-17.981 88.673-49.987 120.679c-32.005 32.006-75.418 49.987-120.678 49.987zM469.332 576h-256v85.334h256v-85.334zM213.332 448h213.333v85.334h-213.333v-85.334zM298.665 320h-85.333v85.335h85.333v-85.335zM213.332 704h85.333v85.334h-85.333v-85.334z" />
<glyph unicode="&#xe924;" glyph-name="Envelope" data-tags="Envelope" d="M919.68 611.498l-384 256c-7.004 4.669-15.237 7.16-23.66 7.16-8.418 0-16.65-2.491-23.657-7.16l-384-256c-5.85-3.893-10.647-9.17-13.967-15.363s-5.059-13.11-5.062-20.136v-469.335c0-47.058 38.272-85.33 85.333-85.33h682.668c47.063 0 85.335 38.272 85.335 85.33v469.335c0 14.25-7.127 27.562-18.99 35.498zM512 780.714l307.072-204.714-307.072-204.713-307.071 204.713 307.071 204.714zM170.668 106.665v389.591l317.654-211.753c7.011-4.68 15.251-7.178 23.679-7.178s16.671 2.499 23.68 7.178l317.655 211.753-0.128-389.591h-682.54z" />
<glyph unicode="&#xe925;" glyph-name="Heart" data-tags="Heart" d="M922.998 676.4c-13.404 31.036-32.727 59.161-56.899 82.8-24.187 23.709-52.705 42.551-83.999 55.5-32.451 13.481-67.261 20.381-102.4 20.3-49.3 0-97.403-13.5-139.203-39-9.999-6.1-19.497-12.8-28.498-20.1-9 7.3-18.5 14-28.5 20.1-41.8 25.5-89.9 39-139.2 39-35.5 0-69.9-6.8-102.4-20.3-31.4-13-59.7-31.7-84-55.5-24.2-23.612-43.532-51.744-56.9-82.8-13.9-32.3-21-66.6-21-101.9 0-33.3 6.8-68 20.3-103.3 11.3-29.498 27.5-60.1 48.2-90.999 32.8-48.901 77.9-99.901 133.9-151.603 92.8-85.699 184.7-144.896 188.6-147.297l23.7-15.201c10.5-6.697 24.002-6.697 34.498 0l23.7 15.201c3.901 2.499 95.703 61.599 188.6 147.297 56.003 51.702 101.1 102.702 133.903 151.603 20.7 30.899 36.997 61.501 48.2 90.999 13.496 35.3 20.296 70 20.296 103.3 0.102 35.3-6.999 69.6-20.9 101.9zM512 145.198c0 0-356 228.101-356 429.302 0 101.9 84.3 184.5 188.3 184.5 73.1 0 136.5-40.8 167.7-100.4 31.201 59.6 94.602 100.4 167.7 100.4 103.997 0 188.298-82.6 188.298-184.5 0-201.201-355.999-429.302-355.999-429.302z" />
<glyph unicode="&#xe926;" glyph-name="Menuburger" data-tags="Menu burger" d="M903.997 800h-783.997c-4.4 0-8-3.6-8-8v-64c0-4.4 3.6-8 8-8h783.997c4.403 0 8.003 3.6 8.003 8v64c0 4.4-3.599 8-8.003 8zM903.997 176h-783.997c-4.4 0-8-3.599-8-8.003v-64c0-4.398 3.6-7.997 8-7.997h783.997c4.403 0 8.003 3.599 8.003 7.997v64c0 4.403-3.599 8.003-8.003 8.003zM903.997 488h-783.997c-4.4 0-8-3.6-8-8v-64c0-4.398 3.6-7.997 8-7.997h783.997c4.403 0 8.003 3.599 8.003 7.997v64c0 4.4-3.599 8-8.003 8z" />
<glyph unicode="&#xe927;" glyph-name="Pen" data-tags="Pen" d="M972.8 624.475c0.026 9.849-1.9 19.606-5.673 28.706-3.768 9.099-9.303 17.36-16.287 24.305l-209.388 209.401c-14.075 14.033-33.137 21.914-53.012 21.913s-38.938-7.883-53.007-21.918l-562.276-562.299c-7.269-7.265-12.962-15.954-16.723-25.523-0.483-1.162-0.907-2.35-1.27-3.558-2.611-7.711-3.95-15.79-3.964-23.931v-209.398c0.023-19.876 7.928-38.932 21.983-52.987s33.111-21.965 52.987-21.985h209.386c8.223 0.015 16.389 1.382 24.168 4.050 1.115 0.343 2.221 0.732 3.308 1.178 9.571 3.763 18.263 9.457 25.532 16.732l392.026 392.049 16.282-65.126-172.421-172.426c-7.030-7.030-10.977-16.568-10.977-26.506 0-9.943 3.948-19.482 10.977-26.511s16.568-10.977 26.506-10.977c9.943 0 19.476 3.948 26.506 10.977l187.428 187.433c4.577 4.577 7.89 10.266 9.615 16.502 1.731 6.241 1.812 12.82 0.241 19.098l-32.338 129.358 108.431 108.43c6.984 6.946 12.518 15.207 16.287 24.308 3.773 9.1 5.699 18.858 5.673 28.708zM126.17 196.593l134.412-134.42h-134.412v134.42zM351.079 77.701l-209.381 209.393 396.808 396.826 209.377-209.392-396.804-396.827zM800.896 527.543l-209.377 209.392 96.927 96.936 209.377-209.396-96.927-96.931z" />
<glyph unicode="&#xe928;" glyph-name="Phone" data-tags="Phone" d="M755.497 435.497c-3.958 3.968-8.658 7.112-13.834 9.262-5.176 2.145-10.726 3.249-16.328 3.249-5.606 0-11.151-1.104-16.328-3.249-5.176-2.15-9.882-5.294-13.839-9.262l-68.009-68.009c-31.534 9.385-90.368 30.72-127.66 68.009-37.291 37.292-58.624 96.13-68.011 127.66l68.011 68.011c3.965 3.959 7.112 8.66 9.258 13.837s3.252 10.725 3.252 16.328c0 5.604-1.106 11.152-3.252 16.328s-5.293 9.879-9.258 13.837l-170.667 170.666c-3.959 3.966-8.661 7.112-13.837 9.258s-10.725 3.252-16.328 3.252c-5.604 0-11.152-1.105-16.328-3.252s-9.879-5.293-13.837-9.258l-115.712-115.712c-16.214-16.213-25.344-38.485-25.002-61.226 0.981-60.758 17.066-271.786 183.381-438.099 166.315-166.318 377.343-182.359 438.143-183.383h1.193c22.528 0 43.822 8.873 59.95 25.001l115.712 115.712c3.963 3.963 7.112 8.663 9.257 13.839s3.251 10.726 3.251 16.328c0 5.601-1.106 11.151-3.251 16.328s-5.294 9.876-9.257 13.839l-170.67 170.706zM750.080 149.12c-53.248 0.896-235.433 15.191-378.58 158.377-143.616 143.618-157.526 326.444-158.379 378.626l85.547 85.546 110.336-110.336-55.168-55.168c-5.015-5.011-8.702-11.193-10.728-17.987s-2.328-13.985-0.877-20.925c1.024-4.906 26.070-121.26 96.896-192.085s187.178-95.872 192.083-96.896c6.938-1.49 14.136-1.213 20.936 0.804 6.799 2.022 12.984 5.724 17.976 10.757l55.214 55.168 110.336-110.336-85.591-85.545z" />
<glyph unicode="&#xe929;" glyph-name="Pin" data-tags="Pin" d="M694.272 521.728c0 45.263-17.981 88.673-49.987 120.679s-75.418 49.987-120.678 49.987c-45.265 0-88.675-17.981-120.681-49.987s-49.987-75.416-49.987-120.679c0-45.264 17.981-88.673 49.987-120.678s75.416-49.987 120.681-49.987c45.261 0 88.673 17.981 120.678 49.987s49.987 75.415 49.987 120.678zM608.937 521.728c0-22.632-8.991-44.337-24.991-60.34-16.005-16.005-37.709-24.995-60.339-24.995-22.633 0-44.338 8.991-60.341 24.995-16.003 16.003-24.993 37.708-24.993 60.34s8.99 44.337 24.993 60.34c16.003 16.003 37.708 24.993 60.341 24.993 22.63 0 44.334-8.99 60.339-24.993 16-16.003 24.991-37.708 24.991-60.34zM247.211 255.232l278.101-264.791 264.791 278.103c52.367 55.004 87.255 124.303 100.239 199.131 12.989 74.83 3.492 151.83-27.279 221.264-30.776 69.433-81.449 128.182-145.613 168.816s-138.936 61.329-214.863 59.467c-75.926-1.862-149.594-26.196-211.689-69.926s-109.829-104.891-137.164-175.75c-27.335-70.859-33.044-148.232-16.406-222.335s54.878-141.606 109.882-193.979zM728.32 327.383l-205.952-216.32-216.32 205.952c-42.779 40.73-72.519 93.235-85.459 150.869s-8.5 117.812 12.76 172.923c21.26 55.111 58.384 102.68 106.679 136.692s105.59 52.94 164.642 54.39c59.053 1.449 117.206-14.644 167.115-46.245 49.905-31.601 89.318-77.291 113.254-131.292 23.941-54.001 31.329-113.888 21.233-172.088s-37.222-112.098-77.952-154.881z" />
<glyph unicode="&#xe92a;" glyph-name="Quotes" data-tags="Quotes" d="M464 466.286v461.714h-432v-800h76.8l355.2 338.286zM96 864h304v-370.286l-304-289.523v659.809zM560 128h76.8l355.2 338.286v461.714h-432v-800zM624 864h304v-370.286l-304-289.523v659.809z" />
<glyph unicode="&#xe92b;" glyph-name="Search" data-tags="Search" d="M883.625 136.96l-145.065 144.64c46.807 59.628 72.202 133.263 72.105 209.066 0 67.509-20.019 133.502-57.523 189.635s-90.813 99.881-153.185 125.716c-62.372 25.834-131.001 32.594-197.214 19.424s-127.032-45.679-174.769-93.415c-47.736-47.736-80.245-108.556-93.415-174.769s-6.411-134.842 19.424-197.214c25.835-62.372 69.584-115.681 125.716-153.185s122.125-57.523 189.635-57.523c75.803-0.097 149.439 25.298 209.066 72.105l144.64-145.065c3.968-3.999 8.684-7.173 13.885-9.339 5.197-2.171 10.778-3.282 16.41-3.282s11.208 1.111 16.41 3.282c5.197 2.166 9.917 5.34 13.88 9.339 3.999 3.963 7.173 8.684 9.339 13.88 2.171 5.202 3.282 10.778 3.282 16.41s-1.111 11.213-3.282 16.41c-2.166 5.202-5.34 9.917-9.339 13.885zM213.334 490.666c0 50.632 15.014 100.127 43.144 142.226s68.111 74.911 114.889 94.287c46.778 19.376 98.251 24.445 147.909 14.568s95.273-34.259 131.077-70.062 60.186-81.417 70.062-131.076c9.876-49.659 4.808-101.134-14.566-147.911-19.379-46.776-52.188-86.758-94.29-114.888-42.097-28.129-91.592-43.146-142.225-43.146-67.895 0-133.010 26.972-181.019 74.982s-74.981 113.121-74.981 181.019z" />
<glyph unicode="&#xe92c;" glyph-name="video-play" data-tags="video-play" d="M512-64c-282.419 0-512 229.581-512 512s229.581 512 512 512 512-229.581 512-512-229.581-512-512-512zM512 919.040c-259.686 0-471.040-211.354-471.040-471.040s211.354-471.040 471.040-471.040c259.686 0 471.040 211.354 471.040 471.040s-211.354 471.040-471.040 471.040zM419.84 252.826v390.349l276.48-195.174-276.48-195.174zM460.8 564.122v-232.038l164.454 115.917-164.454 116.122z" />
<glyph unicode="&#xe92d;" glyph-name="central-stairs" data-tags="central-stairs" horiz-adv-x="922" d="M832.853-64h-278.187c-5.12 0-8.533 1.707-11.947 5.12l-537.6 535.893c-3.413 3.413-5.12 6.827-5.12 11.947v148.48c0 10.24 6.827 17.067 17.067 17.067s17.067-6.827 17.067-17.067v-139.947l256-256v484.693h-256v-25.6c0-10.24-6.827-17.067-17.067-17.067s-17.067 6.827-17.067 17.067v90.453c0 15.36 10.24 30.72 35.84 30.72h298.667c30.72 0 47.787-25.6 47.787-49.493 0-11.947-5.12-23.893-11.947-32.427-6.827-6.827-17.067-15.36-35.84-15.36h-10.24v-170.667h131.413v256l-61.44 61.44c-22.187 22.187-17.067 56.32 1.707 73.387 17.067 17.067 44.373 22.187 71.68-3.413 30.72-30.72 218.453-216.747 307.2-307.2 6.827-6.827 6.827-17.067 0-23.893s-17.067-6.827-23.893 0c-88.747 88.747-276.48 276.48-307.2 307.2-8.533 8.533-17.067 10.24-22.187 5.12s-8.533-17.067-1.707-25.6l128-128c58.027-58.027 126.293-126.293 186.027-182.613v0c0 0 0 0 0 0 22.187-22.187 42.667-42.667 61.44-61.44 0 0 0 0 0 0 46.080-46.080 61.44-59.733 66.56-64.853 5.12-3.413 10.24-6.827 17.067 0 5.12 5.12 8.533 17.067 3.413 20.48l-81.92 81.92c-6.827 6.827-6.827 17.067 0 23.893s17.067 6.827 23.893 0l81.92-81.92c20.48-20.48 13.653-51.2-3.413-68.267-15.36-15.36-40.96-22.187-64.853-1.707-5.12 5.12-17.067 17.067-37.547 35.84v-182.613h69.973c34.133 0 52.907-25.6 52.907-51.2 0-13.653-5.12-25.6-13.653-34.133-6.827-6.827-18.773-15.36-39.253-15.36h-8.533v-223.573c0-25.6-22.187-27.307-29.013-27.307zM595.627-29.867h232.107v220.16h-232.107v-220.16zM324.267 207.36l235.52-235.52v486.4h-56.32c-10.24 0-17.067 6.827-17.067 17.067s6.827 17.067 17.067 17.067h98.987c5.12 0 8.533 1.707 11.947 3.413 1.707 1.707 3.413 6.827 3.413 10.24 0 1.707 0 15.36-15.36 15.36h-278.187v-29.013h116.053c10.24 0 17.067-6.827 17.067-17.067s-6.827-17.067-17.067-17.067h-116.053v-250.88zM844.8 224.427h25.6c17.067 0 18.773 11.947 18.773 15.36 0 6.827-5.12 17.067-18.773 17.067h-273.067v-32.427h247.467zM737.28 290.987h27.307v215.040c-8.533 8.533-18.773 17.067-27.307 27.307v-242.347zM595.627 290.987h107.52v276.48c-47.787 47.787-102.4 100.693-151.893 150.187v-160.427h51.2c32.427 0 49.493-25.6 49.493-49.493 0-11.947-5.12-23.893-11.947-32.427-8.533-10.24-22.187-15.36-35.84-15.36h-8.533v-168.96zM489.813 555.52h27.307v194.56l-27.307 27.307v-221.867zM307.2 760.32h25.6c5.12 0 8.533 1.707 10.24 3.413s3.413 5.12 3.413 8.533c0 0 0 15.36-13.653 15.36h-296.96c0 0-1.707 0-1.707 0v-27.307h273.067zM640 45.227c-10.24 0-17.067 6.827-17.067 17.067v29.013c0 10.24 6.827 17.067 17.067 17.067s17.067-6.827 17.067-17.067v-29.013c0-10.24-6.827-17.067-17.067-17.067zM370.347 292.693c-10.24 0-17.067 6.827-17.067 17.067v27.307c0 10.24 6.827 17.067 17.067 17.067s17.067-6.827 17.067-17.067v-27.307c0-10.24-8.533-17.067-17.067-17.067zM85.333 562.347c-10.24 0-17.067 6.827-17.067 17.067v29.013c0 10.24 6.827 17.067 17.067 17.067s17.067-6.827 17.067-17.067v-29.013c0-8.533-6.827-17.067-17.067-17.067z" />
<glyph unicode="&#xe92e;" glyph-name="folded-stairs" data-tags="folded-stairs" d="M426.667 772.267h-324.267c-10.24 0-17.067 6.827-17.067 17.067v51.2c0 10.24 6.827 17.067 17.067 17.067h324.267c10.24 0 17.067-6.827 17.067-17.067v-51.2c0-10.24-6.827-17.067-17.067-17.067zM119.467 806.4h290.133v17.067h-290.133v-17.067zM614.4 601.6h-324.267c-10.24 0-17.067 6.827-17.067 17.067v51.2c0 10.24 6.827 17.067 17.067 17.067h324.267c10.24 0 17.067-6.827 17.067-17.067v-51.2c0-10.24-6.827-17.067-17.067-17.067zM307.2 635.733h290.133v17.067h-290.133v-17.067zM972.8 226.133h-324.267c-10.24 0-17.067 6.827-17.067 17.067v51.2c0 10.24 6.827 17.067 17.067 17.067h324.267c10.24 0 17.067-6.827 17.067-17.067v-51.2c0-10.24-6.827-17.067-17.067-17.067zM665.6 260.267h290.133v17.067h-290.133v-17.067zM546.133 277.333c-5.12 0-8.533 1.707-11.947 5.12l-494.933 484.693c-3.413 1.707-5.12 6.827-5.12 11.947v76.8c0 15.36 8.533 27.307 20.48 34.133 11.947 5.12 25.6 1.707 35.84-8.533s20.48-22.187 23.893-25.6c6.827-6.827 5.12-18.773-1.707-23.893-6.827-6.827-17.067-6.827-22.187 0-3.413 5.12-13.653 13.653-22.187 23.893v-69.973l489.813-479.573c6.827-6.827 6.827-17.067 0-23.893-3.413-3.413-6.827-5.12-11.947-5.12zM785.067 413.867h-307.2c-10.24 0-17.067 6.827-17.067 17.067v51.2c0 10.24 6.827 17.067 17.067 17.067h204.8c10.24 0 17.067-6.827 17.067-17.067s-6.827-17.067-17.067-17.067h-187.733v-17.067h273.067v17.067h-18.773c-10.24 0-17.067 6.827-17.067 17.067s6.827 17.067 17.067 17.067h35.84c10.24 0 17.067-6.827 17.067-17.067v-51.2c0-10.24-6.827-17.067-17.067-17.067zM227.205 733.478l68.787 68.787 24.136-24.136-68.787-68.787-24.136 24.136zM142.558 776.325l22.477 25.689 136.15-119.127-22.477-25.689-136.15 119.127zM330.295 588.597l22.477 25.689 136.15-119.127-22.477-25.689-136.15 119.127zM516.407 419.515l25.689 22.477 119.127-136.15-25.689-22.477-119.127 136.15zM819.2 123.733c-3.413 0-8.533 1.707-11.947 3.413l-119.467 102.4c-6.827 6.827-8.533 17.067-1.707 23.893s17.067 8.533 23.893 1.707l119.467-102.4c6.827-6.827 8.533-17.067 1.707-23.893-1.707-3.413-6.827-5.12-11.947-5.12zM397.956 545.83l85.682 85.682 24.136-24.136-85.682-85.682-24.136 24.136zM585.686 358.097l85.682 85.682 24.136-24.136-85.682-85.682-24.136 24.136zM773.332 187.345l68.787 68.787 24.136-24.136-68.787-68.787-24.136 24.136zM887.467 4.267h-81.92c-5.12 0-8.533 1.707-11.947 5.12l-226.987 221.867c-6.827 6.827-6.827 17.067 0 23.893s17.067 6.827 23.893 0l221.867-216.747h68.267c-8.533 8.533-22.187 22.187-37.547 37.547-6.827 6.827-6.827 17.067 0 23.893s17.067 6.827 23.893 0c6.827-6.827 39.253-39.253 46.080-47.787 8.533-10.24 10.24-22.187 5.12-32.427-1.707-5.12-10.24-15.36-30.72-15.36z" />
<glyph unicode="&#xe92f;" glyph-name="spiral-stairs" data-tags="spiral-stairs" horiz-adv-x="478" d="M459.093-64c0 0 0 0 0 0h-257.707c-10.24 0-17.067 6.827-17.067 17.067v199.68c-3.413 1.707-6.827 3.413-10.24 5.12-44.373 18.773-105.813 46.080-141.653 92.16 0 0 0 0 0 0-22.187 25.6-32.427 56.32-32.427 88.747v221.867c0 46.080 20.48 85.333 59.733 119.467 0 0 0 0 0 0 18.773 15.36 40.96 30.72 68.267 44.373 0 0 0 0 0 0 20.48 10.24 42.667 20.48 64.853 30.72 0 0 0 0 0 0 23.893 11.947 47.787 22.187 69.973 32.427 0 0 0 0 0 0l27.307 11.947c18.773 8.533 34.133 15.36 44.373 20.48 0 0 0 0 0 0l6.827 3.413c20.48 10.24 39.253 23.893 52.907 37.547 0 0 0 0 0 0 47.787 40.96 49.493 80.213 49.493 81.92 0 8.533 8.533 17.067 17.067 17.067s17.067-6.827 17.067-17.067v0c0 0 0 0 0 0v0c0 0 0 0 0 0v0c0 0 0 0 0 0v0c0 0 0 0 0 0v-186.027c0-56.32-13.653-136.533-128-191.147-18.773-10.24-39.253-18.773-61.44-29.013v-172.373c13.653-5.12 35.84-13.653 61.44-27.307 0 0 0 0 0 0 27.307-13.653 49.493-30.72 68.267-47.787 0 0 0 0 0 0 37.547-34.133 56.32-73.387 56.32-116.053v-211.627c0-3.413 0-6.827 0-10.24 0-1.707 0-3.413-1.707-5.12s-1.707-3.413-3.413-5.12c-1.707-1.707-5.12-3.413-6.827-3.413v0 0c0-1.707-1.707-1.707-3.413-1.707zM288.427-29.867h151.893c-1.707 11.947-8.533 29.013-20.48 46.080h-131.413v-46.080zM218.453-29.867h35.84v162.133c0 0 0 0 0 0v389.12c-6.827-3.413-13.653-6.827-20.48-8.533l-15.36-6.827v-341.333c0 0 0 0 0 0v-194.56zM440.32 43.52c0 0 0 0 0 0v129.707c0 18.773-5.12 39.253-17.067 56.32v-168.96c6.827-5.12 11.947-10.24 17.067-17.067 0 0 0 0 0 0zM288.427 50.347h95.573c-13.653 10.24-30.72 22.187-49.493 32.427 0 0 0 0 0 0-15.36 8.533-30.72 17.067-44.373 22.187v-54.613zM358.4 106.667c10.24-6.827 22.187-13.653 30.72-18.773v180.907c-8.533 8.533-18.773 15.36-30.72 22.187v-80.213c0-10.24-6.827-17.067-17.067-17.067s-17.067 6.827-17.067 17.067v100.693c-13.653 6.827-25.6 11.947-35.84 17.067v-184.32c10.24-5.12 22.187-10.24 35.84-17.067v18.773c0 10.24 6.827 17.067 17.067 17.067s17.067-6.827 17.067-17.067v-39.253zM87.040 243.2c29.013-22.187 66.56-39.253 97.28-52.907v52.907h-97.28zM54.613 277.333h129.707v44.373h-148.48c1.707-17.067 8.533-30.72 18.773-44.373zM35.84 355.84h148.48v47.787h-129.707c-10.24-13.653-17.067-30.72-18.773-47.787zM90.453 437.76h93.867v52.907c-17.067-8.533-32.427-15.36-44.373-22.187-5.12-3.413-10.24-6.827-15.36-10.24-11.947-6.827-23.893-13.653-34.133-20.48zM80.213 494.080c-18.773-15.36-30.72-30.72-37.547-51.2 20.48 20.48 44.373 34.133 63.147 44.373 5.12 3.413 10.24 6.827 15.36 8.533 18.773 11.947 42.667 22.187 71.68 35.84 0 0 0 0 0 0l25.6 11.947c13.653 5.12 29.013 11.947 44.373 18.773 0 0 0 0 0 0 20.48 10.24 44.373 20.48 69.973 32.427 56.32 27.307 83.627 59.733 97.28 92.16-5.12-3.413-8.533-8.533-13.653-11.947 0 0 0 0 0 0-11.947-10.24-27.307-20.48-46.080-34.133-6.827-3.413-13.653-8.533-20.48-11.947 0 0 0 0 0 0-22.187-13.653-47.787-25.6-71.68-34.133 0 0 0 0 0 0-8.533-3.413-18.773-8.533-29.013-11.947-13.653-5.12-27.307-11.947-40.96-18.773 0 0 0 0 0 0-25.6-11.947-44.373-20.48-63.147-30.72 0 0 0 0 0 0-6.827-3.413-11.947-6.827-18.773-10.24-20.48-10.24-34.133-20.48-46.080-29.013 0 0 0 0 0 0zM52.907 623.787c-11.947-20.48-18.773-40.96-18.773-63.147v-63.147c5.12 6.827 11.947 11.947 18.773 18.773v107.52zM87.040 659.627v-119.467c6.827 3.413 13.653 8.533 20.48 11.947 3.413 1.707 6.827 3.413 10.24 5.12v122.88c-10.24-6.827-20.48-13.653-30.72-20.48zM153.6 698.88v-122.88c10.24 5.12 20.48 10.24 30.72 15.36v122.88c-10.24-5.12-20.48-10.24-30.72-15.36zM218.453 729.6v-124.587c5.12 3.413 11.947 5.12 17.067 6.827 6.827 3.413 11.947 5.12 18.773 8.533v124.587c-11.947-5.12-23.893-10.24-35.84-15.36zM288.427 762.027v-126.293c11.947 5.12 23.893 11.947 35.84 18.773v54.613c0 10.24 6.827 17.067 17.067 17.067s17.067-6.827 17.067-17.067v-34.133c11.947 8.533 22.187 15.36 30.72 22.187v116.053c-8.533-6.827-18.773-13.653-30.72-18.773v-22.187c0-10.24-6.827-17.067-17.067-17.067s-17.067 6.827-17.067 17.067v5.12c-6.827-3.413-13.653-6.827-22.187-10.24l-13.653-5.12zM423.253 840.533v-110.933c13.653 17.067 20.48 32.427 20.48 47.787v85.333c-5.12-8.533-11.947-15.36-20.48-22.187z" />
<glyph unicode="&#xe930;" glyph-name="stringer-stairs" data-tags="stringer-stairs" d="M341.333-64h-324.267c-10.24 0-17.067 6.827-17.067 17.067v414.72c0 10.24 6.827 17.067 17.067 17.067h148.48v128c0 10.24 6.827 17.067 17.067 17.067h148.48v128c0 10.24 6.827 17.067 17.067 17.067h146.773v126.293c0 10.24 6.827 17.067 17.067 17.067h148.48v124.587c0 10.24 6.827 17.067 17.067 17.067h329.387c10.24 0 17.067-6.827 17.067-17.067v-513.707c0-5.12-3.413-10.24-6.827-13.653l-665.6-476.16c-3.413-1.707-6.827-3.413-10.24-3.413zM34.133-29.867h300.373l655.36 467.627v346.453h-129.707v-124.587c0-10.24-6.827-17.067-17.067-17.067h-148.48v-128c0-10.24-6.827-17.067-17.067-17.067h-150.187v-128c0-10.24-6.827-17.067-17.067-17.067h-146.773v-124.587c0-10.24-6.827-17.067-17.067-17.067h-312.32v-240.64zM34.133 241.493h295.253v107.52h-295.253v-107.52zM346.453 384.853h146.773v110.933h-293.547v-110.933h146.773zM510.293 529.92h150.187v110.933h-295.253v-110.933h145.067zM527.36 674.987h298.667v107.52h-298.667v-107.52zM843.093 818.347h146.773v107.52h-296.96v-107.52h150.187z" />
<glyph unicode="&#xe931;" glyph-name="team" data-tags="team" d="M1009 157.571c8.286 0 15 6.717 15 15v22.989c0 41.469-26.46 78.048-65.852 91.028l-93.754 30.848v32.459c32.645 19.586 54.548 55.32 54.548 96.082v64.65c0 61.744-50.232 111.976-111.976 111.976-36.369 0-68.731-17.44-89.199-44.382-11.329 21.262-30.544 37.844-54.598 45.744l-93.744 30.863v32.461c32.647 19.586 54.548 55.32 54.548 96.082v64.652c0.002 61.744-50.231 111.976-111.974 111.976s-111.976-50.232-111.976-111.976v-64.65c0-40.762 21.902-76.496 54.548-96.082v-32.459l-93.734-30.863c-24.061-7.904-43.278-24.486-54.607-45.747-20.468 26.943-52.83 44.382-89.199 44.382-61.743 0-111.975-50.232-111.975-111.976v-64.65c0-40.762 21.902-76.496 54.548-96.082v-32.459l-93.762-30.851c-39.384-12.977-65.844-49.556-65.844-91.025v-22.989c0-8.282 6.714-15 15-15s15 6.717 15 15v22.989c0 28.488 18.178 53.618 45.226 62.532l87.822 28.897c8.027-22.050 29.194-37.839 53.984-37.839 24.788 0 45.957 15.79 53.982 37.839l87.81-28.894c19.249-6.344 34.162-20.956 41.061-39.473l-39.055-12.855c-39.395-12.964-65.862-49.539-65.862-91.010v-17.434h-180.113v37.53c0 8.284-6.714 15-15 15s-15-6.716-15-15v-37.53h-54.854v5.18c0 8.284-6.714 15-15 15s-15-6.716-15-15v-20.18c0-8.284 6.714-15 15-15h279.967v-116.321c0-8.282 6.714-15 15-15h404.065c8.286 0 15 6.717 15 15v20.036c0 8.284-6.714 15-15 15s-15-6.716-15-15v-5.040h-54.852v88.037c0 8.284-6.714 15-15 15s-15-6.716-15-15v-88.037h-204.36v88.037c0 8.284-6.714 15-15 15s-15-6.716-15-15v-88.037h-54.854v148.755c0 28.486 18.179 53.61 45.24 62.513l87.811 28.901c8.028-22.047 29.194-37.835 53.982-37.835s45.954 15.787 53.982 37.835l87.811-28.901c27.061-8.905 45.24-34.028 45.24-62.513v-73.685c0-8.282 6.714-15 15-15s15 6.717 15 15v26.25h279.967c8.286 0 15 6.716 15 15v20.181c0 8.282-6.714 15-15 15s-15-6.717-15-15v-5.181h-54.854v37.531c0 8.284-6.714 15-15 15s-15-6.716-15-15v-37.531h-180.115v17.435c0 41.472-26.467 78.046-65.862 91.010l-39.055 12.853c6.898 18.517 21.809 33.128 41.052 39.473l87.818 28.896c8.025-22.048 29.193-37.839 53.982-37.839s45.957 15.79 53.984 37.839l87.813-28.896c27.059-8.912 45.237-34.043 45.237-62.531v-22.989c0-8.282 6.714-15 15-15zM806.967 592.606c45.201 0 81.975-36.774 81.975-81.976v-64.65c0-45.201-36.775-81.975-81.975-81.975s-81.975 36.774-81.975 81.975v64.65c0 45.203 36.774 81.976 81.975 81.976zM430.024 783.374v64.65c0 45.202 36.774 81.976 81.976 81.976s81.976-36.774 81.976-81.976v-64.65c0-45.201-36.777-81.976-81.976-81.976s-81.976 36.775-81.976 81.976zM512 671.398c9.46 0 18.645 1.191 27.428 3.41v-30.433c-0.003-0.142-0.002-0.282 0-0.422-0.012-15.114-12.31-27.407-27.426-27.407s-27.416 12.293-27.426 27.407c0 0.142 0.002 0.282 0 0.422v30.433c8.779-2.217 17.964-3.41 27.424-3.41zM370.21 595.471l87.806 28.911c8.025-22.048 29.194-37.837 53.982-37.837s45.955 15.788 53.982 37.837l87.817-28.913c25.073-8.236 42.462-30.194 44.892-56.298-2.406-9.115-3.7-18.679-3.7-28.542v-64.65c0-3.799 0.193-7.555 0.565-11.259h-71.706c-2.575 59.476-51.751 107.073-111.852 107.073s-109.276-47.597-111.853-107.073h-71.706c0.372 3.703 0.567 7.46 0.567 11.259v64.65c0 9.863-1.294 19.425-3.7 28.542 2.434 26.102 19.823 48.060 44.906 56.3zM512 283.192c-45.203 0-81.976 36.774-81.976 81.976v64.649c0 45.203 36.777 81.976 81.976 81.976s81.976-36.774 81.976-81.976v-64.649c0-45.203-36.774-81.976-81.976-81.976zM135.056 445.979v64.65c0 45.203 36.776 81.976 81.976 81.976 45.201 0 81.975-36.774 81.975-81.976v-64.65c0-45.201-36.774-81.975-81.975-81.975-45.199 0-81.976 36.774-81.976 81.975zM244.458 306.579c0-15.124-12.302-27.426-27.426-27.426s-27.428 12.303-27.428 27.426v30.836c8.781-2.22 17.966-3.412 27.428-3.412 9.46 0 18.647 1.191 27.426 3.412v-30.836zM368.208 286.589l-93.749 30.848v32.461c20.978 12.587 37.497 31.848 46.638 54.823h78.927v-39.552c0-40.762 21.902-76.496 54.548-96.082v-32.466l-26.199-8.622c-9.853 27.486-31.756 49.225-60.165 58.59zM512 198.337c-15.124 0-27.428 12.303-27.428 27.428v0.181c0 0.031 0 0.060 0 0.089v30.566c8.779-2.22 17.966-3.41 27.428-3.41s18.645 1.19 27.428 3.41v-30.836c0-15.124-12.303-27.428-27.428-27.428zM655.787 286.585c-28.404-9.361-50.307-31.101-60.158-58.59l-26.201 8.622v32.466c32.647 19.587 54.548 55.32 54.548 96.082v39.555h78.927c9.141-22.977 25.66-42.238 46.638-54.823v-32.461l-93.754-30.851zM806.967 279.149c-15.124 0-27.426 12.305-27.426 27.426v30.836c8.779-2.219 17.966-3.41 27.426-3.41s18.645 1.191 27.428 3.41v-30.836c0-15.121-12.305-27.426-27.428-27.426z" />
<glyph unicode="&#xe932;" glyph-name="technology" data-tags="technology" d="M1009.422 691.108c-0.002 0-0.002 0-0.005 0l-0.032 0.034-66.097 9.431c-9.289 1.323-15.747 9.926-14.425 19.217 0.635 4.465 3.021 8.491 6.627 11.197l53.42 40.066c7.508 5.63 9.028 16.278 3.398 23.787l-61.169 81.558c-5.63 7.508-16.28 9.029-23.788 3.398l-53.403-40.066c-7.477-5.673-18.135-4.212-23.808 3.265-2.755 3.63-3.936 8.215-3.277 12.724l9.448 66.096c1.331 9.29-5.12 17.898-14.408 19.232-0.005 0-0.012 0.002-0.019 0.002l-100.861 14.409c-9.288 1.334-17.9-5.114-19.234-14.404 0-0.002 0-0.002 0-0.004l-9.446-66.096c-1.323-9.29-9.928-15.749-19.217-14.426-4.465 0.635-8.492 3.020-11.197 6.626l-40.049 53.421c-5.63 7.508-16.28 9.029-23.788 3.398l-51.058-38.315c-23.1 2.455-46.396 2.455-69.495 0-151.277-17.291-269.908-137.934-284.653-289.481-0.459-4.808-0.63-9.583-0.867-14.356h-5.098c-8.062-0.015-15.005-5.695-16.617-13.594l-11.741-55.834-47.032 32.437c-6.75 4.657-15.866 3.826-21.664-1.971l-50.974-50.975c-5.79-5.796-6.618-14.899-1.971-21.646l32.283-46.947-55.85-11.742c-7.812-1.712-13.372-8.637-13.355-16.635v-67.965c-0.004-8.037 5.626-14.978 13.491-16.635l55.85-11.74-32.283-46.947c-4.647-6.748-3.819-15.85 1.971-21.647l50.974-50.973c5.798-5.799 14.914-6.629 21.664-1.971l46.947 32.369 11.741-55.851c1.613-7.898 8.555-13.578 16.618-13.594h67.965c8.037-0.003 14.978 5.627 16.635 13.491l11.74 55.851 46.947-32.283c6.748-4.647 15.852-3.82 21.647 1.971l26.387 26.472v-48.425c0.077-24.172 13.027-46.471 33.983-58.518v-94.403c0-37.536 30.43-67.966 67.965-67.966h67.966c37.535 0 67.965 30.43 67.965 67.966v94.403c20.956 12.047 33.906 34.347 33.983 58.518v67.251c0.461 28.297 15.264 54.42 39.299 69.359 14.1 9.148 27.474 19.374 39.997 30.583l-22.666 25.317c-11.203-10.040-23.173-19.193-35.801-27.372-33.737-21.176-54.39-58.056-54.813-97.888v-67.251c0-18.768-15.213-33.983-33.983-33.983h-135.929c-18.77 0-33.983 15.215-33.983 33.983v68.661c-0.393 39.079-20.721 75.247-53.897 95.899-134.67 84.622-175.246 262.39-90.624 397.061 52.502 83.556 144.131 134.413 242.814 134.766-0.253-0.605-0.474-1.223-0.662-1.852-0.63-4.46 0.538-8.99 3.246-12.59l40.049-53.403c4.222-5.465 4.627-12.971 1.019-18.86-3.475-5.926-10.192-9.158-16.992-8.173l-66.096 9.446c-9.289 1.333-17.898-5.118-19.232-14.406 0-0.007-0.002-0.012-0.002-0.019l-14.425-100.912c-1.333-9.288 5.118-17.898 14.406-19.231 0.007 0 0.012-0.003 0.019-0.003l66.096-9.446c9.291-1.323 15.749-9.928 14.426-19.217-0.635-4.465-3.021-8.492-6.627-11.197l-53.403-40.049c-7.508-5.63-9.030-16.28-3.398-23.788l61.169-81.558c5.63-7.508 16.28-9.028 23.788-3.398l53.42 40.049c7.514 5.62 18.164 4.084 23.782-3.432 2.69-3.596 3.847-8.112 3.217-12.558l-9.431-66.096c-1.333-9.288 5.115-17.9 14.404-19.234 0.002 0 0.002 0 0.005 0l100.927-14.425c0.795-0.102 1.596-0.154 2.396-0.154 8.46-0.010 15.636 6.204 16.838 14.578l9.431 66.096c1.323 9.291 9.926 15.749 19.217 14.426 4.465-0.635 8.491-3.021 11.197-6.627l40.064-53.403c5.632-7.508 16.28-9.028 23.789-3.398l81.558 61.169c7.508 5.63 9.028 16.28 3.398 23.788l-40.049 53.403c-4.204 5.473-4.61 12.967-1.019 18.86 3.4 6.004 10.179 9.259 16.99 8.156l66.096-9.431c9.289-1.333 17.901 5.117 19.234 14.404 0 0.003 0 0.003 0 0.005l14.409 100.927c1.335 9.291-5.115 17.901-14.404 19.234zM446.259 89.074h135.929v-33.983h-135.929v33.983zM446.259 21.108h135.929v-16.99c0-18.77-15.213-33.983-33.981-33.983h-67.966c-18.768 0-33.981 15.213-33.981 33.983v16.99zM310.991 314.124c9.277-7.588 18.971-14.652 29.039-21.154 16.055-10.146 28.14-25.496 34.237-43.481l-36.446-36.379-35.292 24.332c-15.452 10.65-36.613 6.753-47.264-8.699-2.553-3.707-4.345-7.883-5.272-12.286l-8.904-42.426h-40.388l-8.904 42.359c-3.866 18.365-21.886 30.121-40.252 26.255-4.403-0.927-8.579-2.719-12.285-5.272l-35.308-24.264-30.958 30.891 24.315 35.273c10.66 15.447 6.777 36.61-8.67 47.27-3.708 2.56-7.888 4.357-12.298 5.286l-42.359 8.919v40.371l42.359 8.921c18.359 3.893 30.087 21.932 26.194 40.293-0.924 4.357-2.693 8.487-5.21 12.16l-24.332 35.376 30.958 30.891 35.325-24.332c15.46-10.639 36.62-6.731 47.259 8.73 2.548 3.702 4.337 7.873 5.26 12.271l2.975 14.136c2.722-19.577 7.231-38.863 13.474-57.617-55.908-6.665-95.827-57.392-89.162-113.299 6.665-55.909 57.393-95.828 113.3-89.163 33.655 4.014 63.116 24.491 78.607 54.639zM284.604 338.063c-12.687-35.267-51.562-53.571-86.83-40.885-35.267 12.689-53.571 51.562-40.885 86.83 9.706 26.979 35.323 44.95 63.995 44.89 0.222 0 0.425 0 0.647 0 15.625-33.691 36.965-64.422 63.073-90.836zM978.086 592.626l-49.275 7.035c-27.87 3.98-53.688-15.387-57.668-43.255-1.911-13.382 1.572-26.977 9.685-37.792l29.853-39.811-54.371-40.779-29.872 39.794c-16.889 22.525-48.84 27.093-71.361 10.202-10.815-8.108-17.966-20.183-19.883-33.565l-6.881-49.343-67.268 9.617 7.035 49.275c3.99 27.868-15.367 53.695-43.235 57.684-13.391 1.917-26.993-1.567-37.813-9.684l-39.811-29.853-40.779 54.371 39.794 29.872c22.523 16.889 27.092 48.838 10.202 71.361-8.108 10.815-20.183 17.966-33.565 19.881l-49.275 7.035 9.617 67.268 49.275-7.033c27.866-3.992 53.693 15.365 57.682 43.233 1.918 13.392-1.565 26.993-9.682 37.814l-29.955 39.845 54.371 40.779 29.872-39.81c16.889-22.524 48.838-27.093 71.361-10.203 10.815 8.109 17.966 20.184 19.881 33.566l7.035 49.275 67.268-9.6-7.035-49.275c-3.98-27.87 15.386-53.688 43.255-57.668 13.384-1.911 26.979 1.572 37.794 9.685l39.81 29.854 40.779-54.373-39.81-29.87c-22.525-16.889-27.093-48.84-10.204-71.361 8.11-10.815 20.183-17.966 33.567-19.883l49.275-7.033-9.668-67.253zM730.631 798.217c-75.073 0-135.931-60.858-135.931-135.929 0-75.073 60.858-135.931 135.931-135.931 75.071 0 135.929 60.858 135.929 135.931-0.085 75.037-60.892 135.846-135.929 135.929zM730.631 560.34c-56.305 0-101.948 45.641-101.948 101.948 0 56.305 45.643 101.946 101.948 101.946s101.948-45.641 101.948-101.946c-0.067-56.277-45.67-101.883-101.948-101.948zM531.215 208.012h-33.981v-50.973h33.981v50.973zM439.902 374.885c-104.89 40.974-156.703 159.22-115.726 264.11 15.879 40.643 44.375 75.121 81.3 98.364l-18.162 28.751c-111.157-70.028-144.5-216.907-74.474-328.064 27.121-43.049 67.33-76.269 114.726-94.781 41.952-16.073 69.654-56.342 69.664-101.268h33.981c0.055 58.943-36.27 111.805-91.31 132.89zM955.998 326.95h-118.939v-33.981h118.939v33.981zM830.944 238.071l-21.751-26.109 101.955-84.943 21.751 26.109-101.955 84.943zM769.099 191.020h-33.983v-118.938h33.983v118.938zM153.271 700.256l-135.921-33.976 8.237-32.951 135.921 33.978-8.237 32.949zM65.316 867.484l-19.741-27.638 118.929-84.948 19.741 27.638-118.929 84.948zM224.080 959.859l-32.922-8.417 34.751-135.92 32.922 8.417-34.751 135.92z" />
<glyph unicode="&#xe933;" glyph-name="approach" data-tags="approach" d="M1006.933 857.6c9.424 0 17.067 7.642 17.067 17.067v68.267c0 9.425-7.642 17.067-17.067 17.067h-989.867c-9.425 0-17.067-7.642-17.067-17.067v-68.267c0-9.425 7.642-17.067 17.067-17.067h34.133v-580.267h-34.133c-9.425 0-17.067-7.642-17.067-17.067v-68.267c0-9.424 7.642-17.067 17.067-17.067h423.716l-180.666-210.775c-4.333-5.059-5.325-12.175-2.541-18.225s8.834-9.924 15.491-9.933h68.267c4.983 0 9.708 2.174 12.95 5.958l106.516 124.209v-113.101c0-9.424 7.642-17.067 17.067-17.067h68.267c9.424 0 17.067 7.642 17.067 17.067v113.101l106.516-124.209c3.243-3.784 7.967-5.958 12.95-5.958h68.267c6.658 0.009 12.708 3.883 15.491 9.933s1.792 13.167-2.541 18.225l-180.666 210.775h423.716c9.424 0 17.067 7.642 17.067 17.067v68.267c0 9.424-7.642 17.067-17.067 17.067h-34.133v580.267h34.133zM34.133 925.867h955.733v-34.133h-955.733v34.133zM333.483-29.867h-23.316l150.634 175.783v-27.3l-127.317-148.483zM529.067-29.867h-34.133v204.8h34.133v-204.8zM690.517-29.867l-127.317 148.483v27.3l150.634-175.783h-23.316zM989.867 209.067h-955.733v34.133h955.733v-34.133zM938.667 277.333h-853.333v580.267h853.333v-580.267zM256 413.867c-0.133-35.509 26.976-65.191 62.35-68.267 35.376-3.075 67.209 21.484 73.201 56.484 6.001 34.999-15.833 68.75-50.217 77.624v2.425c0.058 47.107 38.226 85.275 85.333 85.333h170.667c65.942 0.084 119.383 53.524 119.467 119.467v2.425c33.283 8.591 54.992 40.6 50.659 74.699-4.333 34.101-33.35 59.667-67.726 59.667-34.374 0-63.391-25.567-67.724-59.667-4.333-34.099 17.374-66.108 50.657-74.699v-2.425c-0.058-47.109-38.224-85.275-85.333-85.333h-170.667c-65.94-0.084-119.383-53.524-119.467-119.467v-2.425c-30.049-7.759-51.082-34.807-51.2-65.841zM665.6 755.2c0 18.85 15.283 34.133 34.133 34.133s34.133-15.283 34.133-34.133c0-18.85-15.283-34.133-34.133-34.133s-34.133 15.283-34.133 34.133zM324.267 448c18.85 0 34.133-15.283 34.133-34.133s-15.283-34.133-34.133-34.133c-18.85 0-34.133 15.283-34.133 34.133s15.283 34.133 34.133 34.133zM604.401 496.266l-24.134-24.132-24.134 24.132-24.132-24.132 24.132-24.134-24.132-24.134 24.132-24.132 24.134 24.132 24.134-24.132 24.132 24.132-24.132 24.134 24.132 24.134-24.132 24.132zM753.867 591.601l24.132-24.134-24.132-24.134 24.132-24.132 24.134 24.132 24.134-24.132 24.132 24.132-24.132 24.134 24.132 24.134-24.132 24.132-24.134-24.132-24.134 24.132-24.132-24.132zM246.001 666.933l-24.134-24.132-24.134 24.132-24.132-24.132 24.132-24.134-24.132-24.134 24.132-24.132 24.134 24.132 24.134-24.132 24.132 24.132-24.132 24.134 24.132 24.134-24.132 24.132zM402.533 672.8l24.134 24.132 24.134-24.132 24.132 24.132-24.132 24.134 24.132 24.134-24.132 24.132-24.134-24.132-24.134 24.132-24.132-24.132 24.132-24.134-24.132-24.134 24.132-24.132zM733.867 413.867h34.133v-34.133h-34.133v34.133zM802.133 413.867h68.267v-34.133h-68.267v34.133zM733.867 362.667h136.533v-34.133h-136.533v34.133zM153.6 823.467h102.4v-34.133h-102.4v34.133zM153.6 772.267h102.4v-34.133h-102.4v34.133z" />
<glyph unicode="&#xe934;" glyph-name="award" data-tags="award" d="M763.752 513.545c8.125-1.657 16.044 3.582 17.707 11.723 3.709 18.173 5.588 36.871 5.588 55.583 0 152.112-123.38 275.866-275.036 275.866s-275.034-123.754-275.034-275.866c0-152.11 123.378-275.866 275.034-275.866 103.369 0 197.067 57.272 244.528 149.465 3.801 7.385 0.916 16.461-6.448 20.273-7.361 3.814-16.411 0.916-20.212-6.465-42.289-82.145-125.769-133.176-217.866-133.176-135.112 0-245.031 110.252-245.031 245.772s109.92 245.771 245.031 245.771c135.112 0 245.031-110.252 245.031-245.771 0-16.689-1.674-33.359-4.978-49.55-1.662-8.143 3.574-16.094 11.687-17.76v0zM678.917 636.815c-1.768 5.458-6.477 9.431-12.14 10.245l-97.773 14.048-43.534 88.929c-4.972 11.051-21.963 11.049-26.933 0l-43.534-88.928-97.773-14.048c-12.029-1.331-17.256-17.546-8.322-25.689l70.866-69.009-16.894-97.609c-2.456-11.849 11.271-21.895 21.789-15.881l87.334 46.281 87.334-46.281c10.503-6.014 24.252 4.031 21.789 15.881l-16.894 97.609 70.868 69.009c4.106 3.994 5.586 9.984 3.818 15.442v0zM577.645 568.416c-3.558-3.465-5.178-8.467-4.332-13.37l13.024-75.247-67.326 35.678c-4.384 2.323-9.632 2.323-14.017 0l-67.326-35.678 13.024 75.247c0.848 4.903-0.773 9.905-4.332 13.37l-54.634 53.202 75.375 10.831c4.91 0.707 9.155 3.797 11.341 8.264l33.56 68.555 33.56-68.555c2.186-4.465 6.431-7.557 11.339-8.264l75.377-10.831-54.632-53.202zM933.001 65.579l-146.628 254.737c64.203 67.985 103.642 159.725 103.642 260.538-0.002 209.062-169.573 379.146-378.008 379.146-64.13 0-127.486-16.404-183.224-47.44-7.245-4.035-9.856-13.194-5.833-20.461 4.019-7.263 13.153-9.883 20.396-5.853 51.292 28.562 109.614 43.658 168.661 43.658 191.891 0 348.003-156.586 348.003-349.054s-156.112-349.054-348.003-349.054c-191.891 0-348.003 156.587-348.003 349.058 0 103.253 45.22 200.643 124.068 267.196 6.339 5.351 7.153 14.844 1.818 21.201-5.333 6.359-14.797 7.179-21.135 1.824-85.637-72.283-134.754-178.065-134.754-290.221 0-100.985 39.571-192.869 103.969-260.89l-41.527-72.144c-9.952-16.701 16.379-32.143 25.982-15.048l37.751 65.582c45.164-40.547 100.067-70.378 160.71-85.49l-129.454-224.898-33.114 104.537c-2.347 7.41-9.94 11.803-17.512 10.141l-106.816-23.504 53.428 92.819c4.142 7.197 1.683 16.399-5.492 20.555-7.177 4.154-16.35 1.69-20.492-5.507l-70.425-122.348c-6.681-10.747 3.929-25.351 16.206-22.223l126.65 27.87 39.264-123.948c3.432-12.194 21.294-14.181 27.29-2.966l151.456 263.127c19.587-3.154 39.666-4.816 60.126-4.816 20.628 0 40.868 1.691 60.609 4.896l90.965-158.034c2.778-4.828 7.822-7.525 13.007-7.525 2.543 0 5.123 0.65 7.485 2.017 7.175 4.157 9.634 13.358 5.492 20.555l-85.975 149.366c60.617 15.188 115.482 45.085 160.596 85.688l125.834-218.609-106.815 23.504c-7.572 1.666-15.164-2.731-17.512-10.143l-33.114-104.535-8.009 13.914c-4.142 7.197-13.317 9.661-20.492 5.506s-9.634-13.356-5.492-20.553l25.006-43.445c5.997-11.215 23.857-9.225 27.29 2.968l39.264 123.947 126.65-27.868c12.29-3.118 22.89 11.477 16.213 22.226z" />
<glyph unicode="&#xe939;" glyph-name="machining" data-tags="machining" horiz-adv-x="973" d="M395.947-55.467c-13.653 0-25.6 11.947-25.6 25.6v87.040h-20.48c-10.24 0-18.773 6.827-23.893 15.36l-39.253 90.453h-29.013c-13.653 0-25.6 11.947-25.6 25.6s11.947 25.6 25.6 25.6h5.12v69.973h-5.12c-13.653 0-25.6 11.947-25.6 25.6v124.587h-197.973c-13.653 0-25.6 11.947-25.6 25.6v331.093c0 13.653 11.947 25.6 25.6 25.6h109.227l23.893 83.627h-133.12c-13.653 0-25.6 11.947-25.6 25.6s11.947 25.6 25.6 25.6h165.547c0 0 0 0 1.707 0h88.747c0 0 0 0 1.707 0h331.093c189.44 0 341.333-160.427 341.333-356.693 0-179.2-131.413-372.053-341.333-372.053-13.653 0-25.6 11.947-25.6 25.6s11.947 25.6 25.6 25.6c179.2 0 290.133 167.253 290.133 320.853 0 168.96-129.707 305.493-290.133 305.493h-298.667l23.893-83.627h184.32c109.227 0 175.787-98.987 175.787-191.147 0-88.747-46.080-177.493-150.187-189.44v-25.6h27.307c13.653 0 25.6-11.947 25.6-25.6s-11.947-25.6-25.6-25.6h-27.307v-49.493c0-13.653-11.947-25.6-25.6-25.6h-5.12v-69.973h5.12c13.653 0 25.6-11.947 25.6-25.6s-11.947-25.6-25.6-25.6h-29.013l-39.253-90.453c-3.413-10.24-13.653-15.36-23.893-15.36h-18.773v-87.040c0-13.653-11.947-25.6-25.6-25.6zM395.947 108.373h29.013l23.893 54.613h-102.4l23.893-54.613h25.6zM421.547 214.187h54.613v69.973h-54.613v-69.973zM315.733 214.187h54.613v69.973h-54.613v-69.973zM501.76 333.653h5.12v98.987h-220.16v-98.987h215.040zM532.48 485.547c92.16 0 124.587 71.68 124.587 139.947 0 66.56-47.787 139.947-124.587 139.947h-203.093c0 0 0 0-1.707 0h-165.547c0 0 0 0-1.707 0h-102.4v-279.893h474.453zM196.267 816.64h98.987l-23.893 83.627h-51.2l-23.893-83.627zM523.947 524.8c-47.787 0-100.693 39.253-100.693 100.693s52.907 100.693 100.693 100.693c54.613 0 100.693-47.787 100.693-100.693 0-58.027-42.667-100.693-100.693-100.693zM523.947 674.987c-23.893 0-49.493-18.773-49.493-49.493s25.6-49.493 49.493-49.493c29.013 0 49.493 20.48 49.493 49.493 0 27.307-25.6 49.493-49.493 49.493zM336.213 553.813c-13.653 0-25.6 11.947-25.6 25.6v75.093c0 13.653 11.947 25.6 25.6 25.6s25.6-11.947 25.6-25.6v-75.093c0-13.653-11.947-25.6-25.6-25.6zM245.76 553.813c-13.653 0-25.6 11.947-25.6 25.6v75.093c0 13.653 11.947 25.6 25.6 25.6s25.6-11.947 25.6-25.6v-75.093c0-13.653-11.947-25.6-25.6-25.6zM155.307 553.813c-13.653 0-25.6 11.947-25.6 25.6v75.093c0 13.653 11.947 25.6 25.6 25.6s25.6-11.947 25.6-25.6v-75.093c0-13.653-11.947-25.6-25.6-25.6z" />
<glyph unicode="&#xe93a;" glyph-name="plasma-cutting" data-tags="plasma-cutting" horiz-adv-x="802" d="M544.427-55.467c-5.12 0-8.533 1.707-11.947 3.413-8.533 5.12-13.653 13.653-13.653 22.187v8.533h-266.24c-13.653 0-25.6 11.947-25.6 25.6v93.867c0 13.653 11.947 25.6 25.6 25.6h59.733v85.333l-63.147 88.747-196.267-197.973c-8.533-8.533-18.773-10.24-29.013-6.827s-15.36 13.653-15.36 23.893v226.987c0 6.827 3.413 13.653 6.827 18.773l151.893 153.6c5.12 5.12 11.947 6.827 18.773 6.827h121.173l10.24 29.013h-160.427l-105.813-105.813c-10.24-10.24-25.6-10.24-35.84 0s-10.24 25.6 0 35.84l112.64 114.347c5.12 5.12 11.947 6.827 18.773 6.827h187.733l6.827 22.187c3.413 10.24 13.653 17.067 23.893 17.067h6.827v30.72c-61.44 11.947-119.467 64.853-119.467 136.533 0 83.627 75.093 139.947 145.067 139.947s145.067-49.493 145.067-139.947c0-76.8-44.373-128-119.467-138.24v-30.72h6.827c10.24 0 20.48-6.827 23.893-17.067l6.827-22.187h160.427c110.933 0 168.96-87.040 168.96-172.373s-58.027-172.373-168.96-172.373h-104.107l-34.133-47.787v-87.040h34.133v8.533c0 8.533 5.12 17.067 11.947 22.187s17.067 5.12 23.893 1.707l98.987-46.080c8.533-3.413 15.36-13.653 15.36-23.893v-1.707h27.307c13.653 0 25.6-11.947 25.6-25.6s-11.947-25.6-25.6-25.6h-27.307v-1.707c0-8.533-5.12-17.067-11.947-22.187l-98.987-59.733c-3.413-1.707-6.827-3.413-11.947-3.413zM570.027 89.6v-75.093l47.787 29.013v22.187l-47.787 23.893zM278.187 29.867h240.64v42.667h-240.64v-42.667zM365.227 122.027h68.267v68.267h-68.267v-68.267zM59.733 333.653v-155.307l174.080 175.787c0 0 1.707 1.707 1.707 1.707 1.707 1.707 5.12 3.413 6.827 3.413 0 0 1.707 0 3.413 1.707v0 0c1.707 0 5.12 1.707 6.827 1.707h266.24v29.013h-199.68c-13.653 0-25.6 11.947-25.6 25.6s11.947 25.6 25.6 25.6h199.68v29.013h-46.080c0 0 0 0-1.707 0h-145.067c0 0 0 0-1.707 0h-128l-136.533-138.24zM351.573 243.2h92.16l39.253 56.32c0 0 0 0 0 0l11.947 11.947h-192.853l49.493-68.267zM556.373 309.76h68.267c37.547 0 68.267 13.653 88.747 37.547 18.773 22.187 29.013 51.2 29.013 83.627 0 59.733-35.84 121.173-117.76 121.173h-143.36l10.24-29.013h54.613c13.653 0 25.6-11.947 25.6-25.6v-160.427c0-3.413 0-5.12-1.707-8.533s-1.707-5.12-3.413-6.827l-10.24-11.947zM361.813 523.093h75.093l-15.36 46.080c0 0 0 0 0 1.707l-6.827 22.187h-29.013l-6.827-22.187c0 0 0 0 0-1.707l-17.067-46.080zM399.36 900.267c-44.373 0-93.867-35.84-93.867-88.747 0-51.2 49.493-88.747 93.867-88.747 42.667 0 93.867 15.36 93.867 88.747-1.707 58.027-47.787 88.747-93.867 88.747zM399.36 785.92c-6.827 0-13.653 1.707-18.773 6.827-10.24 10.24-10.24 25.6 0 35.84l46.080 47.787c10.24 10.24 25.6 10.24 35.84 0s10.24-25.6 0-35.84l-46.080-46.080c-5.12-5.12-11.947-8.533-17.067-8.533z" />
<glyph unicode="&#xe93b;" glyph-name="plate-rolling" data-tags="plate-rolling" d="M989.867-55.467h-128c-13.653 0-25.6 11.947-25.6 25.6s11.947 25.6 25.6 25.6h128c13.653 0 25.6-11.947 25.6-25.6s-11.947-25.6-25.6-25.6zM384-55.467c-117.76 0-375.467 92.16-375.467 368.64s225.28 375.467 375.467 375.467c145.067 0 221.867-76.8 225.28-78.507 10.24-10.24 10.24-25.6 0-35.84s-25.6-10.24-35.84 0c-1.707 1.707-68.267 64.853-189.44 64.853-131.413 0-324.267-87.040-324.267-324.267s223.573-317.44 324.267-317.44c174.080 0 261.12 141.653 264.533 146.773 6.827 11.947 23.893 15.36 35.84 8.533s15.36-22.187 8.533-35.84c-3.413-6.827-105.813-172.373-308.907-172.373zM989.867 48.64h-128c-13.653 0-25.6 11.947-25.6 25.6s11.947 25.6 25.6 25.6h128c13.653 0 25.6-11.947 25.6-25.6s-11.947-25.6-25.6-25.6zM384 120.32c-116.053 0-201.387 81.92-201.387 192.853 0 124.587 80.213 208.213 201.387 208.213h525.653c71.68 0 105.813-54.613 105.813-105.813 0-42.667-20.48-78.507-54.613-93.867 0 0 0 0 0 0-5.12-1.707-10.24-3.413-15.36-5.12l-476.16-179.2c-6.827-3.413-15.36-6.827-23.893-8.533 0 0 0 0 0 0-18.773-6.827-39.253-8.533-61.44-8.533zM384 470.187c-90.453 0-150.187-61.44-150.187-157.013 0-83.627 61.44-141.653 150.187-141.653 15.36 0 30.72 1.707 46.080 6.827l20.48 6.827c51.2 23.893 83.627 71.68 83.627 128 0 75.093-46.080 157.013-150.187 157.013zM520.533 470.187c42.667-40.96 64.853-98.987 64.853-157.013 0-30.72-6.827-58.027-20.48-83.627l278.187 104.107c-25.6 20.48-37.547 52.907-37.547 83.627 0 17.067 5.12 35.84 15.36 54.613h-300.373zM909.653 470.187c-40.96 0-54.613-35.84-54.613-54.613 0-11.947 3.413-54.613 54.613-54.613 6.827 0 13.653 0 18.773 1.707l10.24 3.413c23.893 11.947 25.6 37.547 25.6 47.787 0 15.36-3.413 56.32-54.613 56.32zM989.867 151.040h-128c-13.653 0-25.6 11.947-25.6 25.6s11.947 25.6 25.6 25.6h128c13.653 0 25.6-11.947 25.6-25.6s-11.947-25.6-25.6-25.6zM384 255.147c-29.013 0-58.027 22.187-58.027 58.027s29.013 58.027 58.027 58.027 58.027-22.187 58.027-58.027-29.013-58.027-58.027-58.027zM384 318.293c-3.413 0-6.827-1.707-6.827-6.827s3.413-6.827 6.827-6.827c6.827 0 6.827 5.12 6.827 6.827s0 6.827-6.827 6.827zM34.133 613.547c-13.653 0-25.6 11.947-25.6 25.6v286.72c0 13.653 11.947 25.6 25.6 25.6h860.16c78.507 0 121.173-75.093 121.173-129.707v-95.573c0-13.653-11.947-25.6-25.6-25.6s-25.6 11.947-25.6 25.6v95.573c0 27.307-23.893 78.507-69.973 78.507h-834.56v-261.12c0-13.653-11.947-25.6-25.6-25.6zM855.040 637.44h-87.040c-8.533 0-15.36 3.413-20.48 10.24l-88.747 117.76h-457.387c-13.653 0-25.6 11.947-25.6 25.6s11.947 25.6 25.6 25.6h469.333c8.533 0 15.36-3.413 20.48-10.24l88.747-117.76h75.093c13.653 0 25.6-11.947 25.6-25.6s-11.947-25.6-25.6-25.6z" />
<glyph unicode="&#xe93c;" glyph-name="press-brake" data-tags="press-brake" d="M989.867-55.467h-955.733c-13.653 0-25.6 11.947-25.6 25.6v175.787c0 13.653 11.947 25.6 25.6 25.6h191.147c13.653 0 25.6-11.947 25.6-25.6v-39.253h139.947v37.547c0 13.653 11.947 25.6 25.6 25.6h191.147c13.653 0 25.6-11.947 25.6-25.6v-37.547h139.947v37.547c0 13.653 11.947 25.6 25.6 25.6h191.147c13.653 0 25.6-11.947 25.6-25.6v-174.080c0-13.653-11.947-25.6-25.6-25.6zM59.733-4.267h904.533v124.587h-139.947v-37.547c0-13.653-11.947-25.6-25.6-25.6h-191.147c-13.653 0-25.6 11.947-25.6 25.6v37.547h-139.947v-37.547c0-13.653-11.947-25.6-25.6-25.6h-191.147c-13.653 0-25.6 11.947-25.6 25.6v37.547h-139.947v-124.587zM559.787 263.68h-95.573c-13.653 0-25.6 11.947-25.6 25.6v35.84l-69.973 54.613c-6.827 5.12-10.24 11.947-10.24 20.48v40.96c-47.787 10.24-71.68 46.080-71.68 83.627 0 22.187 8.533 44.373 25.6 59.733 11.947 11.947 34.133 25.6 69.973 25.6v37.547l-58.027 76.8h-290.133c-13.653 0-25.6 11.947-25.6 25.6v175.787c0 13.653 11.947 25.6 25.6 25.6h940.373c13.653 0 25.6-11.947 25.6-25.6v-175.787c0-13.653-11.947-25.6-25.6-25.6h-288.427l-44.373-76.8v-39.253c63.147 0 95.573-42.667 95.573-85.333 0-35.84-23.893-73.387-71.68-83.627v-40.96c0-8.533-3.413-15.36-10.24-20.48l-69.973-56.32v-35.84c0-11.947-11.947-22.187-25.6-22.187zM489.813 314.88h44.373v22.187c0 8.533 3.413 15.36 10.24 20.48l69.973 56.32v25.6h-204.8v-25.6l69.973-56.32c6.827-5.12 10.24-11.947 10.24-20.48v-22.187zM384 488.96h254.293c15.36 0 27.307 3.413 35.84 11.947 6.827 5.12 10.24 13.653 10.24 22.187 0 17.067-13.653 34.133-46.080 34.133h-254.293c-32.427 0-46.080-17.067-46.080-34.133s15.36-34.133 46.080-34.133zM433.493 608.427h155.307v46.080c0 5.12 1.707 8.533 3.413 13.653l52.907 88.747v143.36h-283.307v-141.653l66.56-88.747c3.413-5.12 5.12-10.24 5.12-15.36v-46.080zM904.533 775.68h44.373v124.587h-252.587v-124.587h44.373v39.253c0 13.653 11.947 25.6 25.6 25.6s25.6-11.947 25.6-25.6v-37.547h61.44v37.547c0 13.653 10.24 25.6 25.6 25.6s25.6-11.947 25.6-25.6v-39.253zM266.24 775.68h44.373v124.587h-250.88v-124.587h44.373v39.253c0 13.653 11.947 25.6 25.6 25.6s25.6-11.947 25.6-25.6v-37.547h59.733v37.547c0 13.653 11.947 25.6 25.6 25.6s25.6-11.947 25.6-25.6v-39.253z" />
</font>
</defs>
</svg>
