<svg width="24" height="25" viewBox="0 0 24 25" fill="none" xmlns="http://www.w3.org/2000/svg">
<path d="M4.65 20.1163C4.03333 20.1163 3.52067 19.912 3.112 19.5033C2.704 19.0953 2.5 18.583 2.5 17.9663V7.36631C2.5 6.74964 2.704 6.23698 3.112 5.82831C3.52067 5.42031 4.03333 5.21631 4.65 5.21631H19.35C19.9667 5.21631 20.4793 5.42031 20.888 5.82831C21.296 6.23698 21.5 6.74964 21.5 7.36631V17.9663C21.5 18.583 21.296 19.0953 20.888 19.5033C20.4793 19.912 19.9667 20.1163 19.35 20.1163H4.65ZM4.65 18.7663H14.9V14.9663H3.85V17.9663C3.85 18.1663 3.93333 18.3496 4.1 18.5163C4.26667 18.683 4.45 18.7663 4.65 18.7663ZM16.25 18.7663H19.35C19.55 18.7663 19.7333 18.683 19.9 18.5163C20.0667 18.3496 20.15 18.1663 20.15 17.9663V9.76631H16.25V18.7663ZM3.85 13.6163H14.9V9.76631H3.85V13.6163Z" fill="#141414"/>
</svg>
