<svg width="24" height="24" viewBox="0 0 24 24" fill="none" xmlns="http://www.w3.org/2000/svg">
<path d="M7.70005 20.5C7.08338 20.5 6.57105 20.2957 6.16305 19.887C5.75438 19.479 5.55005 18.9667 5.55005 18.35V5.90002H4.55005V4.55002H8.95005V3.65002H15.1V4.55002H19.5V5.90002H18.5V18.35C18.5 18.9667 18.296 19.479 17.888 19.887C17.4794 20.2957 16.9667 20.5 16.35 20.5H7.70005ZM17.15 5.90002H6.90005V18.35C6.90005 18.55 6.98338 18.7334 7.15005 18.9C7.31672 19.0667 7.50005 19.15 7.70005 19.15H16.35C16.55 19.15 16.7334 19.0667 16.9 18.9C17.0667 18.7334 17.15 18.55 17.15 18.35V5.90002ZM9.52505 17.125H10.875V7.92502H9.52505V17.125ZM13.175 17.125H14.525V7.92502H13.175V17.125ZM6.90005 5.90002V19.15V18.35V5.90002Z" fill="#141414"/>
</svg>
