<svg width="24" height="24" viewBox="0 0 24 24" fill="none" xmlns="http://www.w3.org/2000/svg">
<path d="M4.6498 17.7496C4.03314 17.7496 3.52047 17.5453 3.1118 17.1366C2.7038 16.7286 2.4998 16.2163 2.4998 15.5996V5.99961C2.4998 5.38294 2.7038 4.87028 3.1118 4.46161C3.52047 4.05361 4.03314 3.84961 4.6498 3.84961H19.3498C19.9665 3.84961 20.4791 4.05361 20.8878 4.46161C21.2958 4.87028 21.4998 5.38294 21.4998 5.99961V15.5996C21.4998 16.2163 21.2958 16.7286 20.8878 17.1366C20.4791 17.5453 19.9665 17.7496 19.3498 17.7496H4.6498ZM4.6498 16.3996H19.3498C19.5498 16.3996 19.7331 16.3163 19.8998 16.1496C20.0665 15.9829 20.1498 15.7996 20.1498 15.5996V5.99961C20.1498 5.79961 20.0665 5.61628 19.8998 5.44961C19.7331 5.28294 19.5498 5.19961 19.3498 5.19961H4.6498C4.4498 5.19961 4.26647 5.28294 4.0998 5.44961C3.93314 5.61628 3.8498 5.79961 3.8498 5.99961V15.5996C3.8498 15.7996 3.93314 15.9829 4.0998 16.1496C4.26647 16.3163 4.4498 16.3996 4.6498 16.3996ZM1.9748 20.0996C1.79147 20.0996 1.63314 20.0329 1.4998 19.8996C1.36647 19.7663 1.2998 19.6079 1.2998 19.4246C1.2998 19.2413 1.36647 19.0829 1.4998 18.9496C1.63314 18.8163 1.79147 18.7496 1.9748 18.7496H22.0248C22.2081 18.7496 22.3665 18.8163 22.4998 18.9496C22.6331 19.0829 22.6998 19.2413 22.6998 19.4246C22.6998 19.6079 22.6331 19.7663 22.4998 19.8996C22.3665 20.0329 22.2081 20.0996 22.0248 20.0996H1.9748Z" fill="#141414"/>
</svg>
