<svg width="144" height="145" viewBox="0 0 144 145" fill="none" xmlns="http://www.w3.org/2000/svg">
<rect x="12.5" y="31" width="119" height="86" rx="0.5" fill="white" stroke="#141414" stroke-miterlimit="1.5" stroke-linecap="square"/>
<line x1="12.5" y1="45" x2="131.5" y2="45" stroke="#141414" stroke-miterlimit="1.5" stroke-linecap="square"/>
<circle cx="70.5" cy="78.5" r="27.9737" fill="#F8D9DD" stroke="#141414" stroke-width="1.05263" stroke-miterlimit="1.5" stroke-linecap="round" stroke-linejoin="round"/>
<path d="M60.0005 66.5L84.0009 90.5004" stroke="#C70018" stroke-miterlimit="1.5" stroke-linecap="round"/>
<path d="M84.001 66.5L60.0006 90.5004" stroke="#C70018" stroke-miterlimit="1.5" stroke-linecap="round"/>
<path d="M101.25 14C101.25 15.3929 101.805 16.7283 102.788 17.7117C103.772 18.6952 105.107 19.25 106.5 19.25C105.107 19.25 103.772 19.8048 102.788 20.7883C101.805 21.7717 101.25 23.1071 101.25 24.5C101.25 23.1071 100.695 21.7717 99.7117 20.7883C98.7283 19.8048 97.3929 19.25 96 19.25C97.3929 19.25 98.7283 18.6952 99.7117 17.7117C100.695 16.7283 101.25 15.3929 101.25 14Z" fill="white" stroke="#141414" stroke-miterlimit="1.5" stroke-linecap="round" stroke-linejoin="round"/>
<path d="M30 119C30 120.592 30.6341 122.118 31.758 123.242C32.8819 124.366 34.4082 125 36 125C34.4082 125 32.8819 125.634 31.758 126.758C30.6341 127.882 30 129.408 30 131C30 129.408 29.3659 127.882 28.242 126.758C27.1181 125.634 25.5918 125 24 125C25.5918 125 27.1181 124.366 28.242 123.242C29.3659 122.118 30 120.592 30 119Z" fill="white" stroke="#141414" stroke-miterlimit="1.5" stroke-linecap="round" stroke-linejoin="round"/>
<path d="M117.75 15.5C117.75 17.2908 118.463 19.0078 119.728 20.2722C120.992 21.5366 122.709 22.25 124.5 22.25C122.709 22.25 120.992 22.9634 119.728 24.2278C118.463 25.4922 117.75 27.2092 117.75 29C117.75 27.2092 117.037 25.4922 115.772 24.2278C114.508 22.9634 112.791 22.25 111 22.25C112.791 22.25 114.508 21.5366 115.772 20.2722C117.037 19.0078 117.75 17.2908 117.75 15.5Z" fill="white" stroke="#141414" stroke-miterlimit="1.5" stroke-linecap="round" stroke-linejoin="round"/>
<path d="M107.693 132.247C107.693 132.247 107.22 131.489 106.722 130.685C105.966 129.467 104.881 128.491 103.591 127.867C101.479 126.844 98.1381 125.212 95.9147 124.132C94.4405 123.415 93.243 122.244 92.5009 120.793C91.4125 118.667 89.7537 115.433 88.5096 113.007C87.5507 111.135 88.2353 108.843 90.0606 107.789C90.0606 107.789 83.3734 96.2066 80.3093 90.8993C79.9117 90.2107 79.8029 89.39 80.0106 88.6205C80.2182 87.851 80.7257 87.1943 81.4167 86.7953C82.8574 85.9635 84.6957 86.4526 85.5246 87.8882C88.2512 92.6109 94.9519 104.322 94.9519 104.322C94.048 102.756 92.0756 99.2982 94.9519 97.6376C96.523 96.7305 98.5256 97.2633 99.4295 98.8289C99.5149 98.9767 99.9863 98.8234 100.007 98.6539C100.126 97.6636 100.697 96.7371 101.631 96.1981C103.202 95.291 105.205 95.8238 106.108 97.3893C106.197 97.5425 106.694 97.3831 106.717 97.2078C106.849 96.2346 107.415 95.3274 108.332 94.7975C109.832 93.9318 111.731 94.3767 112.683 95.7846L112.994 96.3071C112.994 96.3071 116.178 101.822 119.493 107.565C120.146 108.695 120.629 109.923 120.913 111.197C121.368 113.221 122.071 116.349 122.448 118.011C122.62 118.761 122.894 119.477 123.28 120.146C123.847 121.127 124.623 122.472 124.623 122.472" fill="white"/>
<path d="M107.693 132.247C107.693 132.247 107.22 131.489 106.722 130.685C105.966 129.467 104.881 128.491 103.591 127.867C101.479 126.844 98.1381 125.212 95.9147 124.132C94.4405 123.415 93.243 122.244 92.5009 120.793C91.4125 118.667 89.7537 115.433 88.5096 113.007C87.5507 111.135 88.2353 108.843 90.0606 107.789M90.0606 107.789C90.0606 107.789 83.3734 96.2066 80.3093 90.8993C79.9117 90.2107 79.8029 89.39 80.0106 88.6205C80.2182 87.851 80.7257 87.1943 81.4167 86.7953C82.8574 85.9635 84.6957 86.4526 85.5246 87.8882C88.2512 92.6109 94.9519 104.322 94.9519 104.322C94.048 102.756 92.0756 99.2982 94.9519 97.6376C96.523 96.7305 98.5256 97.2633 99.4295 98.8289V98.8289C99.5149 98.9767 99.9863 98.8234 100.007 98.6539C100.126 97.6636 100.697 96.7371 101.631 96.1981C103.202 95.291 105.205 95.8238 106.108 97.3893V97.3893C106.197 97.5425 106.694 97.3831 106.717 97.2078C106.849 96.2346 107.415 95.3274 108.332 94.7975C109.832 93.9318 111.731 94.3767 112.683 95.7846L112.994 96.3071C112.994 96.3071 116.178 101.822 119.493 107.565C120.146 108.695 120.629 109.923 120.913 111.197C121.368 113.221 122.071 116.349 122.448 118.011C122.62 118.761 122.894 119.477 123.28 120.146C123.847 121.127 124.623 122.472 124.623 122.472M90.0606 107.789L94.5987 115.752" stroke="#141414" stroke-miterlimit="1.5" stroke-linejoin="round"/>
</svg>
