<svg width="24" height="24" viewBox="0 0 24 24" fill="none" xmlns="http://www.w3.org/2000/svg">
<path d="M7.7 22.5499C7.08333 22.5499 6.571 22.346 6.163 21.938C5.75433 21.5293 5.55 21.0166 5.55 20.4V3.59995C5.55 2.98328 5.75433 2.47062 6.163 2.06195C6.571 1.65395 7.08333 1.44995 7.7 1.44995H16.3C16.9167 1.44995 17.429 1.65395 17.837 2.06195C18.2457 2.47062 18.45 2.98328 18.45 3.59995V20.4C18.45 21.0166 18.2457 21.5293 17.837 21.938C17.429 22.346 16.9167 22.5499 16.3 22.5499H7.7ZM6.9 18.45H17.1V5.54995H6.9V18.45ZM6.9 19.7999V20.4C6.9 20.6 6.98333 20.7833 7.15 20.95C7.31667 21.1166 7.5 21.2 7.7 21.2H16.3C16.5 21.2 16.6833 21.1166 16.85 20.95C17.0167 20.7833 17.1 20.6 17.1 20.4V19.7999H6.9ZM6.9 4.19995H17.1V3.59995C17.1 3.39995 17.0167 3.21662 16.85 3.04995C16.6833 2.88328 16.5 2.79995 16.3 2.79995H7.7C7.5 2.79995 7.31667 2.88328 7.15 3.04995C6.98333 3.21662 6.9 3.39995 6.9 3.59995V4.19995Z" fill="#141414"/>
</svg>
