<svg width="24" height="24" viewBox="0 0 24 24" fill="none" xmlns="http://www.w3.org/2000/svg">
<path d="M5.65 22.5499C5.03333 22.5499 4.521 22.346 4.113 21.938C3.70433 21.5293 3.5 21.0166 3.5 20.4V3.59995C3.5 2.98328 3.70433 2.47062 4.113 2.06195C4.521 1.65395 5.03333 1.44995 5.65 1.44995H18.25C18.8667 1.44995 19.379 1.65395 19.787 2.06195C20.1957 2.47062 20.4 2.98328 20.4 3.59995V20.4C20.4 21.0166 20.1957 21.5293 19.787 21.938C19.379 22.346 18.8667 22.5499 18.25 22.5499H5.65ZM4.85 18.45H19.05V5.54995H4.85V18.45ZM4.85 19.7999V20.4C4.85 20.6 4.93333 20.7833 5.1 20.95C5.26667 21.1166 5.45 21.2 5.65 21.2H18.25C18.45 21.2 18.6333 21.1166 18.8 20.95C18.9667 20.7833 19.05 20.6 19.05 20.4V19.7999H4.85ZM4.85 4.19995H19.05V3.59995C19.05 3.39995 18.9667 3.21662 18.8 3.04995C18.6333 2.88328 18.45 2.79995 18.25 2.79995H5.65C5.45 2.79995 5.26667 2.88328 5.1 3.04995C4.93333 3.21662 4.85 3.39995 4.85 3.59995V4.19995Z" fill="#141414"/>
</svg>
