<svg width="24" height="24" viewBox="0 0 24 24" fill="none" xmlns="http://www.w3.org/2000/svg">
<path d="M6.70005 21.7999C6.08338 21.7999 5.57072 21.596 5.16205 21.188C4.75405 20.7793 4.55005 20.2666 4.55005 19.65V11.05C4.55005 10.4333 4.75405 9.92062 5.16205 9.51195C5.57072 9.10395 6.08338 8.89995 6.70005 8.89995H7.60005V6.89995C7.60005 5.64995 8.02505 4.59562 8.87505 3.73695C9.72505 2.87895 10.7667 2.44995 12 2.44995C13.2334 2.44995 14.275 2.87895 15.125 3.73695C15.975 4.59562 16.4 5.64995 16.4 6.89995V8.89995H17.3C17.9167 8.89995 18.4294 9.10395 18.838 9.51195C19.246 9.92062 19.45 10.4333 19.45 11.05V19.65C19.45 20.2666 19.246 20.7793 18.838 21.188C18.4294 21.596 17.9167 21.7999 17.3 21.7999H6.70005ZM8.95005 8.89995H15.05V6.89995C15.05 6.04995 14.7544 5.32062 14.163 4.71195C13.571 4.10395 12.85 3.79995 12 3.79995C11.15 3.79995 10.4294 4.10395 9.83805 4.71195C9.24605 5.32062 8.95005 6.04995 8.95005 6.89995V8.89995ZM6.70005 20.45H17.3C17.5334 20.45 17.725 20.375 17.875 20.225C18.025 20.075 18.1 19.8833 18.1 19.65V11.05C18.1 10.8166 18.025 10.625 17.875 10.475C17.725 10.325 17.5334 10.25 17.3 10.25H6.70005C6.46672 10.25 6.27505 10.325 6.12505 10.475C5.97505 10.625 5.90005 10.8166 5.90005 11.05V19.65C5.90005 19.8833 5.97505 20.075 6.12505 20.225C6.27505 20.375 6.46672 20.45 6.70005 20.45ZM12 17.1C12.4834 17.1 12.8877 16.9376 13.213 16.613C13.5377 16.2876 13.7 15.8833 13.7 15.4C13.7 14.9166 13.5377 14.5126 13.213 14.188C12.8877 13.8626 12.4834 13.7 12 13.7C11.5167 13.7 11.1127 13.8626 10.788 14.188C10.4627 14.5126 10.3 14.9166 10.3 15.4C10.3 15.8833 10.4627 16.2876 10.788 16.613C11.1127 16.9376 11.5167 17.1 12 17.1Z" fill="#141414"/>
</svg>
