<svg width="22" height="20" viewBox="0 0 22 20" fill="none" xmlns="http://www.w3.org/2000/svg">
<path d="M7.79995 19.8499L6.04995 16.8499L2.64995 16.0999L2.99995 12.5999L0.699951 9.9999L2.99995 7.3999L2.64995 3.8999L6.04995 3.1499L7.79995 0.149902L11 1.4999L14.2 0.149902L15.95 3.1499L19.35 3.8999L19 7.3999L21.2999 9.9999L19 12.5999L19.35 16.0999L15.95 16.8499L14.2 19.8499L11 18.4999L7.79995 19.8499ZM8.39995 18.0999L11 16.9999L13.65 18.0999L15.1 15.6499L17.9 14.9999L17.65 12.1499L19.5 9.9999L17.65 7.8499L17.9 4.9499L15.1 4.3499L13.6 1.8999L11 2.9999L8.34995 1.8999L6.89995 4.3499L4.09995 4.9499L4.34995 7.8499L2.49995 9.9999L4.34995 12.1499L4.09995 15.0499L6.89995 15.6499L8.39995 18.0999ZM9.94995 13.1499L15.25 7.8499L14.275 6.9249L9.94995 11.2499L7.77495 9.0249L6.79995 9.9999L9.94995 13.1499Z" fill="#141414"/>
</svg>
