<svg width="24" height="24" viewBox="0 0 24 24" fill="none" xmlns="http://www.w3.org/2000/svg">
<path d="M9.9249 18.8C8.40824 18.8 7.08757 18.296 5.9629 17.288C4.83757 16.2793 4.2749 15.0333 4.2749 13.55C4.2749 12.0667 4.83757 10.8207 5.9629 9.812C7.08757 8.804 8.40824 8.3 9.9249 8.3H17.1749L14.1749 5.3L15.1249 4.375L19.7249 8.975L15.1249 13.55L14.1749 12.65L17.1749 9.65H9.9249C8.75824 9.65 7.7499 10.0123 6.8999 10.737C6.0499 11.4623 5.6249 12.4 5.6249 13.55C5.6249 14.7 6.0499 15.6377 6.8999 16.363C7.7499 17.0877 8.75824 17.45 9.9249 17.45H16.8249V18.8H9.9249Z" fill="#141414"/>
</svg>
