<svg width="24" height="24" viewBox="0 0 24 24" fill="none" xmlns="http://www.w3.org/2000/svg">
<path d="M9.5499 18.05C9.3499 18.05 9.16657 17.9917 8.9999 17.875C8.83324 17.7584 8.71657 17.6 8.6499 17.4L6.7249 12.675H2.0249V11.325H7.6749L9.5499 15.975L13.5499 6.57505C13.6166 6.37505 13.7332 6.21672 13.8999 6.10005C14.0666 5.98338 14.2499 5.92505 14.4499 5.92505C14.6499 5.92505 14.8332 5.98338 14.9999 6.10005C15.1666 6.21672 15.2832 6.37505 15.3499 6.57505L17.3249 11.325H22.0249V12.675H16.3749L14.4499 8.00005L10.4499 17.4C10.3832 17.6 10.2666 17.7584 10.0999 17.875C9.93324 17.9917 9.7499 18.05 9.5499 18.05Z" fill="#69686b"/>
</svg>
