<svg width="24" height="24" viewBox="0 0 24 24" fill="none" xmlns="http://www.w3.org/2000/svg">
<path d="M1.95001 20.75L12 3.44995L22.05 20.75H1.95001ZM11.35 15.6H12.7V10.5H11.35V15.6ZM12.025 18.175C12.2583 18.175 12.4543 18.0916 12.613 17.925C12.771 17.7583 12.85 17.5666 12.85 17.35C12.85 17.1166 12.771 16.9206 12.613 16.762C12.4543 16.604 12.2583 16.525 12.025 16.525C11.8083 16.525 11.6167 16.604 11.45 16.762C11.2833 16.9206 11.2 17.1166 11.2 17.35C11.2 17.5666 11.2833 17.7583 11.45 17.925C11.6167 18.0916 11.8083 18.175 12.025 18.175ZM4.30001 19.4H19.7L12 6.14995L4.30001 19.4Z" fill="#DB7300"/>
</svg>
