<svg width="25" height="25" viewBox="0 0 25 25" fill="none" xmlns="http://www.w3.org/2000/svg">
<path d="M2.44995 21.25L12.5 3.95001L22.5499 21.25H2.44995ZM11.85 16.1H13.2V11H11.85V16.1ZM12.525 18.675C12.7583 18.675 12.9543 18.5917 13.113 18.425C13.271 18.2583 13.35 18.0667 13.35 17.85C13.35 17.6167 13.271 17.4207 13.113 17.262C12.9543 17.104 12.7583 17.025 12.525 17.025C12.3083 17.025 12.1166 17.104 11.95 17.262C11.7833 17.4207 11.7 17.6167 11.7 17.85C11.7 18.0667 11.7833 18.2583 11.95 18.425C12.1166 18.5917 12.3083 18.675 12.525 18.675ZM4.79995 19.9H20.2L12.5 6.65001L4.79995 19.9Z" fill="#141414"/>
</svg>
