<svg width="250" height="201" viewBox="0 0 250 201" fill="none" xmlns="http://www.w3.org/2000/svg">
<path d="M209.85 29.6504V158.35H23.1503V29.6504H209.85Z" fill="white" stroke="#141414" stroke-width="1.3" stroke-miterlimit="1.5"/>
<path d="M200.85 37.6504V150.35H32.1503V37.6504H200.85Z" fill="#EBF5DF" stroke="#141414" stroke-width="1.3" stroke-miterlimit="1.5" stroke-linecap="square"/>
<path d="M58.7657 104.838C58.0205 104.838 57.3002 104.391 56.9525 103.696L56.3564 102.355H50.4451L49.849 103.696C49.5013 104.391 48.8059 104.838 48.0359 104.838H47.713L50.2464 124.112C50.3706 124.485 50.619 124.485 50.7432 124.112L53.2518 117.953L55.4374 124.087C55.5616 124.46 55.81 124.46 55.9342 124.087L58.865 104.863L58.7657 104.838Z" fill="url(#paint0_linear_19272_4662)"/>
<path d="M56.1329 101.833H50.6936L49.8739 103.696C49.6007 104.267 49.0294 104.665 48.4333 104.789L50.3458 116.661C50.47 116.885 50.7184 116.885 50.8426 116.661L53.3015 112.935L55.5368 116.636C55.6859 116.86 55.9094 116.86 56.0336 116.636L58.1944 104.739C57.6729 104.59 57.201 104.218 56.9277 103.696L56.1329 101.833Z" fill="url(#paint1_linear_19272_4662)"/>
<path d="M56.9774 103.696L53.4256 95.7479L49.8739 103.696C49.7497 103.919 49.6007 104.143 49.402 104.317L50.8674 112.215C50.9419 112.314 51.1406 112.364 51.2896 112.215L53.2766 109.582L55.2636 112.19C55.3878 112.339 55.6113 112.314 55.6858 112.19L57.3251 104.193C57.1761 104.044 57.0519 103.895 56.9774 103.696Z" fill="url(#paint2_linear_19272_4662)"/>
<path opacity="0.5" d="M56.9774 103.696L53.4256 95.7479L49.8739 103.696C49.7497 103.919 49.6007 104.143 49.402 104.317L50.8674 112.215C50.9419 112.314 51.1406 112.364 51.2896 112.215L53.2766 109.582L55.2636 112.19C55.3878 112.339 55.6113 112.314 55.6858 112.19L57.3251 104.193C57.1761 104.044 57.0519 103.895 56.9774 103.696Z" fill="url(#paint3_linear_19272_4662)"/>
<path d="M42.0253 84.9189C41.9259 84.5463 42.1246 84.2731 42.522 84.2731H45.6515C45.8751 84.2731 46.0738 84.4718 46.1483 84.6457L48.4333 93.6616H48.5327L52.6557 84.2979C52.7302 84.1489 52.8792 83.9999 53.1027 83.9999H53.5995C53.823 83.9999 53.9969 84.1241 54.0466 84.2979L58.1696 93.6616H58.2689L60.554 84.6457C60.6036 84.447 60.8272 84.2731 61.0507 84.2731H64.1802C64.5528 84.2731 64.7515 84.5463 64.677 84.9189L59.635 102.827C59.5853 103.05 59.3618 103.199 59.1382 103.199H58.716C58.5173 103.199 58.3434 103.075 58.2689 102.901L53.3759 91.9975H53.3014L48.4581 102.901C48.3836 103.05 48.1849 103.199 48.0111 103.199H47.5888C47.3653 103.199 47.1666 103.05 47.0921 102.827L42.0253 84.9189ZM67.4587 84.7698C67.4587 84.4966 67.6823 84.2731 67.9555 84.2731H74.3884C77.6669 84.2731 80.3494 86.9307 80.3494 90.1596C80.3494 93.4629 77.6669 96.1454 74.4132 96.1454H71.6066V102.404C71.6066 102.678 71.3831 102.901 71.1098 102.901H67.9803C67.6823 102.901 67.4836 102.678 67.4836 102.404L67.4587 84.7698ZM74.1648 92.2459C75.3074 92.2459 76.276 91.3269 76.276 90.1347C76.276 89.017 75.3074 88.1477 74.1648 88.1477H71.6314V92.2211H74.1648" fill="#F56640"/>
<path d="M89.0424 84.7698C89.0424 84.4966 89.2659 84.2731 89.5392 84.2731H97.4871C100.691 84.2731 103.299 86.8562 103.299 90.0354C103.299 92.4943 101.685 94.4564 99.3499 95.4002L103.001 102.156C103.2 102.504 103.001 102.926 102.554 102.926H99.0022C98.7787 102.926 98.6297 102.802 98.58 102.702L95.0282 95.6486H93.1903V102.454C93.1903 102.727 92.9667 102.951 92.6935 102.951H89.5143C89.2163 102.951 89.0176 102.727 89.0176 102.454L89.0424 84.7698ZM97.1642 92.2211C98.2571 92.2211 99.2009 91.2276 99.2009 90.085C99.2009 88.9674 98.2819 88.0484 97.1642 88.0484H93.2151V92.2211H97.1642ZM115.097 83.9999C120.412 83.9999 124.684 88.2967 124.684 93.6119C124.684 98.9272 120.437 103.174 115.097 103.174C109.782 103.174 105.534 98.9272 105.534 93.6119C105.534 88.2967 109.782 83.9999 115.097 83.9999ZM115.097 98.9023C118.028 98.9023 120.412 96.4931 120.412 93.5871C120.412 90.6563 118.003 88.2222 115.097 88.2222C112.191 88.2222 109.782 90.6315 109.782 93.5871C109.806 96.5179 112.191 98.9023 115.097 98.9023ZM136.184 83.9999C138.841 83.9999 140.804 84.8443 142.642 86.4836C142.865 86.7072 142.865 87.0052 142.666 87.2287L140.605 89.3896C140.406 89.5883 140.108 89.5883 139.934 89.3896C138.941 88.5203 137.649 88.0235 136.333 88.0235C133.327 88.0235 131.117 90.5321 131.117 93.5126C131.117 96.4683 133.352 98.9271 136.358 98.9271C137.624 98.9271 138.966 98.4801 139.909 97.6604C140.108 97.5114 140.431 97.5114 140.605 97.6853L142.666 99.8958C142.865 100.095 142.815 100.417 142.642 100.616C140.828 102.38 138.543 103.199 136.184 103.199C130.869 103.199 126.572 98.952 126.572 93.6368C126.547 88.3216 130.844 83.9999 136.184 83.9999ZM145.846 84.9189C145.846 84.5711 146.119 84.2731 146.491 84.2731H149.621C149.969 84.2731 150.267 84.5711 150.267 84.9189V91.923L156.178 84.5463C156.277 84.4221 156.526 84.2731 156.675 84.2731H160.028C160.524 84.2731 160.798 84.8444 160.524 85.2666L154.29 93.0655L161.096 101.908C161.394 102.305 161.096 102.901 160.599 102.901H156.923C156.724 102.901 156.501 102.802 156.426 102.702L150.242 94.3322V102.28C150.242 102.628 149.944 102.926 149.596 102.926H146.466C146.094 102.926 145.821 102.628 145.821 102.28L145.846 84.9189ZM163.778 84.7698C163.778 84.4966 164.002 84.2731 164.275 84.2731H175.303C175.601 84.2731 175.799 84.4966 175.799 84.7698V87.6758C175.799 87.949 175.576 88.1726 175.303 88.1726H167.926V91.4759H174.011C174.284 91.4759 174.508 91.6995 174.508 91.9727V94.8787C174.508 95.1767 174.284 95.3754 174.011 95.3754H167.926V98.9768H175.303C175.601 98.9768 175.799 99.2004 175.799 99.4736V102.38C175.799 102.653 175.576 102.876 175.303 102.876H164.275C163.977 102.876 163.778 102.653 163.778 102.38V84.7698ZM181.785 88.1726H177.96C177.662 88.1726 177.464 87.949 177.464 87.6758V84.7698C177.464 84.4966 177.687 84.2731 177.96 84.2731H189.783C190.081 84.2731 190.28 84.4966 190.28 84.7698V87.6758C190.28 87.949 190.056 88.1726 189.783 88.1726H185.983V102.404C185.983 102.678 185.759 102.901 185.486 102.901H182.257C181.984 102.901 181.76 102.678 181.76 102.404L181.785 88.1726Z" fill="#0E1B23"/>
<path d="M137.85 158.65V200.35H95.1503V158.65H137.85Z" fill="white" stroke="#141414" stroke-width="1.3" stroke-miterlimit="1.5"/>
<line x1="76.4999" y1="200.35" x2="156.5" y2="200.35" stroke="#141414" stroke-width="1.3"/>
<path d="M0.5 179L13.9743 165.36" stroke="#141414" stroke-width="1.3"/>
<path d="M26.4 135.65C30.8798 135.65 35.1914 137.402 38.4264 140.517L38.736 140.823C42.0038 144.147 43.8501 148.634 43.8502 153.321C43.8502 158.008 42.004 162.496 38.736 165.82C35.4539 169.142 31.0247 170.993 26.4 170.993C21.7758 170.993 17.3307 169.127 14.0641 165.82C10.7818 162.498 8.95081 158.01 8.95081 153.321C8.95092 148.633 10.7973 144.13 14.0641 140.823C17.3461 137.501 21.7754 135.65 26.4 135.65Z" fill="white" stroke="#141414" stroke-width="1.3"/>
<path d="M205.5 51.9999C214.889 51.9999 222.5 44.3887 222.5 34.9999C222.5 25.611 214.889 17.9999 205.5 17.9999C196.111 17.9999 188.5 25.611 188.5 34.9999C188.5 44.3887 196.111 51.9999 205.5 51.9999Z" fill="white" stroke="#141414" stroke-width="1.3" stroke-miterlimit="1.5"/>
<path d="M205.5 44.07C204.123 44.07 203.009 42.9564 203.009 41.5795C203.009 41.01 203.009 40.4489 203.009 39.9899C203.009 39.3524 202.822 38.7319 202.465 38.1964C202.015 37.5164 201.309 36.471 200.51 35.2725C199.278 33.428 199.167 31.065 200.213 29.11C201.258 27.155 203.29 25.9395 205.5 25.9395H205.508C207.718 25.9395 209.758 27.155 210.795 29.11C211.841 31.065 211.722 33.428 210.498 35.2725C209.69 36.471 208.993 37.5249 208.543 38.1964C208.186 38.7234 207.999 39.3524 207.999 39.9899C207.999 40.4489 207.999 41.0185 207.999 41.5795C207.99 42.948 206.877 44.07 205.5 44.07Z" fill="#A6D0EC" stroke="#141414" stroke-width="1.3" stroke-miterlimit="1.5" stroke-linecap="square"/>
<path d="M203.537 40.1851H207.438" stroke="#141414" stroke-width="1.3" stroke-miterlimit="1.5" stroke-linecap="square"/>
<path d="M198.5 184.667L198.5 188" stroke="#141414" stroke-width="1.3" stroke-miterlimit="1.5" stroke-linejoin="bevel"/>
<path d="M198.5 168L198.5 171.333" stroke="#141414" stroke-width="1.3" stroke-miterlimit="1.5" stroke-linejoin="bevel"/>
<path d="M201.833 183.772L203.5 186.659" stroke="#141414" stroke-width="1.3" stroke-miterlimit="1.5" stroke-linejoin="bevel"/>
<path d="M193.5 169.34L195.167 172.227" stroke="#141414" stroke-width="1.3" stroke-miterlimit="1.5" stroke-linejoin="bevel"/>
<path d="M201.833 172.227L203.5 169.34" stroke="#141414" stroke-width="1.3" stroke-miterlimit="1.5" stroke-linejoin="bevel"/>
<path d="M193.5 186.659L195.167 183.772" stroke="#141414" stroke-width="1.3" stroke-miterlimit="1.5" stroke-linejoin="bevel"/>
<path d="M205.167 178L208.5 178" stroke="#141414" stroke-width="1.3" stroke-miterlimit="1.5" stroke-linejoin="bevel"/>
<path d="M188.5 178L191.833 178" stroke="#141414" stroke-width="1.3" stroke-miterlimit="1.5" stroke-linejoin="bevel"/>
<path d="M204.273 181.333L207.16 183" stroke="#141414" stroke-width="1.3" stroke-miterlimit="1.5" stroke-linejoin="bevel"/>
<path d="M189.84 173L192.727 174.667" stroke="#141414" stroke-width="1.3" stroke-miterlimit="1.5" stroke-linejoin="bevel"/>
<path d="M192.727 181.333L189.84 183" stroke="#141414" stroke-width="1.3" stroke-miterlimit="1.5" stroke-linejoin="bevel"/>
<path d="M207.16 173L204.273 174.667" stroke="#141414" stroke-width="1.3" stroke-miterlimit="1.5" stroke-linejoin="bevel"/>
<mask id="path-28-inside-1_19272_4662" fill="white">
<path d="M231.25 167.42C228.42 166.834 225.921 165.363 224.06 163.313L220.587 164.535L218.501 160.963L221.306 158.604C220.878 157.312 220.646 155.933 220.646 154.5C220.646 153.067 220.878 151.687 221.306 150.395L218.5 148.036L220.587 144.464L224.06 145.686C225.921 143.637 228.421 142.167 231.25 141.581L231.914 138L236.087 138L236.752 141.582C239.581 142.168 242.081 143.637 243.941 145.686L247.413 144.463L249.5 148.035L246.695 150.394C247.123 151.687 247.354 153.066 247.354 154.5C247.354 155.933 247.123 157.313 246.695 158.605L249.5 160.964L247.413 164.536L243.942 163.313C242.082 165.363 239.581 166.833 236.752 167.419L236.087 171L231.914 171L231.25 167.42Z"/>
</mask>
<path d="M231.25 167.42C228.42 166.834 225.921 165.363 224.06 163.313L220.587 164.535L218.501 160.963L221.306 158.604C220.878 157.312 220.646 155.933 220.646 154.5C220.646 153.067 220.878 151.687 221.306 150.395L218.5 148.036L220.587 144.464L224.06 145.686C225.921 143.637 228.421 142.167 231.25 141.581L231.914 138L236.087 138L236.752 141.582C239.581 142.168 242.081 143.637 243.941 145.686L247.413 144.463L249.5 148.035L246.695 150.394C247.123 151.687 247.354 153.066 247.354 154.5C247.354 155.933 247.123 157.313 246.695 158.605L249.5 160.964L247.413 164.536L243.942 163.313C242.082 165.363 239.581 166.833 236.752 167.419L236.087 171L231.914 171L231.25 167.42Z" fill="#D9EBF7"/>
<path d="M231.25 167.42L232.528 167.183L232.369 166.324L231.513 166.147L231.25 167.42ZM224.06 163.313L225.022 162.439L224.442 161.801L223.628 162.087L224.06 163.313ZM220.587 164.535L219.464 165.191L220.006 166.118L221.018 165.761L220.587 164.535ZM218.501 160.963L217.664 159.968L216.826 160.673L217.378 161.618L218.501 160.963ZM221.306 158.604L222.142 159.599L222.816 159.032L222.54 158.196L221.306 158.604ZM220.646 154.5L219.346 154.5L219.346 154.5L220.646 154.5ZM221.306 150.395L222.54 150.804L222.816 149.967L222.142 149.4L221.306 150.395ZM218.5 148.036L217.378 147.38L216.825 148.326L217.663 149.031L218.5 148.036ZM220.587 144.464L221.019 143.238L220.006 142.881L219.464 143.808L220.587 144.464ZM224.06 145.686L223.628 146.913L224.442 147.199L225.022 146.56L224.06 145.686ZM231.25 141.581L231.513 142.854L232.369 142.677L232.528 141.818L231.25 141.581ZM231.914 138L231.914 136.7L230.833 136.7L230.636 137.763L231.914 138ZM236.087 138L237.365 137.763L237.168 136.7L236.087 136.7L236.087 138ZM236.752 141.582L235.474 141.819L235.633 142.678L236.488 142.855L236.752 141.582ZM243.941 145.686L242.979 146.56L243.559 147.199L244.374 146.912L243.941 145.686ZM247.413 144.463L248.536 143.807L247.994 142.88L246.981 143.237L247.413 144.463ZM249.5 148.035L250.337 149.03L251.175 148.325L250.622 147.379L249.5 148.035ZM246.695 150.394L245.858 149.4L245.185 149.967L245.461 150.803L246.695 150.394ZM247.354 154.5L248.654 154.5L248.654 154.5L247.354 154.5ZM246.695 158.605L245.461 158.197L245.184 159.033L245.859 159.6L246.695 158.605ZM249.5 160.964L250.622 161.62L251.175 160.674L250.337 159.969L249.5 160.964ZM247.413 164.536L246.981 165.762L247.994 166.119L248.536 165.192L247.413 164.536ZM243.942 163.313L244.374 162.087L243.56 161.8L242.98 162.439L243.942 163.313ZM236.752 167.419L236.488 166.146L235.633 166.323L235.474 167.181L236.752 167.419ZM236.087 171L236.087 172.3L237.168 172.3L237.365 171.237L236.087 171ZM231.914 171L230.636 171.237L230.833 172.3L231.914 172.3L231.914 171ZM231.25 167.42L231.513 166.147C228.959 165.618 226.702 164.29 225.022 162.439L224.06 163.313L223.097 164.187C225.139 166.436 227.882 168.05 230.987 168.693L231.25 167.42ZM224.06 163.313L223.628 162.087L220.155 163.309L220.587 164.535L221.018 165.761L224.491 164.54L224.06 163.313ZM220.587 164.535L221.71 163.88L219.624 160.307L218.501 160.963L217.378 161.618L219.464 165.191L220.587 164.535ZM218.501 160.963L219.338 161.958L222.142 159.599L221.306 158.604L220.469 157.609L217.664 159.968L218.501 160.963ZM221.306 158.604L222.54 158.196C222.155 157.034 221.946 155.792 221.946 154.5L220.646 154.5L219.346 154.5C219.346 156.074 219.601 157.591 220.071 159.013L221.306 158.604ZM220.646 154.5L221.946 154.5C221.946 153.208 222.155 151.966 222.54 150.804L221.306 150.395L220.071 149.987C219.601 151.409 219.346 152.926 219.346 154.5L220.646 154.5ZM221.306 150.395L222.142 149.4L219.337 147.041L218.5 148.036L217.663 149.031L220.469 151.39L221.306 150.395ZM218.5 148.036L219.622 148.692L221.709 145.12L220.587 144.464L219.464 143.808L217.378 147.38L218.5 148.036ZM220.587 144.464L220.155 145.69L223.628 146.913L224.06 145.686L224.491 144.46L221.019 143.238L220.587 144.464ZM224.06 145.686L225.022 146.56C226.702 144.71 228.959 143.383 231.513 142.854L231.25 141.581L230.987 140.308C227.882 140.95 225.139 142.564 223.097 144.812L224.06 145.686ZM231.25 141.581L232.528 141.818L233.192 138.237L231.914 138L230.636 137.763L229.972 141.344L231.25 141.581ZM231.914 138L231.914 139.3L236.087 139.3L236.087 138L236.087 136.7L231.914 136.7L231.914 138ZM236.087 138L234.809 138.237L235.474 141.819L236.752 141.582L238.03 141.345L237.365 137.763L236.087 138ZM236.752 141.582L236.488 142.855C239.042 143.384 241.299 144.71 242.979 146.56L243.941 145.686L244.904 144.812C242.862 142.564 240.119 140.952 237.016 140.309L236.752 141.582ZM243.941 145.686L244.374 146.912L247.845 145.689L247.413 144.463L246.981 143.237L243.509 144.46L243.941 145.686ZM247.413 144.463L246.291 145.119L248.378 148.691L249.5 148.035L250.622 147.379L248.536 143.807L247.413 144.463ZM249.5 148.035L248.663 147.04L245.858 149.4L246.695 150.394L247.532 151.389L250.337 149.03L249.5 148.035ZM246.695 150.394L245.461 150.803C245.846 151.965 246.054 153.207 246.054 154.5L247.354 154.5L248.654 154.5C248.654 152.926 248.4 151.408 247.93 149.986L246.695 150.394ZM247.354 154.5L246.054 154.5C246.054 155.792 245.846 157.034 245.461 158.197L246.695 158.605L247.93 159.014C248.4 157.592 248.654 156.074 248.654 154.5L247.354 154.5ZM246.695 158.605L245.859 159.6L248.663 161.959L249.5 160.964L250.337 159.969L247.532 157.61L246.695 158.605ZM249.5 160.964L248.378 160.308L246.291 163.88L247.413 164.536L248.536 165.192L250.622 161.62L249.5 160.964ZM247.413 164.536L247.845 163.31L244.374 162.087L243.942 163.313L243.51 164.539L246.981 165.762L247.413 164.536ZM243.942 163.313L242.98 162.439C241.3 164.29 239.043 165.617 236.488 166.146L236.752 167.419L237.016 168.692C240.12 168.049 242.863 166.436 244.905 164.187L243.942 163.313ZM236.752 167.419L235.474 167.181L234.809 170.763L236.087 171L237.365 171.237L238.03 167.656L236.752 167.419ZM236.087 171L236.087 169.7L231.914 169.7L231.914 171L231.914 172.3L236.087 172.3L236.087 171ZM231.914 171L233.192 170.763L232.528 167.183L231.25 167.42L229.972 167.657L230.636 171.237L231.914 171Z" fill="#141414" mask="url(#path-28-inside-1_19272_4662)"/>
<path d="M234.06 162.925C229.341 162.925 225.528 159.146 225.528 154.5C225.529 149.855 229.341 146.076 234.06 146.076C238.778 146.076 242.59 149.855 242.59 154.5C242.59 159.146 238.778 162.925 234.06 162.925Z" fill="white" stroke="#141414" stroke-width="1.3"/>
<mask id="path-31-inside-2_19272_4662" fill="white">
<path d="M205.661 144.312C202.74 143.709 200.159 142.193 198.238 140.081L194.654 141.34L192.501 137.659L195.396 135.23C194.955 133.899 194.715 132.478 194.715 131.001C194.715 129.524 194.955 128.103 195.396 126.771L192.501 124.34L194.654 120.659L198.24 121.92C200.161 119.809 202.741 118.295 205.661 117.691L206.347 114L210.654 114L211.341 117.691C214.261 118.295 216.841 119.809 218.762 121.92L222.346 120.659L224.5 124.34L221.604 126.771C222.046 128.103 222.285 129.524 222.285 131.001C222.285 132.477 222.046 133.898 221.605 135.229L224.5 137.659L222.347 141.34L218.764 140.081C216.843 142.193 214.261 143.709 211.34 144.312L210.654 148L206.347 148L205.661 144.312Z"/>
</mask>
<path d="M205.661 144.312C202.74 143.709 200.159 142.193 198.238 140.081L194.654 141.34L192.501 137.659L195.396 135.23C194.955 133.899 194.715 132.478 194.715 131.001C194.715 129.524 194.955 128.103 195.396 126.771L192.501 124.34L194.654 120.659L198.24 121.92C200.161 119.809 202.741 118.295 205.661 117.691L206.347 114L210.654 114L211.341 117.691C214.261 118.295 216.841 119.809 218.762 121.92L222.346 120.659L224.5 124.34L221.604 126.771C222.046 128.103 222.285 129.524 222.285 131.001C222.285 132.477 222.046 133.898 221.605 135.229L224.5 137.659L222.347 141.34L218.764 140.081C216.843 142.193 214.261 143.709 211.34 144.312L210.654 148L206.347 148L205.661 144.312Z" fill="#A6D0EC"/>
<path d="M205.661 144.312L206.939 144.075L206.78 143.216L205.924 143.039L205.661 144.312ZM198.238 140.081L199.2 139.206L198.62 138.569L197.807 138.854L198.238 140.081ZM194.654 141.34L193.532 141.996L194.074 142.922L195.085 142.566L194.654 141.34ZM192.501 137.659L191.666 136.663L190.825 137.368L191.379 138.316L192.501 137.659ZM195.396 135.23L196.232 136.226L196.908 135.659L196.63 134.821L195.396 135.23ZM194.715 131.001L193.415 131.001L193.415 131.001L194.715 131.001ZM195.396 126.771L196.63 127.18L196.908 126.343L196.233 125.776L195.396 126.771ZM192.501 124.34L191.379 123.683L190.825 124.63L191.665 125.335L192.501 124.34ZM194.654 120.659L195.085 119.433L194.074 119.077L193.532 120.003L194.654 120.659ZM198.24 121.92L197.809 123.146L198.622 123.432L199.202 122.795L198.24 121.92ZM205.661 117.691L205.924 118.964L206.78 118.788L206.939 117.929L205.661 117.691ZM206.347 114L206.347 112.7L205.266 112.7L205.069 113.763L206.347 114ZM210.654 114L211.932 113.762L211.735 112.7L210.654 112.7L210.654 114ZM211.341 117.691L210.063 117.929L210.222 118.788L211.078 118.964L211.341 117.691ZM218.762 121.92L217.8 122.795L218.38 123.432L219.193 123.146L218.762 121.92ZM222.346 120.659L223.468 120.002L222.926 119.077L221.914 119.433L222.346 120.659ZM224.5 124.34L225.336 125.335L226.176 124.63L225.622 123.683L224.5 124.34ZM221.604 126.771L220.768 125.776L220.093 126.343L220.37 127.18L221.604 126.771ZM222.285 131.001L223.585 131.001L223.585 131.001L222.285 131.001ZM221.605 135.229L220.371 134.821L220.094 135.658L220.77 136.225L221.605 135.229ZM224.5 137.659L225.622 138.316L226.176 137.369L225.336 136.663L224.5 137.659ZM222.347 141.34L221.916 142.566L222.927 142.922L223.469 141.996L222.347 141.34ZM218.764 140.081L219.195 138.854L218.382 138.569L217.802 139.206L218.764 140.081ZM211.34 144.312L211.077 143.039L210.221 143.216L210.062 144.075L211.34 144.312ZM210.654 148L210.654 149.3L211.735 149.3L211.932 148.237L210.654 148ZM206.347 148L205.069 148.237L205.266 149.3L206.347 149.3L206.347 148ZM205.661 144.312L205.924 143.039C203.278 142.493 200.94 141.119 199.2 139.206L198.238 140.081L197.277 140.956C199.379 143.266 202.202 144.925 205.398 145.586L205.661 144.312ZM198.238 140.081L197.807 138.854L194.224 140.113L194.654 141.34L195.085 142.566L198.669 141.307L198.238 140.081ZM194.654 141.34L195.776 140.683L193.623 137.003L192.501 137.659L191.379 138.316L193.532 141.996L194.654 141.34ZM192.501 137.659L193.336 138.655L196.232 136.226L195.396 135.23L194.561 134.234L191.666 136.663L192.501 137.659ZM195.396 135.23L196.63 134.821C196.232 133.619 196.015 132.336 196.015 131.001L194.715 131.001L193.415 131.001C193.415 132.62 193.679 134.179 194.162 135.639L195.396 135.23ZM194.715 131.001L196.015 131.001C196.015 129.666 196.232 128.383 196.63 127.18L195.396 126.771L194.162 126.362C193.678 127.823 193.415 129.382 193.415 131.001L194.715 131.001ZM195.396 126.771L196.233 125.776L193.337 123.344L192.501 124.34L191.665 125.335L194.56 127.767L195.396 126.771ZM192.501 124.34L193.623 124.996L195.776 121.316L194.654 120.659L193.532 120.003L191.379 123.683L192.501 124.34ZM194.654 120.659L194.223 121.885L197.809 123.146L198.24 121.92L198.671 120.693L195.085 119.433L194.654 120.659ZM198.24 121.92L199.202 122.795C200.942 120.883 203.279 119.511 205.924 118.964L205.661 117.691L205.398 116.418C202.203 117.078 199.381 118.735 197.279 121.045L198.24 121.92ZM205.661 117.691L206.939 117.929L207.625 114.237L206.347 114L205.069 113.763L204.383 117.454L205.661 117.691ZM206.347 114L206.347 115.3L210.654 115.3L210.654 114L210.654 112.7L206.347 112.7L206.347 114ZM210.654 114L209.376 114.238L210.063 117.929L211.341 117.691L212.619 117.454L211.932 113.762L210.654 114ZM211.341 117.691L211.078 118.964C213.723 119.511 216.061 120.883 217.8 122.795L218.762 121.92L219.723 121.045C217.621 118.735 214.798 117.078 211.604 116.418L211.341 117.691ZM218.762 121.92L219.193 123.146L222.777 121.885L222.346 120.659L221.914 119.433L218.33 120.693L218.762 121.92ZM222.346 120.659L221.224 121.316L223.378 124.996L224.5 124.34L225.622 123.683L223.468 120.002L222.346 120.659ZM224.5 124.34L223.664 123.344L220.768 125.776L221.604 126.771L222.441 127.767L225.336 125.335L224.5 124.34ZM221.604 126.771L220.37 127.18C220.769 128.382 220.985 129.666 220.985 131.001L222.285 131.001L223.585 131.001C223.585 129.383 223.323 127.823 222.838 126.362L221.604 126.771ZM222.285 131.001L220.985 131.001C220.985 132.336 220.769 133.619 220.371 134.821L221.605 135.229L222.84 135.638C223.323 134.177 223.585 132.618 223.585 131.001L222.285 131.001ZM221.605 135.229L220.77 136.225L223.664 138.655L224.5 137.659L225.336 136.663L222.441 134.234L221.605 135.229ZM224.5 137.659L223.378 137.003L221.225 140.683L222.347 141.34L223.469 141.996L225.622 138.316L224.5 137.659ZM222.347 141.34L222.778 140.113L219.195 138.854L218.764 140.081L218.333 141.307L221.916 142.566L222.347 141.34ZM218.764 140.081L217.802 139.206C216.062 141.119 213.723 142.493 211.077 143.039L211.34 144.312L211.603 145.585C214.799 144.925 217.623 143.267 219.725 140.956L218.764 140.081ZM211.34 144.312L210.062 144.075L209.376 147.762L210.654 148L211.932 148.237L212.618 144.55L211.34 144.312ZM210.654 148L210.654 146.7L206.347 146.7L206.347 148L206.347 149.3L210.654 149.3L210.654 148ZM206.347 148L207.625 147.762L206.939 144.075L205.661 144.312L204.383 144.55L205.069 148.237L206.347 148Z" fill="#141414" mask="url(#path-31-inside-2_19272_4662)"/>
<path d="M208.561 139.7C203.677 139.7 199.734 135.797 199.734 131.001C199.734 126.204 203.677 122.301 208.561 122.301C213.444 122.301 217.388 126.204 217.388 131.001C217.388 135.797 213.444 139.7 208.561 139.7Z" fill="white" stroke="#141414" stroke-width="1.3"/>
<path d="M218.5 9.99976H238.5" stroke="#141414" stroke-width="1.3" stroke-miterlimit="1.5" stroke-linejoin="bevel"/>
<path d="M228.5 -0.00012207V19.9999" stroke="#141414" stroke-width="1.3" stroke-miterlimit="1.5" stroke-linejoin="bevel"/>
<path d="M228.5 2.85925C228.5 6.80325 231.852 10.0033 235.796 10.0033C231.852 10.0033 228.5 13.1993 228.5 17.1473C228.5 13.2033 224.976 10.0033 221.032 10.0033H221.36H221.032C224.976 9.99925 228.5 6.80325 228.5 2.85925Z" fill="white" stroke="#141414" stroke-width="1.3" stroke-miterlimit="1.5" stroke-linejoin="bevel"/>
<defs>
<linearGradient id="paint0_linear_19272_4662" x1="53.3097" y1="124.366" x2="53.3097" y2="109.525" gradientUnits="userSpaceOnUse">
<stop stop-color="#F56640"/>
<stop offset="0.2439" stop-color="#F57840"/>
<stop offset="1" stop-color="#FFBE54"/>
</linearGradient>
<linearGradient id="paint1_linear_19272_4662" x1="53.3334" y1="116.582" x2="53.3334" y2="104.68" gradientUnits="userSpaceOnUse">
<stop stop-color="#F56640"/>
<stop offset="0.1811" stop-color="#F57840"/>
<stop offset="1" stop-color="#FFBE54"/>
</linearGradient>
<linearGradient id="paint2_linear_19272_4662" x1="53.3406" y1="114.035" x2="53.3406" y2="91.5312" gradientUnits="userSpaceOnUse">
<stop stop-color="#F56640"/>
<stop offset="0.0837881" stop-color="#F57840"/>
<stop offset="1" stop-color="#FFBE54"/>
</linearGradient>
<linearGradient id="paint3_linear_19272_4662" x1="53.3406" y1="109.722" x2="53.3406" y2="95.7474" gradientUnits="userSpaceOnUse">
<stop stop-color="#F56640"/>
<stop offset="0.3911" stop-color="#F57840"/>
<stop offset="1" stop-color="#FFBE54"/>
</linearGradient>
</defs>
</svg>
